<?xml version="1.0" standalone="no"?>
<!DOCTYPE svg PUBLIC "-//W3C//DTD SVG 1.1//EN" "http://www.w3.org/Graphics/SVG/1.1/DTD/svg11.dtd" >
<svg>
<metadata>
Created by FontForge 20090622 at Mon Sep  9 10:37:16 2019
 By deploy user
Font software Copyright 1996 Adobe Systems Incorporated. Typeface designs Copyright 1996 The Monotype Corporation. All rights reserved.
</metadata>
<defs>
<font id="PastonchiMTStd-Regular" horiz-adv-x="458" >
  <font-face 
    font-family="Pastonchi MT Std"
    font-weight="400"
    font-stretch="normal"
    units-per-em="1000"
    panose-1="2 2 6 3 5 4 5 2 3 4"
    ascent="670"
    descent="-330"
    x-height="345"
    cap-height="644"
    bbox="-145 -278 1406 857"
    underline-thickness="50"
    underline-position="-50"
    unicode-range="U+0020-U+FB06"
  />
<missing-glyph horiz-adv-x="500" 
d="M12 0v665h475v-665h-475zM88 618l162 -243l161 243h-323zM60 575v-484l40 61l80 120l41 61zM440 575l-162 -242l162 -243v485zM411 48l-161 242l-162 -242h323z" />
    <glyph glyph-name="f_f" unicode="ff" horiz-adv-x="499" 
d="M539 548q-36 24 -72 24q-41 0 -72.5 -32.5t-31.5 -108.5v-86h108l-29 -46h-9q-24 15 -49 15h-21v-220q0 -39 14.5 -51t56.5 -12h48l-1 -31h-233l-5 31h14q25 0 31.5 7.5t6.5 38.5v237h-141v-230q0 -32 9.5 -42.5t40.5 -10.5h20l-10 -31h-195l-7 31h15q36 0 47.5 12
t11.5 43v228h-37l19 31h17v25q0 135 64.5 208.5t166.5 73.5q82 0 136 -53q33 9 65 9q15 0 15 -6l13 -46q1 -1 1 -2zM286 626q-20 0 -40 -8t-42 -27t-36 -59t-14 -96v-91h141v42q0 132 95 184q-38 55 -104 55z" />
    <glyph glyph-name="fi" unicode="fi" horiz-adv-x="490" 
d="M471 0h-198v31h13q37 0 46.5 9.5t9.5 43.5v186q0 27 -8 35.5t-36 8.5h-144v-236q0 -28 8.5 -37.5t41.5 -9.5h32l-6 -31h-207l-7 31h24q30 0 38 8.5t8 46.5v228h-37l19 31h17v50q0 113 63 185t169 72q31 0 56 -8.5t35.5 -17t10.5 -13.5q0 -4 -15 -18t-25 -14
q-7 0 -13.5 4.5t-14 12.5t-12.5 12q-22 16 -51 16q-47 0 -78.5 -33t-43.5 -75t-12 -87v-86h168q50 0 73 23h15v-290q0 -27 8.5 -37t42.5 -10h20z" />
    <glyph glyph-name="fl" unicode="fl" horiz-adv-x="490" 
d="M270 0l-6 31h25q35 0 43.5 8t8.5 45v438q0 48 -21 72t-58 24q-45 0 -77 -43.5t-32 -116.5v-113h153l-29 -59h-14q-6 17 -14 22.5t-33 5.5h-63v-238q0 -28 7 -36.5t38 -8.5h44l-12 -31h-202l-5 31h14q33 0 40.5 10.5t7.5 42.5v230h-37l16 31h20v99q0 85 62 146.5t150 61.5
q29 0 65 -17q12 4 35 17h13v-568q0 -35 8.5 -44t47.5 -9h19v-31h-214z" />
    <glyph glyph-name="f_f_i" unicode="ffi" horiz-adv-x="692" 
d="M672 0h-173l-11 31h21q20 0 27.5 10t7.5 44v201q0 28 -24 28h-137v-224q0 -30 13 -44.5t45 -14.5h26v-31h-190l-9 31h21q18 0 22 7.5t4 35.5v240h-161v-219q0 -41 10.5 -52.5t40.5 -11.5h37l6 -31h-230l-6 31h25q26 0 37.5 10.5t11.5 44.5v228h-37l19 31h18v50
q0 103 55.5 180t153.5 77q76 0 137 -60q42 21 84 21q44 0 91 -33q15 -11 15 -17q0 -8 -18.5 -19t-26.5 -11q-9 0 -17 11q-27 39 -76 39q-34 0 -67.5 -32.5t-33.5 -111.5v-94h125q58 0 90 23h14v-287q0 -50 45 -50h24zM286 627q-53 0 -92.5 -42t-39.5 -115v-125h161v40
q0 99 62 166q-23 44 -44 60t-47 16z" />
    <glyph glyph-name="f_f_l" unicode="ffl" horiz-adv-x="690" 
d="M674 0h-176l-5 31h13q25 0 31.5 7t6.5 35v467q-32 43 -76 43q-9 0 -21 -5t-27.5 -17t-26 -39t-10.5 -64v-113h107l-26 -54h-10q-2 1 -5 4q-14 13 -21.5 16t-26.5 3h-18v-220q0 -36 12 -49.5t45 -13.5h26l-6 -31h-186l-6 31h16q19 0 25 9t6 33v241h-161v-220
q0 -44 9 -53.5t47 -9.5h36l-8 -31h-219l-7 31h24q27 0 38.5 11t11.5 45v227h-36l18 31h18v71q0 92 57 164t153 72q74 0 134 -60q28 19 67 19q38 0 75 -19q9 4 21 20h19v-519q0 -36 11 -49t39 -13h21zM286 627q-51 0 -91.5 -40.5t-40.5 -116.5v-125h161v40q0 102 62 166
q-23 44 -44 60t-47 16z" />
    <glyph glyph-name=".notdef" horiz-adv-x="500" 
d="M12 0v665h475v-665h-475zM88 618l162 -243l161 243h-323zM60 575v-484l40 61l80 120l41 61zM440 575l-162 -242l162 -243v485zM411 48l-161 242l-162 -242h323z" />
    <glyph glyph-name=".null" horiz-adv-x="0" 
 />
    <glyph glyph-name="nonmarkingreturn" horiz-adv-x="333" 
 />
    <glyph glyph-name="space" unicode=" " horiz-adv-x="250" 
 />
    <glyph glyph-name="exclam" unicode="!" horiz-adv-x="177" 
d="M90 144h-22l-28 429q-5 79 36 79q21 0 31 -15t9 -31.5t0 -29.5zM78 68q16 0 28.5 -12.5t12.5 -28.5q0 -17 -12.5 -29t-28.5 -12q-17 0 -29 12t-12 29t12.5 29t28.5 12z" />
    <glyph glyph-name="quotedbl" unicode="&#x22;" horiz-adv-x="323" 
d="M89 393h-19l-24 159q-6 38 -6 54t9 31t32 15q22 0 31 -15.5t9 -29.5q0 -27 -5 -57zM250 393h-19l-24 159q-5 36 -5 54q0 6 1.5 14.5t11.5 20t27 11.5q41 0 41 -45q0 -21 -6 -57z" />
    <glyph glyph-name="numbersign" unicode="#" 
d="M135 400l29 171h48l-28 -171h133l28 171h49l-28 -171h60v-48h-68l-27 -164h95v-48h-103l-28 -171h-49l28 171h-133l-28 -171h-48l28 171h-60v48h67l28 164h-95v48h102zM282 188l27 164h-133l-27 -164h133z" />
    <glyph glyph-name="dollar" unicode="$" 
d="M252 621v-55q3 -1 14.5 -3.5t21 -4t12.5 -1.5q17 0 33 14h17l31 -140h-23q-24 54 -47.5 75.5t-58.5 31.5v-207q88 -53 118 -92t30 -94q0 -62 -38 -104t-109 -51v-70h-32v69q-72 0 -132 25l-37 137h23q47 -127 146 -133v252q-1 1 -23 14t-28 17t-25.5 18t-27 24.5
l-18.5 26t-15.5 33.5t-4.5 38q0 54 39 92t102 38v50h32zM132 452q0 -49 88 -103v193q-41 -1 -64.5 -25t-23.5 -65zM252 253v-232q92 12 92 102q0 35 -18 64.5t-74 65.5z" />
    <glyph glyph-name="percent" unicode="%" horiz-adv-x="635" 
d="M208 439q0 109 -58 109q-72 0 -72 -141q0 -118 67 -118q25 0 40 22.5t19 52.5t4 75zM265 423q0 -76 -34 -116t-87 -40q-62 0 -92.5 40t-30.5 108q0 80 35.5 118t89.5 38q33 0 57.5 -13.5t35.5 -31t17.5 -42t7.5 -36.5t1 -25zM168 -25h-42l339 596h42zM614 150
q0 -76 -34 -116t-87 -40q-62 0 -92.5 40t-30.5 108q0 80 35.5 118t89.5 38q33 0 57.5 -13.5t35.5 -31t17.5 -42t7.5 -36.5t1 -25zM558 166q0 110 -58 110q-72 0 -72 -142q0 -117 68 -117q19 0 32 12t19.5 34.5t8.5 46t2 56.5z" />
    <glyph glyph-name="ampersand" unicode="&#x26;" horiz-adv-x="729" 
d="M355 -14q-136 0 -223.5 70.5t-87.5 169.5q0 129 141 202q-63 38 -63 93q0 58 43 94.5t105 36.5q85 0 135 -68l-77 -55q-28 79 -92 79q-30 0 -49.5 -17t-19.5 -44q0 -37 37 -66t91 -30v-21q-30 -7 -49 -12t-47 -17.5t-44.5 -27t-28.5 -39.5t-12 -56q0 -94 87.5 -165
t192.5 -71q100 0 179 67t79 163q0 52 -34 91.5t-92 40.5l-97 -100h-69l233 242h70l-108 -112q67 -12 98.5 -59t31.5 -102q0 -47 -20 -95.5t-58.5 -92.5t-104 -71.5t-147.5 -27.5z" />
    <glyph glyph-name="quotesingle" unicode="'" horiz-adv-x="156" 
d="M86 393h-19l-24 159q-5 36 -5 54q0 6 1.5 14.5t11.5 20t27 11.5q22 0 31.5 -15.5t9.5 -29.5q0 -21 -6 -57z" />
    <glyph glyph-name="parenleft" unicode="(" horiz-adv-x="292" 
d="M244 -271q-1 1 -5 6.5t-6 7.5q-92 111 -130 217.5t-38 228.5q0 266 179 463l19 -20q-126 -194 -126 -442q0 -221 126 -433z" />
    <glyph glyph-name="parenright" unicode=")" horiz-adv-x="292" 
d="M47 652q1 -1 5 -6.5t6 -7.5q92 -111 130 -217.5t38 -228.5q0 -266 -179 -463l-19 20q126 194 126 442q0 221 -126 433z" />
    <glyph glyph-name="asterisk" unicode="*" horiz-adv-x="437" 
d="M206 497l-20 82q-5 20 -5 32q0 17 10 29t28 12t27.5 -12t9.5 -29q0 -10 -5 -32l-20 -82q-6 2 -12 2q-5 0 -13 -2zM244 485l61 58q29 27 49 27q15 0 25.5 -12t10.5 -25q0 -30 -52 -46l-81 -24q-5 13 -13 22zM257 450l81 -24q52 -16 52 -45q0 -14 -10.5 -26t-25.5 -12
q-22 0 -49 27l-61 58q9 9 13 22zM231 416l20 -83q5 -18 5 -32q0 -16 -9.5 -28t-27.5 -12t-28 11.5t-10 29.5q0 11 5 31l20 83q8 -2 13 -2q4 0 12 2zM181 463l-81 24q-52 14 -52 45q0 14 10.5 26t24.5 12q20 0 49 -27l62 -58q-8 -9 -13 -22zM194 428l-62 -58q-27 -27 -49 -27
q-15 0 -25 11.5t-10 25.5q0 31 52 46l81 24q4 -13 13 -22z" />
    <glyph glyph-name="plus" unicode="+" 
d="M33 304h172v172h48v-172h173v-48h-173v-173h-48v173h-172v48z" />
    <glyph glyph-name="comma" unicode="," horiz-adv-x="198" 
d="M36 -147l-17 19q69 53 69 106q0 6 -11 13q-20 13 -20 35q0 17 11.5 28.5t27.5 11.5q20 0 32.5 -14t12.5 -37q0 -43 -30 -87t-75 -75z" />
    <glyph glyph-name="hyphen" unicode="-" horiz-adv-x="215" 
d="M125 215q-51 -51 -63 -64l-27 24q85 80 86 81q12 12 34 36l24 -25zM62 53l-27 23q4 4 10 9t20.5 18.5l35.5 34.5l54 55l25 -25q-9 -7 -55.5 -52t-62.5 -63z" />
    <glyph glyph-name="period" unicode="." horiz-adv-x="177" 
d="M88 68q16 0 28.5 -12.5t12.5 -28.5q0 -17 -12.5 -29t-28.5 -12q-17 0 -29 12t-12 29t12.5 29t28.5 12z" />
    <glyph glyph-name="slash" unicode="/" horiz-adv-x="500" 
d="M81 -248h-48l380 892h48z" />
    <glyph glyph-name="zero" unicode="0" 
d="M425 286q0 -77 -20 -142.5t-66 -110t-110 -44.5q-56 0 -96 25.5t-60.5 69.5t-29.5 90t-9 99q0 147 55 222.5t145 75.5q93 0 142 -78.5t49 -206.5zM350 326q0 105 -28.5 160.5t-82.5 55.5q-26 0 -48 -12.5t-42.5 -42.5t-32 -89.5t-11.5 -142.5q0 -115 33 -176t93 -61
q64 0 91.5 74.5t27.5 233.5z" />
    <glyph glyph-name="one" unicode="1" 
d="M130 0l-5 29h29q25 0 33.5 10t8.5 39v345q0 36 -12 48t-48 17v25q74 6 107 58h21v-498q0 -27 9 -35.5t39 -8.5h21l5 -29h-208z" />
    <glyph glyph-name="two" unicode="2" 
d="M388 0h-368v19l114.5 110t77.5 80.5t57 72t26 58t11 65.5q0 42 -28 81.5t-81 39.5q-54 0 -95 -53q-9 -10 -14 -19l-21 14q34 53 69 78t86 25q60 0 108 -41.5t48 -98.5q0 -46 -18 -89.5t-63 -95t-78.5 -83.5l-107.5 -98h200q31 0 50 7.5t43 36.5l25 -4z" />
    <glyph glyph-name="three" unicode="3" 
d="M163 -11q-76 0 -134 54l29 51l22 -10q-6 -14 -6 -19q0 -7 7.5 -17t27.5 -20t46 -10q72 0 120.5 53.5t48.5 125.5q0 54 -25.5 81t-63.5 27q-30 0 -70 -20l-11 29q126 65 126 138q0 35 -19.5 53t-43.5 18q-57 0 -107 -62l-19 20q21 33 59.5 61.5t89.5 28.5q49 0 78.5 -30
t29.5 -69q0 -27 -15.5 -53.5t-28 -38.5t-36.5 -31q39 -5 66.5 -21.5t39.5 -39t17 -42t5 -40.5q0 -30 -13 -65.5t-39 -70.5t-73.5 -58t-107.5 -23z" />
    <glyph glyph-name="four" unicode="4" 
d="M417 160h-20q0 9 -3 12t-16 3h-38v-93q0 -35 7 -44t31 -9h31l7 -29h-209l-5 29h21q33 0 41.5 10t8.5 50v86h-254v29l298 367h23v-351h95zM272 468l-202 -248h202v248z" />
    <glyph glyph-name="five" unicode="5" 
d="M158 -11q-80 0 -138 49l30 50l19 -11q-5 -9 -5 -16q0 -21 32.5 -32t59.5 -11q52 0 89.5 29.5t52.5 67.5t15 76q0 43 -19 73.5t-49.5 43.5t-69.5 17t-79 -5v246h193q22 0 29 3.5t8 16.5h31q-7 -56 -18.5 -70.5t-41.5 -14.5h-161v-78q0 -23 6.5 -29t30.5 -6q104 0 156 -52
t52 -122q0 -84 -61.5 -154.5t-161.5 -70.5z" />
    <glyph glyph-name="six" unicode="6" 
d="M241 -11q-94 0 -147.5 64t-53.5 156q0 68 31 128.5t84 105t114.5 76t131.5 52.5l9 -28q-65 -25 -114.5 -53t-93 -66.5t-67 -90.5t-23.5 -114q0 -76 39 -138.5t109 -62.5q55 0 82.5 38.5t27.5 87.5q0 62 -36.5 107.5t-92.5 45.5q-27 0 -47 -11.5t-26 -20t-15 -23.5l-24 13
q14 38 51 66t93 28q76 0 117.5 -51.5t41.5 -111.5q0 -75 -50.5 -136t-140.5 -61z" />
    <glyph glyph-name="seven" unicode="7" 
d="M441 550q-21 -8 -41 -51l-194 -406q-35 -73 -43 -93h-86l6 22q33 13 54.5 35t47.5 76l177 368h-233q-51 0 -78 -19h-29l48 84h371v-16z" />
    <glyph glyph-name="eight" unicode="8" 
d="M229 -11q-47 0 -82.5 14t-53.5 33t-29 43t-13.5 39t-2.5 26q0 105 131 164q-106 51 -106 137q0 47 37 86.5t121 39.5q46 0 79 -12t48.5 -31t21.5 -36t6 -33q0 -72 -107 -130q70 -44 100.5 -87t30.5 -97q0 -22 -7.5 -45.5t-25.5 -50t-56.5 -43.5t-91.5 -17zM227 542
q-49 0 -76 -23.5t-27 -54.5q0 -29 25.5 -57.5t100.5 -61.5q46 29 64.5 50.5t18.5 57.5q0 40 -29 64.5t-77 24.5zM211 293q-101 -46 -101 -150q0 -51 35 -88t92 -37q58 0 89 32t31 75q0 47 -39 91t-107 77z" />
    <glyph glyph-name="nine" unicode="9" 
d="M65 -11l-9 28q299 113 299 324q0 45 -14 89t-49 78t-85 34q-52 0 -81.5 -38.5t-29.5 -87.5q0 -60 36 -106.5t93 -46.5q59 0 88 55l24 -13q-16 -46 -56.5 -70t-87.5 -24q-73 0 -116 48.5t-43 114.5q0 75 50.5 136t140.5 61q94 0 148 -65t54 -156q0 -68 -31 -128.5
t-84 -104.5t-115 -76t-132 -52z" />
    <glyph glyph-name="colon" unicode=":" horiz-adv-x="177" 
d="M88 358q16 0 28.5 -12.5t12.5 -28.5q0 -17 -12.5 -29t-28.5 -12q-17 0 -29 12t-12 29t12.5 29t28.5 12zM88 68q16 0 28.5 -12.5t12.5 -28.5q0 -17 -12.5 -29t-28.5 -12q-17 0 -29 12t-12 29t12.5 29t28.5 12z" />
    <glyph glyph-name="semicolon" unicode=";" horiz-adv-x="198" 
d="M36 -147l-17 19q69 53 69 106q0 6 -11 13q-20 13 -20 35q0 17 11.5 28.5t27.5 11.5q20 0 32.5 -14t12.5 -37q0 -43 -30 -87t-75 -75zM100 359q16 0 28.5 -12t12.5 -29q0 -16 -12.5 -28.5t-28.5 -12.5q-17 0 -29 12t-12 29t12 29t29 12z" />
    <glyph glyph-name="less" unicode="&#x3c;" 
d="M33 301l393 165v-51l-329 -135l329 -135v-52l-393 165v43z" />
    <glyph glyph-name="equal" unicode="=" 
d="M33 387h393v-48h-393v48zM33 221h393v-48h-393v48z" />
    <glyph glyph-name="greater" unicode="&#x3e;" 
d="M426 258l-393 -165v52l329 135l-329 135v51l393 -165v-43z" />
    <glyph glyph-name="question" unicode="?" horiz-adv-x="313" 
d="M163 166l-55 -72q-56 16 -56 78q0 25 8 49.5t17.5 41.5t29.5 49q45 72 63.5 116.5t18.5 87.5q0 53 -20 79t-46 26q-14 0 -27 -8q-14 -9 -18 -9q-10 0 -10 11q0 10 20 23.5t49 13.5q52 0 91 -36t39 -94q0 -49 -25 -90t-86 -110q-67 -78 -67 -122q0 -14 8.5 -26.5
t19.5 -12.5q12 0 26 19zM106 68q16 0 28.5 -12.5t12.5 -28.5q0 -17 -12.5 -29t-28.5 -12q-17 0 -29 12t-12 29t12.5 29t28.5 12z" />
    <glyph glyph-name="at" unicode="@" horiz-adv-x="917" 
d="M681 423l-68 -229q-35 -114 -35 -155q0 -21 15 -30t29 -9q70 0 139.5 94t69.5 222q0 147 -91.5 229t-228.5 82q-99 0 -181 -42t-133.5 -110.5t-79.5 -152t-28 -169.5q0 -71 25 -139t71.5 -123.5t122 -89.5t168.5 -34q133 0 241.5 75t152.5 197h27q-48 -134 -162.5 -216
t-259.5 -82q-188 0 -306.5 123t-118.5 316q0 196 132 334t330 138q153 0 249 -91t96 -242q0 -143 -77.5 -247.5t-185.5 -104.5q-25 0 -42 7.5t-23.5 19.5t-9 21.5t-2.5 19.5q0 20 12 76q-33 -39 -49 -56.5t-41.5 -41t-48 -32.5t-47.5 -9q-35 0 -65 26t-30 87t28.5 124.5
t70 110t89 76.5t84.5 30q22 0 38 -7t25 -19.5t12.5 -21t6.5 -20.5l16 56zM527 148q9 15 20.5 39.5t24.5 66t13 74.5q0 8 -2 17.5t-7.5 24.5t-20.5 24.5t-37 9.5q-46 0 -94 -54t-78 -126.5t-30 -129.5q0 -29 16 -49t46 -20q37 0 80 38.5t69 84.5z" />
    <glyph glyph-name="A" unicode="A" horiz-adv-x="677" 
d="M438 0v18q23 3 43.5 11.5t20.5 19.5q0 13 -10 39l-68 165h-225l-63 -161q-12 -30 -12 -38q0 -25 77 -36v-18h-198v18q40 4 61.5 25.5t40.5 68.5l219 540h19l231 -559q17 -41 35.5 -54.5t63.5 -20.5v-18h-235zM311 530l-97 -243h196z" />
    <glyph glyph-name="B" unicode="B" horiz-adv-x="531" 
d="M490 165q0 -76 -57.5 -120.5t-138.5 -44.5h-282v18q64 7 79 17.5t15 49.5v475q0 36 -15 49.5t-73 16.5v18h225q104 0 153.5 -44.5t49.5 -104.5q0 -110 -145 -156q102 -16 145.5 -66.5t43.5 -107.5zM183 618v-267h26q152 0 152 121q0 64 -46 105t-132 41zM206 320h-23
v-292h66q149 0 149 119q0 77 -51 125t-141 48z" />
    <glyph glyph-name="C" unicode="C" horiz-adv-x="635" 
d="M590 15h-15l-3 4q-6 7 -13 7q-4 0 -28 -8.5t-64 -17t-84 -8.5q-79 0 -142 23.5t-99.5 58.5t-60.5 81.5t-32.5 88t-8.5 81.5q0 129 93.5 228t238.5 99q24 0 46 -3q10 -1 31.5 -5l39 -7.5t19.5 -3.5q22 0 32 16h14l54 -120h-22q-86 94 -216 94q-37 0 -76 -13t-78 -41
t-64 -81.5t-25 -123.5q0 -79 28 -146t72 -109t93 -65t95 -23q49 0 96.5 23.5t80.5 63.5h20z" />
    <glyph glyph-name="D" unicode="D" horiz-adv-x="719" 
d="M677 332q0 -41 -11 -83.5t-39 -88t-70.5 -80.5t-112 -57.5t-156.5 -22.5h-251v18q44 5 56.5 18t12.5 50v491q0 28 -12.5 36.5t-64.5 12.5v18h247q76 0 138.5 -13t103.5 -33.5t71.5 -50t46.5 -57t26 -60t12.5 -54.5t2.5 -44zM260 618q-44 0 -77 -3v-580q49 -9 102 -9
q151 0 225.5 75.5t74.5 203.5q0 59 -20.5 114.5t-59.5 100t-102.5 71.5t-142.5 27z" />
    <glyph glyph-name="E" unicode="E" horiz-adv-x="531" 
d="M15 0v18q60 6 75 20.5t15 60.5v439q0 47 -18 65t-62 23v18h427v-115h-20q-17 81 -115 81h-135v-271h145q28 0 40 6t28 33h17v-123h-17q-8 30 -25.5 40t-45.5 10h-142v-271h194q22 0 39 4.5t38 28.5t31 66h18v-133h-487z" />
    <glyph glyph-name="F" unicode="F" horiz-adv-x="479" 
d="M427 534q-17 72 -84 72h-159v-267h110q25 0 38 8.5t18 31.5h18v-113h-18q-7 24 -17.5 31.5t-34.5 7.5h-114v-217q0 -40 21.5 -55t79.5 -15v-18h-241v18q63 2 63 72v461q0 25 -5 39t-21 21.5t-29 9.5t-45 5v18h438v-110h-18z" />
    <glyph glyph-name="G" unicode="G" horiz-adv-x="698" 
d="M623 217v-137q0 -17 11 -25v-7q-55 -28 -106 -42t-127 -14q-170 0 -265.5 91.5t-95.5 232.5q0 142 99.5 239t248.5 97q68 0 139 -24q11 -4 26.5 -10.5t25 -10t16.5 -3.5q8 0 13 8h16l22 -131h-20q-96 142 -238 142q-30 0 -63 -8.5t-69 -29.5t-64 -51.5t-46.5 -80
t-18.5 -109.5q0 -139 92.5 -227t218.5 -88q66 0 109 26v145q0 22 -2.5 31t-20.5 17.5t-56 11.5v18h198v-18q-19 -1 -31 -12t-12 -31z" />
    <glyph glyph-name="H" unicode="H" horiz-adv-x="792" 
d="M556 0v18q30 3 42 15t12 48v215h-428v-205q0 -24 4 -35.5t25 -22.5t64 -15v-18h-237v18q23 1 38 8t20.5 18.5t7 19.5t1.5 21v473q0 39 -16 52.5t-51 15.5v18h231v-18q-56 -2 -71.5 -14t-15.5 -59v-218h428v218q0 45 -21.5 58t-74.5 15v18h242v-18q-48 -5 -58.5 -16.5
t-10.5 -61.5v-455q0 -42 18 -58t68 -17v-18h-217z" />
    <glyph glyph-name="I" unicode="I" horiz-adv-x="313" 
d="M71 0l-1 18q27 5 37.5 29.5t10.5 76.5v422q0 43 -12 60.5t-44 19.5v18h187v-18q-35 -2 -44.5 -11t-9.5 -46v-471q0 -45 12.5 -58.5t66.5 -21.5v-18h-203z" />
    <glyph glyph-name="J" unicode="J" horiz-adv-x="302" 
d="M189 560v-540q0 -54 -15 -95t-58 -83q-58 -56 -144 -91l-21 27q98 44 129.5 92.5t31.5 120.5v573q0 35 -9.5 46t-35.5 16v18h179v-18q-36 -4 -46.5 -16.5t-10.5 -49.5z" />
    <glyph glyph-name="K" unicode="K" horiz-adv-x="646" 
d="M446 0l-1 18q12 6 -3 21l-259 276v-233q0 -64 84 -64v-18h-195v18q21 5 27.5 15t6.5 43v497q0 25 -7 37t-27 16v18h188v-18q-48 -9 -62.5 -18t-14.5 -36v-220l247 242q9 9 11.5 14.5t-2.5 10.5t-19 7v18h171v-18q-43 -2 -66.5 -12t-58.5 -44l-222 -215l272 -289
q44 -46 118 -48v-18h-188z" />
    <glyph glyph-name="L" unicode="L" horiz-adv-x="563" 
d="M533 0h-500v18q39 6 56.5 22t17.5 45v480q0 26 -7.5 38.5t-32.5 21.5v19h193v-18q-49 -16 -62.5 -27.5t-13.5 -38.5v-522h218q35 0 56 4.5t33 18t16 25t11 38.5h21z" />
    <glyph glyph-name="M" unicode="M" horiz-adv-x="906" 
d="M675 0l-1 18q32 7 46 23.5t13 50.5l-22 470l-273 -568h-15l-280 568l-14 -470q-1 -37 8.5 -50t55.5 -24v-18h-167v18q37 10 50.5 26.5t14.5 50.5l14 437q2 45 -13 63.5t-66 30.5v18h160l265 -538l260 538h162v-18q-58 -6 -72.5 -17.5t-12.5 -56.5l21 -441
q2 -49 14.5 -64.5t55.5 -28.5v-18h-204z" />
    <glyph glyph-name="N" unicode="N" horiz-adv-x="792" 
d="M689 545v-551h-14l-531 574v-466q0 -34 17.5 -56t65.5 -28v-18h-198v18q39 3 56.5 21.5t17.5 57.5v466q0 34 -14.5 45.5t-59.5 17.5v18h159l460 -501v412q0 41 -13.5 54t-46.5 17v18h175v-18q-40 -1 -57 -19t-17 -62z" />
    <glyph glyph-name="O" unicode="O" horiz-adv-x="750" 
d="M372 -8q-142 0 -236 90t-94 228q0 146 105.5 244t241.5 98q133 0 226 -94t93 -228q0 -62 -21.5 -121t-62 -108t-106 -79t-146.5 -30zM659 278q0 46 -23 100.5t-63 104t-103.5 82.5t-134.5 33q-104 0 -169.5 -68t-65.5 -158q0 -118 98.5 -224.5t218.5 -106.5
q103 0 172.5 71.5t69.5 165.5z" />
    <glyph glyph-name="P" unicode="P" horiz-adv-x="500" 
d="M262 310q-30 0 -61 9v32q21 -5 37 -6q11 -1 26 -1q9 0 21 2t29.5 8.5t31.5 17.5t24 32t10 49q0 18 -3 36.5t-13.5 41t-26.5 39.5t-45.5 28.5t-67.5 11.5h-40v-516q0 -37 22 -55t90 -21v-18h-252v18q41 8 52 17t11 31v502q0 31 -15.5 42.5t-73.5 15.5v18h241
q102 0 152.5 -46.5t50.5 -111.5q0 -74 -56.5 -125t-143.5 -51z" />
    <glyph glyph-name="Q" unicode="Q" horiz-adv-x="750" 
d="M716 -50q-45 -30 -98 -30q-44 0 -85 19t-98 58q-12 -2 -35 -4q-10 -1 -29 -1q-141 0 -235 90t-94 228q0 97 50 176.5t129.5 122.5t167.5 43q133 0 226 -94t93 -228q0 -105 -52.5 -184.5t-124.5 -116.5q78 -56 128 -56q28 0 71 23v-36q-2 -1 -7 -4.5t-7 -5.5zM659 278
q0 46 -23 100.5t-63 104t-103.5 82.5t-134.5 33q-104 0 -169.5 -68t-65.5 -158q0 -118 98.5 -224.5t218.5 -106.5q103 0 172.5 71.5t69.5 165.5z" />
    <glyph glyph-name="R" unicode="R" horiz-adv-x="583" 
d="M520 0q-56 34 -101 78.5t-76 93.5t-46 77.5t-32 67.5q-51 -9 -84 4v-225q0 -26 2 -39t12.5 -21t19.5 -10.5t38 -7.5v-18h-183v19q16 6 23.5 15t9 15.5t1.5 19.5v488q0 32 -8.5 46t-37.5 23v18h196q110 0 165 -39.5t55 -106.5q0 -47 -33.5 -92.5t-96.5 -68.5
q38 -104 101 -195t141 -124v-18h-66zM202 618h-22v-269q75 -20 143.5 15.5t68.5 110.5q0 55 -49 99t-141 44z" />
    <glyph glyph-name="S" unicode="S" horiz-adv-x="448" 
d="M220 -8q-43 0 -75.5 10.5t-86.5 37.5l-25 129h23q14 -33 25 -53t30.5 -44.5t47.5 -36.5t64 -12q56 0 93 31t37 80t-38 89t-137 97q-77 45 -102 84t-25 89q0 74 46 116.5t110 42.5q32 0 68 -13.5t39 -13.5q9 0 17 14h16l22 -131h-20q-15 35 -36.5 59t-43 35t-37.5 15
t-29 4q-46 0 -77 -30t-31 -69q0 -13 3 -24.5t12 -22.5t16 -18.5t23.5 -18.5l26 -17.5t32 -19.5l34.5 -20q41 -25 65.5 -42.5t52.5 -44t41 -57t13 -67.5q0 -28 -11 -57.5t-32.5 -57.5t-61 -45.5t-89.5 -17.5z" />
    <glyph glyph-name="T" unicode="T" horiz-adv-x="656" 
d="M618 517q-17 52 -37.5 67.5t-59.5 15.5h-154v-504q0 -42 19 -57t69 -21v-18h-226v18q42 3 51.5 20t9.5 63v499h-152q-46 0 -62.5 -14.5t-37.5 -68.5h-18v127h616v-127h-18z" />
    <glyph glyph-name="U" unicode="U" horiz-adv-x="740" 
d="M627 529v-298q0 -104 -65.5 -171.5t-192.5 -67.5q-115 0 -188 68.5t-73 164.5v348q0 52 -44 53v18h200v-18q-29 -5 -45.5 -11.5t-23.5 -20t-8.5 -25.5t-1.5 -40v-284q0 -51 14.5 -90t35 -60t48.5 -34t50.5 -17t45.5 -4q63 0 106.5 20t64 54t28.5 66t8 69v309
q0 43 -7.5 52.5t-45.5 15.5v18h169v-18q-52 -6 -63.5 -21t-11.5 -76z" />
    <glyph glyph-name="V" unicode="V" horiz-adv-x="677" 
d="M672 626q-34 -1 -49 -11.5t-25 -35.5l-247 -591h-16l-253 587q-13 30 -24.5 38t-47.5 13v18h174v-18q-25 -1 -29.5 -8t4.5 -26l201 -466l194 468q8 12 5.5 19.5t-24.5 12.5v18h137v-18z" />
    <glyph glyph-name="W" unicode="W" horiz-adv-x="917" 
d="M816 542l-229 -554h-16l-103 255l-111 -255h-17l-228 567q-19 47 -33 57.5t-67 13.5v18h215v-18q-42 -3 -46 -18.5t13 -47.5l178 -444l77 174l-109 271q-16 41 -29.5 50.5t-51.5 13.5q-5 1 -8 1v18h240v-18q-47 0 -66 -11t-8 -39l75 -188l79 181q16 30 9 42t-50 15v18
h188v-18q-55 -6 -72.5 -17t-39.5 -60l-94 -209l89 -224l184 453q1 2 3 7q7 17 8.5 24.5t-9 15.5t-38.5 10v18h161v-18q-43 -3 -58 -18.5t-36 -65.5z" />
    <glyph glyph-name="X" unicode="X" horiz-adv-x="729" 
d="M499 0v18q29 3 29 15q0 5 -10 17l-176 227l-168 -208q-22 -25 -14.5 -37.5t53.5 -13.5v-18h-204v18q45 0 68 14.5t52 49.5l187 231l-201 261q-15 19 -22.5 26.5t-29.5 16.5t-54 9v18h213v-18q-30 0 -33.5 -9.5t12.5 -29.5l164 -214l147 182q31 37 31 51q0 12 -12 16
q-5 1 -28 4v18h187v-18q-41 0 -66.5 -16t-54.5 -53l-177 -219l192 -251q26 -35 57.5 -52t78.5 -17v-18h-221z" />
    <glyph glyph-name="Y" unicode="Y" horiz-adv-x="677" 
d="M556 543l-179 -293v-167q0 -31 12 -45t54 -20v-18h-209v18q37 4 51.5 15.5t14.5 40.5v140l-208 364q-16 28 -31.5 36.5t-51.5 11.5v18h194v-18q-33 0 -36 -13t9 -27l175 -310l185 303q13 17 10 30t-30 17v18h157v-18q-40 -2 -63.5 -17.5t-53.5 -65.5z" />
    <glyph glyph-name="Z" unicode="Z" horiz-adv-x="698" 
d="M639 0h-612v13l514 593h-330q-67 0 -98.5 -24t-53.5 -85h-20l31 147h587v-16l-508 -584h357q60 0 89.5 18.5t53.5 79.5h21z" />
    <glyph glyph-name="bracketleft" unicode="[" horiz-adv-x="292" 
d="M78 -248v892h193l-16 -34h-61q-32 0 -40 -11.5t-8 -49.5v-709q0 -32 8.5 -43t39.5 -11h61l16 -34h-193z" />
    <glyph glyph-name="backslash" unicode="\" horiz-adv-x="500" 
d="M119 644l350 -892h-48l-350 892h48z" />
    <glyph glyph-name="bracketright" unicode="]" horiz-adv-x="292" 
d="M22 -248l16 34h61q31 0 39.5 9.5t8.5 40.5v713q0 38 -7.5 49.5t-40.5 11.5h-61l-16 34h193v-892h-193z" />
    <glyph glyph-name="asciicircum" unicode="^" horiz-adv-x="490" 
d="M64 293h-35l210 351h17l206 -351h-34l-181 306z" />
    <glyph glyph-name="underscore" unicode="_" horiz-adv-x="500" 
d="M-6 -75h512v-50h-512v50z" />
    <glyph glyph-name="grave" unicode="`" horiz-adv-x="333" 
d="M213 397l-151 133h91l100 -133h-40z" />
    <glyph glyph-name="a" unicode="a" horiz-adv-x="395" 
d="M250 219v62q0 48 -49 48q-27 0 -40 -12.5t-20 -40.5l-94 -12q14 52 68 76q44 19 94 19q56 0 82.5 -27.5t26.5 -75.5v-170q0 -24 4.5 -32t16.5 -8q9 0 36 16l14 -21q-15 -16 -42 -35.5t-47 -19.5q-35 0 -50 55q-60 -55 -117 -55q-38 0 -70 21.5t-32 66.5q0 29 20 51.5
t68 45.5t131 48zM250 73v120q-62 -18 -101 -46t-39 -56q0 -29 19.5 -47.5t40.5 -18.5q44 0 80 48z" />
    <glyph glyph-name="b" unicode="b" horiz-adv-x="490" 
d="M240 0h-203l-11 31q32 0 43 11t11 49v425q0 31 -8 44t-35 20v18q59 21 90 62h21v-346q72 45 130 45q80 0 128.5 -50.5t48.5 -120.5q0 -71 -59.5 -129.5t-155.5 -58.5zM251 322q-57 0 -103 -56v-147q0 -46 16.5 -68.5t71.5 -22.5q77 0 111 42t34 96q0 70 -40 113t-90 43z
" />
    <glyph glyph-name="c" unicode="c" horiz-adv-x="391" 
d="M292 253q-10 32 -34.5 53t-58.5 21q-48 0 -76.5 -32.5t-28.5 -79.5q0 -66 48 -128t117 -62q47 0 86 24l14 -18q-56 -45 -135 -45q-54 0 -93.5 19t-59 48.5t-28.5 57.5t-9 55q0 41 19 83.5t63.5 76t103.5 33.5q88 0 146 -66z" />
    <glyph glyph-name="d" unicode="d" horiz-adv-x="479" 
d="M337 0v19q-4 -4 -18 -10t-40.5 -11.5t-53.5 -5.5q-89 0 -140.5 49t-51.5 120q0 84 62 141t143 57q48 0 99 -15v169q0 30 -9.5 43t-36.5 19v17q32 12 51 26t40 42h23v-564q0 -41 7 -53t37 -12h28l5 -31h-145zM337 295q-53 38 -103 38q-59 0 -98 -39.5t-39 -95.5
q0 -72 54 -122t113 -50q38 0 73 24v245z" />
    <glyph glyph-name="e" unicode="e" horiz-adv-x="406" 
d="M98 191q8 -68 51 -119.5t113 -51.5q48 0 103 34v-20q-31 -25 -59 -36.5t-76 -11.5q-98 0 -147 53t-49 130q0 88 54.5 139t119.5 51q60 0 104.5 -41t66.5 -102zM192 325q-13 0 -26 -3.5t-28 -13t-26 -31t-14 -52.5l193 17q-28 83 -99 83z" />
    <glyph glyph-name="f" unicode="f" horiz-adv-x="292" 
d="M352 593q-8 0 -13.5 2.5t-12 7.5t-8.5 6q-23 14 -41 14q-28 0 -56.5 -18.5t-46.5 -55.5q-22 -44 -22 -150v-54h118l-38 -44h-11q-19 13 -41 13h-28v-234q0 -30 9 -39.5t37 -9.5h41l-7 -31h-203l-4 31h18q21 0 31 11.5t10 45.5v226h-39l12 31h26q0 99 15 151t59 96
q60 60 152 60q87 0 87 -27q0 -9 -18 -20.5t-26 -11.5z" />
    <glyph glyph-name="g" unicode="g" horiz-adv-x="421" 
d="M377 290q-8 27 -47 19q31 -34 31 -84q0 -61 -43 -99.5t-97 -38.5q-49 0 -91 21q-31 -17 -31 -38q0 -19 25 -30t112 -33q33 -8 56 -17t52 -25.5t44.5 -43.5t15.5 -62q0 -19 -8 -40t-26 -44t-56 -38t-91 -15q-91 0 -131.5 34.5t-40.5 75.5q0 37 19 58.5t58 44.5l26 -5
q-13 -14 -19.5 -22t-13 -23t-6.5 -32q0 -44 34 -74.5t89 -30.5q57 0 88 28t31 58q0 21 -10.5 37t-37 29t-49.5 21t-70 21q-81 24 -106.5 45t-25.5 56q0 49 49 82q-26 25 -37.5 47.5t-11.5 52.5q0 59 41 96.5t110 37.5q55 0 98 -27q41 27 81 27q17 0 39 -9l-44 -62zM184 327
q-35 0 -54 -21.5t-19 -43.5q0 -51 42.5 -95t94.5 -44q20 0 40 15.5t20 47.5q0 46 -38.5 93.5t-85.5 47.5z" />
    <glyph glyph-name="h" unicode="h" horiz-adv-x="479" 
d="M459 0h-158v31q22 0 30 10t8 42v142q0 43 -25.5 69.5t-69.5 26.5q-59 0 -95 -36v-202q0 -35 9.5 -43.5t42.5 -8.5h21l7 -31h-204l-4 31h19q24 0 32.5 9t8.5 36v443q0 27 -10 41t-36 18v17q61 24 91 65h23v-344q57 43 118 43q56 0 98 -34.5t42 -99.5v-142q0 -32 8 -42
t35 -10h16z" />
    <glyph glyph-name="i" unicode="i" horiz-adv-x="240" 
d="M238 31l-21 -31h-165l-9 31q16 1 21 2t13.5 6t11 16t2.5 30v140q0 27 -8.5 36.5t-35.5 10.5v20q45 21 91 67h21v-269q0 -39 9 -49t43 -10h27zM127 472q-17 0 -29 12t-12 29q0 18 12 29.5t29 11.5t29 -11.5t12 -29.5q0 -17 -12 -29t-29 -12z" />
    <glyph glyph-name="j" unicode="j" horiz-adv-x="240" 
d="M161 -61q0 -70 -8.5 -103t-35.5 -61q-41 -42 -106 -45l-33 30l14 11q13 -10 25 -10q35 0 56 46q19 39 19 111v303q0 31 -8.5 40t-33.5 11v22q46 21 87 65h24v-420zM127 472q-17 0 -29 12t-12 29q0 18 12 29.5t29 11.5t29 -11.5t12 -29.5q0 -17 -12 -29t-29 -12z" />
    <glyph glyph-name="k" unicode="k" horiz-adv-x="479" 
d="M462 0h-96q-32 29 -74 106q-19 35 -32.5 55.5t-34.5 39.5t-41 19q-17 0 -33 -16v-122q0 -31 12 -41t46 -10h31l-7 -31h-197l-7 31q35 1 44.5 9.5t9.5 39.5v444q0 27 -10 38.5t-37 15.5v20q62 17 90 62h25v-414q71 62 120.5 87.5t99.5 25.5q14 0 30 -4l-32 -61
q-28 10 -51 10q-43 0 -93 -39q43 -19 74.5 -52.5t86.5 -125.5q33 -55 87 -56z" />
    <glyph glyph-name="l" unicode="l" horiz-adv-x="240" 
d="M214 0h-170v31q15 1 23.5 3.5t16 14.5t7.5 35v431q0 25 -8 39.5t-16 17.5t-23 6v16q54 16 93 66h22v-576q0 -31 9 -42t35 -11h20z" />
    <glyph glyph-name="m" unicode="m" horiz-adv-x="729" 
d="M723 0h-180l4 31q14 0 23 3t12.5 11.5t4 14.5t0.5 20v160q0 38 -21 61.5t-58 23.5q-55 0 -112 -35q7 -21 7 -66v-141q0 -33 14 -43t66 -9l-4 -31h-183l-14 31q34 1 43.5 8.5t9.5 40.5v146q0 41 -22.5 70t-66.5 29q-48 0 -98 -40q3 -7 3 -51v-146q0 -36 9 -46.5t37 -10.5
h25v-31h-181l-5 31q27 0 37 9t10 35v150q0 25 -8 34.5t-40 13.5v18q17 10 29.5 21.5t18.5 20l18 26.5h15q15 -19 23 -48q73 48 128 48q77 0 119 -48q77 48 144 48q61 0 93 -33.5t32 -88.5v-150q0 -34 10.5 -45t44.5 -11h21z" />
    <glyph glyph-name="n" unicode="n" horiz-adv-x="479" 
d="M464 0h-162l-10 31q18 1 26.5 2.5t15 10.5t6.5 26v137q0 118 -93 118q-62 0 -103 -48q4 -23 4 -62v-130q0 -36 8.5 -45t38.5 -9h25l-9 -31h-172l-6 31q28 1 37.5 10.5t9.5 38.5v134q0 33 -10 43t-38 14v18q46 30 66 70h13q18 -24 25 -50q39 30 65 40t66 10
q63 0 102 -34.5t39 -105.5v-134q0 -34 9 -44t36 -10h20z" />
    <glyph glyph-name="o" unicode="o" horiz-adv-x="448" 
d="M227 -14q-84 0 -138.5 56t-54.5 133q0 73 50 128.5t139 55.5q84 0 137 -57t53 -128t-47.5 -129.5t-138.5 -58.5zM195 325q-40 0 -68.5 -28.5t-28.5 -81.5q0 -73 50.5 -134t111.5 -61q40 0 66.5 29.5t26.5 70.5q0 76 -49.5 140.5t-108.5 64.5z" />
    <glyph glyph-name="p" unicode="p" horiz-adv-x="490" 
d="M258 -14q-45 0 -108 26v-209q0 -25 9 -34t37 -9h27l-8 -31h-178l-9 31q30 0 42 10t12 38v415q0 28 -8.5 36.5t-36.5 10.5v21q46 18 89 68h24v-40q68 40 124 40q80 0 129.5 -53t49.5 -129q0 -75 -53.5 -133t-141.5 -58zM242 314q-47 0 -92 -35v-200l14 -17q42 -50 101 -50
q51 0 87.5 33t36.5 93q0 65 -45.5 120.5t-101.5 55.5z" />
    <glyph glyph-name="q" unicode="q" horiz-adv-x="479" 
d="M458 -271h-185l-11 31h34q30 0 37 11.5t7 52.5v190q-61 -28 -113 -28q-88 0 -140.5 48t-52.5 130q0 85 61.5 140t142.5 55q70 0 123 -42q23 25 42.5 33t54.5 9v-24q-28 -6 -39 -22t-11 -55v-454q0 -26 9 -35t32 -9h20zM340 270q-55 55 -117 55q-43 0 -79.5 -34
t-36.5 -102q0 -88 46.5 -132.5t91.5 -44.5q49 0 95 52v206z" />
    <glyph glyph-name="r" unicode="r" horiz-adv-x="332" 
d="M330 297l-60 -35q-5 20 -18 32t-26 12q-30 0 -63 -33l-13 -13v-179q0 -28 9 -39t30 -11h30l-6 -31h-180v31q33 2 41 8t8 37v149q0 19 -6 28.5t-13 11.5t-22 3v18q54 25 91 73h18v-59q31 31 54.5 45t50.5 14q56 0 75 -62z" />
    <glyph glyph-name="s" unicode="s" horiz-adv-x="317" 
d="M159 -14q-106 0 -132 98l76 48q-20 -53 0 -85t59 -32q36 0 52.5 19t16.5 40q0 24 -20 40.5t-75 48.5q-41 23 -64 47.5t-23 58.5q0 37 28.5 63.5t82.5 26.5q48 0 74.5 -17.5t45.5 -49.5l-58 -36q-16 74 -73 74q-20 0 -32.5 -11t-12.5 -27q0 -18 15.5 -33.5t54.5 -36.5
q57 -31 83.5 -59t26.5 -68q0 -48 -35 -78.5t-90 -30.5z" />
    <glyph glyph-name="t" unicode="t" horiz-adv-x="302" 
d="M190 -14q-53 0 -75.5 29.5t-22.5 85.5v213h-76l13 31q43 8 65 32t27 74h38v-106h109l-15 -50h-21q-5 12 -8.5 15.5t-12.5 3.5h-51v-221q0 -67 49 -67q21 0 33 7.5t42 34.5l11 -25q-15 -17 -24.5 -26.5t-32 -20t-48.5 -10.5z" />
    <glyph glyph-name="u" unicode="u" horiz-adv-x="479" 
d="M382 -14h-9q-13 12 -29 40q-62 -40 -132 -40q-72 0 -106.5 34t-34.5 91v157q0 24 -9 34t-36 12l4 31h109v-205q0 -120 93 -120q56 0 105 34q-6 23 -6 68v135q0 36 -10.5 46t-46.5 11l5 31h120v-200q0 -47 4.5 -64t17.5 -17q8 0 14 3q5 3 11.5 6.5t13.5 8.5l13 -21
q-39 -28 -91 -75z" />
    <glyph glyph-name="v" unicode="v" horiz-adv-x="438" 
d="M426 314q-33 0 -58 -50l-138 -278h-19l-137 279q-13 26 -25 36.5t-35 12.5v31h135v-32q-9 0 -13.5 -2.5t-4.5 -8.5t2 -11t6 -13l92 -185l93 186q16 31 -8 34v32h110v-31z" />
    <glyph glyph-name="w" unicode="w" horiz-adv-x="583" 
d="M508 259l-94 -273h-21l-101 252l-89 -252h-22l-102 265q-13 34 -28.5 47t-39.5 16v31h147v-31q-25 -1 -27.5 -13.5t5.5 -25.5l68 -184l94 254h20l101 -254l57 168q11 31 8.5 41.5t-27.5 13.5l6 31h109v-31q-28 -4 -41.5 -16t-22.5 -39z" />
    <glyph glyph-name="x" unicode="x" horiz-adv-x="437" 
d="M422 0h-120l-104 143l-108 -143h-80v31q18 1 29.5 3.5t28 14.5t33.5 35l71 95l-58 78q-24 34 -43.5 44.5t-49.5 12.5v31h98l90 -116l93 116h85l6 -31h-21q-12 0 -21 -1.5t-14.5 -2.5t-11.5 -6t-8 -7t-8 -10.5t-9 -11.5l-65 -82l75 -99q25 -33 50.5 -47t66.5 -16z" />
    <glyph glyph-name="y" unicode="y" horiz-adv-x="448" 
d="M431 314q-24 -2 -41 -17t-22 -25t-11 -27l-96 -283q-17 -50 -33 -83.5t-51 -71.5t-83 -56l-45 71l11 7q18 -6 32 -6q47 0 74.5 37.5t63.5 139.5l-136 246q-25 45 -37 56t-43 12l16 31h83l143 -267l57 167q14 41 12 53t-27 16v31h138z" />
    <glyph glyph-name="z" unicode="z" horiz-adv-x="385" 
d="M22 0l229 314h-107q-64 0 -74 -44h-13l-32 48q27 27 76 27h248l-231 -309h121q40 0 56 9t29 32h14l33 -77h-349z" />
    <glyph glyph-name="braceleft" unicode="{" horiz-adv-x="479" 
d="M140 188v18q49 8 82.5 37.5t33.5 71.5q0 16 -10 69.5t-10 79.5q0 66 44 120.5t126 67.5v-19q-53 -8 -80.5 -41t-27.5 -71q0 -14 10 -82q10 -66 10 -77q0 -58 -45.5 -104.5t-93.5 -59.5q63 -25 101 -68.5t38 -100.5q0 -16 -11 -81.5t-11 -75.5q0 -84 110 -112v-17
q-81 14 -126.5 68t-45.5 118q0 15 11 74q11 50 11 71q0 50 -36 79t-80 35z" />
    <glyph glyph-name="bar" unicode="|" horiz-adv-x="281" 
d="M117 644h48v-831h-48v831z" />
    <glyph glyph-name="braceright" unicode="}" horiz-adv-x="479" 
d="M339 207v-18q-49 -8 -82.5 -37.5t-33.5 -71.5q0 -16 10 -69.5t10 -79.5q0 -66 -44 -120.5t-126 -67.5v19q53 8 80.5 41t27.5 71q0 15 -10 82t-10 77q0 58 45.5 104.5t93.5 59.5q-63 25 -101 68.5t-38 100.5q0 16 11 81.5t11 75.5q0 85 -110 112v17q81 -14 126.5 -68
t45.5 -118q0 -24 -11 -74q-11 -59 -11 -71q0 -50 36 -79t80 -35z" />
    <glyph glyph-name="asciitilde" unicode="~" 
d="M407 335h19q0 -57 -29 -84t-65 -27q-20 0 -39 6t-81 31q-73 29 -95 29q-30 0 -46.5 -18t-18.5 -48h-19q0 52 26 81.5t65 29.5q32 0 115 -33q81 -33 102 -33q23 0 42.5 15t23.5 51z" />
    <glyph glyph-name="uni00A0" unicode="&#xa0;" horiz-adv-x="250" 
 />
    <glyph glyph-name="exclamdown" unicode="&#xa1;" horiz-adv-x="177" 
d="M76 230h22l28 -429q5 -79 -36 -79q-21 0 -31 15t-9 31.5t0 29.5zM88 388q16 0 28.5 -12.5t12.5 -28.5q0 -17 -12.5 -29t-28.5 -12q-17 0 -29 12t-12 29t12.5 29t28.5 12z" />
    <glyph glyph-name="cent" unicode="&#xa2;" horiz-adv-x="406" 
d="M297 255q-11 43 -41 59l-59 -271q30 -19 68 -19q45 0 85 24l14 -17q-49 -45 -133 -45q-7 0 -46 3l-30 -135h-28l32 141q-61 19 -90.5 68t-29.5 105q0 30 11.5 62.5t34 62.5t62.5 49t90 17l27 122h29l-28 -124q72 -10 106 -62zM230 325q-15 8 -37.5 3.5t-43 -15t-35.5 -37
t-15 -62.5q0 -79 74 -153z" />
    <glyph glyph-name="sterling" unicode="&#xa3;" 
d="M332 -11q-50 0 -101 21q-30 12 -73 34q-31 -55 -80 -55q-24 0 -39 13.5t-15 36.5q0 10 5 22.5t16.5 26t35 21t56.5 4.5q3 48 -10 146h-85v36h84q-4 75 0 123t21 82q36 71 124 71q65 0 100 -35q29 -29 29 -44q0 -14 -16.5 -31t-22.5 -17q-7 0 -21 30q-17 37 -33 53t-42 16
q-24 0 -39.5 -12t-21.5 -34.5t-8 -41t-2 -45.5q0 -9 1.5 -58t1.5 -57h112v-36h-109q2 -86 -18 -159q23 -9 71 -38q72 -43 88 -43q15 0 21.5 11t6.5 24q0 11 -7 33q-6 18 -6 27q0 17 17 17q10 0 37 -15q18 -10 18 -34q0 -33 -25 -63t-71 -30zM89 66q-15 0 -24 -9t-9 -19
q0 -3 1.5 -7.5t7 -10t14.5 -5.5q27 0 48 43q-26 8 -38 8z" />
    <glyph glyph-name="currency" unicode="&#xa4;" horiz-adv-x="498" 
d="M461 174l-28 -30l-67 66q-52 -42 -117 -42q-66 0 -118 42l-66 -66l-29 30l67 63q-41 58 -41 117q0 62 41 117l-67 64l29 30l66 -66q58 42 118 42q62 0 117 -42l67 66l28 -30l-66 -64q41 -56 41 -117q0 -58 -41 -117zM395 355q0 62 -44.5 103.5t-101.5 41.5
q-62 0 -104 -43t-42 -102q0 -60 43 -103.5t103 -43.5t103 43.5t43 103.5z" />
    <glyph glyph-name="yen" unicode="&#xa5;" horiz-adv-x="594" 
d="M487 476l-57 -96h96v-32h-112l-63 -105h175v-32h-194v-133q0 -24 9.5 -34t48.5 -16v-28h-186v28q33 4 45 13.5t12 27.5v119l-13 23h-182v32h164l-59 105h-105v32h86l-66 115q-14 24 -30.5 32.5t-48.5 10.5v28h170v-28q-28 0 -28 -9q0 -4 12 -28l146 -259l144 246
q16 27 16 38q0 12 -22 12v28h146v-28q-47 -1 -64 -12.5t-40 -49.5z" />
    <glyph glyph-name="brokenbar" unicode="&#xa6;" horiz-adv-x="281" 
d="M117 166h48v-353h-48v353zM117 644h48v-353h-48v353z" />
    <glyph glyph-name="section" unicode="&#xa7;" horiz-adv-x="354" 
d="M326 165q0 -47 -19.5 -77.5t-58.5 -61.5q27 -37 38.5 -63.5t11.5 -62.5q0 -67 -44.5 -111.5t-97.5 -44.5q-46 0 -84 30q-2 1 -6.5 4.5t-6.5 5.5l56 50q27 -43 71 -43q30 0 50 21.5t20 52.5t-21 65t-84 101q-46 49 -66.5 74t-38.5 63t-18 76q0 40 19.5 68.5t60.5 62.5
q-16 21 -23.5 32.5t-16.5 36.5t-9 51q0 63 41.5 110t105.5 47q9 0 17.5 -1t15.5 -3t13 -4t11.5 -5.5l9.5 -6t8.5 -6.5t6.5 -6l5.5 -5.5l4.5 -4.5l-57 -48q-22 47 -64 47q-34 0 -55.5 -24.5t-21.5 -57.5q0 -24 13.5 -46t59.5 -75q5 -6 51.5 -58.5t55.5 -63.5q46 -57 46 -119z
M196 274q-2 3 -14.5 16.5l-19.5 21.5q-7 9 -20 23t-16 18q-29 -22 -36 -30q-20 -22 -20 -53q0 -38 50 -98l110 -128q54 39 54 89q0 26 -18 55t-70 86z" />
    <glyph glyph-name="dieresis" unicode="&#xa8;" horiz-adv-x="333" 
d="M91 479q16 0 28.5 -12.5t12.5 -28.5t-12 -28.5t-29 -12.5t-29 12t-12 29q0 16 12 28.5t29 12.5zM243 479q16 0 28.5 -12.5t12.5 -28.5t-12 -28.5t-29 -12.5t-29 12t-12 29q0 16 12 28.5t29 12.5z" />
    <glyph glyph-name="copyright" unicode="&#xa9;" horiz-adv-x="760" 
d="M380 652q142 0 244 -101t102 -244t-101.5 -245t-243.5 -102q-143 0 -245 102t-102 245q0 144 101.5 244.5t244.5 100.5zM380 -14q132 0 226 94t94 226q0 133 -94 226.5t-226 93.5q-131 0 -225.5 -93.5t-94.5 -226.5q0 -128 92 -224t228 -96zM545 109h-21q-1 1 -1 3t-1 3
t-5 1q-2 0 -16.5 -6t-40 -11.5t-54.5 -5.5q-58 0 -102.5 17t-70 42t-41.5 57t-21.5 58.5t-5.5 50.5q0 94 68.5 157.5t158.5 63.5q26 0 57 -6.5t35 -6.5q11 0 15 11h22l38 -87l-27 -1q-61 64 -140 64q-60 0 -108 -44.5t-48 -123.5q0 -93 57 -159t128 -66q66 0 114 57h27z" />
    <glyph glyph-name="ordfeminine" unicode="&#xaa;" horiz-adv-x="237" 
d="M177 420q-17 0 -30 28q-36 -28 -66 -28q-28 0 -47.5 14.5t-19.5 42.5q0 11 4.5 21t14.5 18.5l17.5 14.5t24 12.5t23.5 9t24.5 8t19.5 6.5v24q0 35 -26 35q-10 0 -18.5 -10t-10.5 -23l-66 -10q9 34 35.5 51.5t58.5 17.5q34 0 56 -17.5t22 -51.5v-93q0 -19 9 -19q2 0 5 2.5
l8 6.5l9 7l17 -15q-11 -16 -31.5 -34t-32.5 -18zM142 540q-2 -1 -9.5 -3t-10.5 -3.5t-10.5 -4t-11 -4.5l-9 -5t-8.5 -6.5t-6 -8t-4.5 -9.5t-1.5 -11q0 -14 9.5 -22.5t24.5 -8.5q14 0 37 23v63z" />
    <glyph glyph-name="guillemotleft" unicode="&#xab;" horiz-adv-x="406" 
d="M212 23l-26 -23l-163 174l163 174l26 -22l-95 -152zM387 23l-26 -23l-163 174l163 174l26 -22l-95 -152z" />
    <glyph glyph-name="logicalnot" unicode="&#xac;" 
d="M33 387h393v-214h-48v166h-345v48z" />
    <glyph glyph-name="uni00AD" unicode="&#xad;" horiz-adv-x="215" 
d="M125 215q-51 -51 -63 -64l-27 24q85 80 86 81q12 12 34 36l24 -25zM62 53l-27 23q4 4 10 9t20.5 18.5l35.5 34.5l54 55l25 -25q-9 -7 -55.5 -52t-62.5 -63z" />
    <glyph glyph-name="registered" unicode="&#xae;" horiz-adv-x="760" 
d="M380 652q142 0 244 -101t102 -244t-101.5 -245t-243.5 -102q-143 0 -245 102t-102 245q0 144 101.5 244.5t244.5 100.5zM380 -14q132 0 226 94t94 226q0 133 -94 226.5t-226 93.5q-131 0 -225.5 -93.5t-94.5 -226.5q0 -128 92 -224t228 -96zM228 534h130
q71 0 116.5 -23.5t45.5 -77.5q0 -67 -86 -109q79 -186 161 -208v-17h-53q-112 70 -173 209q-18 -2 -46 0v-156q0 -20 6 -24t43 -11v-18h-136v17q16 6 19.5 12.5t3.5 19.5v324q0 25 -4.5 31t-26.5 13v18zM323 508v-172q14 -2 29 -2q31 0 52.5 8.5t31 22.5t13 25.5t3.5 22.5
q0 14 -5 27.5t-17 30t-40 27t-67 10.5z" />
    <glyph glyph-name="macron" unicode="&#xaf;" horiz-adv-x="333" 
d="M13 397v41h307v-41h-307z" />
    <glyph glyph-name="degree" unicode="&#xb0;" horiz-adv-x="375" 
d="M188 652q61 0 104.5 -43.5t43.5 -105.5t-43.5 -105.5t-104.5 -43.5q-62 0 -105.5 43.5t-43.5 105.5t43.5 105.5t105.5 43.5zM188 621q-49 0 -83.5 -34.5t-34.5 -83.5t34.5 -83.5t83.5 -34.5q48 0 82.5 34.5t34.5 83.5t-34.5 83.5t-82.5 34.5z" />
    <glyph glyph-name="plusminus" unicode="&#xb1;" 
d="M33 48h393v-48h-393v48zM33 317h172v172h48v-172h173v-48h-173v-173h-48v173h-172v48z" />
    <glyph glyph-name="two.superior" unicode="&#xb2;" horiz-adv-x="260" 
d="M230 337l26 -4l-27 -60h-229v14q100 81 134.5 119t34.5 76q0 24 -16.5 41t-41.5 17q-32 0 -62 -39l-22 13q40 57 99 57q43 0 70.5 -24t27.5 -51q0 -31 -23.5 -64.5t-49 -56t-77.5 -61.5h105q20 0 28.5 4.5t22.5 18.5z" />
    <glyph glyph-name="three.superior" unicode="&#xb3;" horiz-adv-x="260" 
d="M4 298l22 32l24 -9q-5 -10 -5 -12q0 -3 5 -7t15.5 -8t23.5 -4q36 0 63 25.5t27 61.5q0 19 -10 35t-35 16q-11 0 -46 -12l-10 22q76 32 76 69q0 13 -9 22t-22 9q-27 0 -63 -34l-18 17q35 50 94 50q32 0 51 -16.5t19 -37.5q0 -33 -41 -60q35 -6 52.5 -27t17.5 -49
q0 -45 -41.5 -79.5t-102.5 -34.5q-45 0 -87 31z" />
    <glyph glyph-name="acute" unicode="&#xb4;" horiz-adv-x="333" 
d="M120 397h-39l99 133h91z" />
    <glyph glyph-name="mu" unicode="&#xb5;" horiz-adv-x="510" 
d="M59 345h68v-197q0 -21 2 -36t9 -34t24 -29t44 -10q8 0 15.5 1.5t14 2.5t14 5t12.5 6t12.5 8.5t10.5 8.5t11.5 9.5t10 9t10 9.5t9.5 9v237h68v-209q0 -62 9.5 -83.5t31.5 -21.5q15 0 24.5 10.5t13 21.5t8.5 34h22q0 -57 -29.5 -85t-65.5 -28q-69 0 -79 95
q-85 -93 -157 -93q-61 0 -89 59q0 -112 7 -137q17 -63 17 -78q0 -21 -11.5 -34t-27.5 -13t-28 13t-12 32q0 10 16 75q15 60 15 217v225z" />
    <glyph glyph-name="paragraph" unicode="&#xb6;" horiz-adv-x="729" 
d="M695 644v-19q-71 0 -71 -50v-746q0 -20 1 -29.5t6 -21.5t16.5 -17.5t31.5 -8.5v-23h-342v23h21q67 0 95 19t28 77v135h-135q-131 0 -217.5 98t-86.5 235q0 54 19.5 108.5t58 105t107.5 82.5t157 32h311zM585 606h-66v-834h66v834zM480 606h-62q-74 0 -110.5 -69.5
t-36.5 -220.5q0 -166 29.5 -230t123.5 -64h56v584z" />
    <glyph glyph-name="periodcentered" unicode="&#xb7;" horiz-adv-x="188" 
d="M94 324q18 0 31 -13t13 -31q0 -19 -13 -31.5t-31 -12.5q-19 0 -31.5 12.5t-12.5 31.5q0 18 13 31t31 13z" />
    <glyph glyph-name="cedilla" unicode="&#xb8;" horiz-adv-x="333" 
d="M138 1h34l-6 -54q48 -3 69 -26t21 -50q0 -43 -42 -77t-145 -34v30q123 8 123 64q0 40 -71 35z" />
    <glyph glyph-name="one.superior" unicode="&#xb9;" horiz-adv-x="260" 
d="M69 521v20q28 2 40.5 8.5t24.5 21.5h23v-257q0 -12 4 -15.5t17 -3.5h19l5 -22h-139v22h23q10 0 14 4.5t4 16.5v176q0 17 -6.5 23t-28.5 6z" />
    <glyph glyph-name="ordmasculine" unicode="&#xba;" horiz-adv-x="292" 
d="M16 535q0 47 36.5 82t92.5 35t93.5 -35.5t37.5 -79.5q0 -45 -33 -81t-95 -36q-57 0 -94.5 33.5t-37.5 81.5zM222 504q0 45 -30 82.5t-66 37.5q-22 0 -38.5 -16.5t-16.5 -46.5q0 -40 31 -76.5t67 -36.5q24 0 38.5 17t14.5 39z" />
    <glyph glyph-name="guillemotright" unicode="&#xbb;" horiz-adv-x="406" 
d="M194 23l95 151l-95 152l26 22l163 -174l-163 -174zM19 23l95 151l-95 152l26 22l163 -174l-163 -174z" />
    <glyph glyph-name="onequarter" unicode="&#xbc;" horiz-adv-x="635" 
d="M575 298v-178h57l-14 -39h-24q0 8 -7 8h-12v-44q0 -17 2 -20t13 -3h23l7 -22h-137l-5 22h21q16 0 19 4t3 23v40h-149v20l178 189h25zM419 120h102v107zM72 521v20q30 2 42.5 9t22.5 21h23v-257q0 -13 3.5 -16t18.5 -3h18l5 -22h-138v22h22q11 0 14.5 3.5t3.5 17.5v176
q0 19 -6 23t-29 6zM169 -24h-42l339 596h42z" />
    <glyph glyph-name="onehalf" unicode="&#xbd;" horiz-adv-x="635" 
d="M72 521v20q30 2 42.5 9t22.5 21h23v-257q0 -13 3.5 -16t18.5 -3h18l5 -22h-138v22h22q11 0 14.5 3.5t3.5 17.5v176q0 19 -6 23t-29 6zM602 64l26 -4l-27 -60h-229v15q101 82 135 119t34 75q0 24 -16.5 41t-41.5 17q-32 0 -62 -39l-23 13q42 57 100 57q43 0 70.5 -23.5
t27.5 -51.5q0 -31 -23.5 -64.5t-49 -55t-78.5 -62.5h105q20 0 29 4.5t23 18.5zM168 -25h-42l339 596h42z" />
    <glyph glyph-name="threequarters" unicode="&#xbe;" horiz-adv-x="635" 
d="M575 298v-178h57l-14 -39h-24q0 8 -7 8h-12v-44q0 -17 2 -20t13 -3h23l7 -22h-137l-5 22h21q16 0 19 4t3 23v40h-149v20l178 189h25zM419 120h102v107zM4 298l22 32l24 -9q-5 -10 -5 -12q0 -3 5 -7t15.5 -8t23.5 -4q36 0 63 25.5t27 61.5q0 19 -10 35t-35 16
q-11 0 -46 -12l-10 22q76 32 76 69q0 13 -9 22t-22 9q-27 0 -63 -34l-18 17q35 50 94 50q32 0 51 -16.5t19 -37.5q0 -33 -41 -60q35 -6 52.5 -27t17.5 -49q0 -45 -41.5 -79.5t-102.5 -34.5q-45 0 -87 31zM169 -24h-42l339 596h42z" />
    <glyph glyph-name="questiondown" unicode="&#xbf;" horiz-adv-x="313" 
d="M150 208l55 72q56 -16 56 -78q0 -25 -8 -49.5t-17.5 -41.5t-29.5 -49q-45 -72 -63.5 -116.5t-18.5 -87.5q0 -53 20 -79t46 -26q14 0 27 8q14 9 18 9q10 0 10 -11q0 -10 -20 -23.5t-49 -13.5q-49 0 -89.5 32.5t-40.5 97.5q0 49 25 90t86 110q67 78 67 122q0 14 -8.5 26.5
t-19.5 12.5q-12 0 -26 -19zM207 306q-16 0 -28.5 12.5t-12.5 28.5q0 17 12 29t29 12t29 -12t12 -29t-12 -29t-29 -12z" />
    <glyph glyph-name="Agrave" unicode="&#xc0;" horiz-adv-x="677" 
d="M438 0v18q23 3 43.5 11.5t20.5 19.5q0 13 -10 39l-68 165h-225l-63 -161q-12 -30 -12 -38q0 -25 77 -36v-18h-198v18q40 4 61.5 25.5t40.5 68.5l219 540h19l231 -559q17 -41 35.5 -54.5t63.5 -20.5v-18h-235zM311 530l-97 -243h196zM385 696l-151 133h91l100 -133h-40z
" />
    <glyph glyph-name="Aacute" unicode="&#xc1;" horiz-adv-x="677" 
d="M438 0v18q23 3 43.5 11.5t20.5 19.5q0 13 -10 39l-68 165h-225l-63 -161q-12 -30 -12 -38q0 -25 77 -36v-18h-198v18q40 4 61.5 25.5t40.5 68.5l219 540h19l231 -559q17 -41 35.5 -54.5t63.5 -20.5v-18h-235zM311 530l-97 -243h196zM292 696h-39l99 133h91z" />
    <glyph glyph-name="Acircumflex" unicode="&#xc2;" horiz-adv-x="677" 
d="M438 0v18q23 3 43.5 11.5t20.5 19.5q0 13 -10 39l-68 165h-225l-63 -161q-12 -30 -12 -38q0 -25 77 -36v-18h-198v18q40 4 61.5 25.5t40.5 68.5l219 540h19l231 -559q17 -41 35.5 -54.5t63.5 -20.5v-18h-235zM311 530l-97 -243h196zM479 696h-41l-99 89l-102 -89h-39
l100 133h81z" />
    <glyph glyph-name="Atilde" unicode="&#xc3;" horiz-adv-x="677" 
d="M438 0v18q23 3 43.5 11.5t20.5 19.5q0 13 -10 39l-68 165h-225l-63 -161q-12 -30 -12 -38q0 -25 77 -36v-18h-198v18q40 4 61.5 25.5t40.5 68.5l219 540h19l231 -559q17 -41 35.5 -54.5t63.5 -20.5v-18h-235zM311 530l-97 -243h196zM393 696q-29 0 -68 19q-43 21 -59 21
q-33 0 -41 -40h-21q0 45 23.5 67.5t56.5 22.5q24 0 59 -17q47 -23 65 -23q16 0 28.5 10.5t15.5 29.5h21q0 -44 -24.5 -67t-55.5 -23z" />
    <glyph glyph-name="Adieresis" unicode="&#xc4;" horiz-adv-x="677" 
d="M438 0v18q23 3 43.5 11.5t20.5 19.5q0 13 -10 39l-68 165h-225l-63 -161q-12 -30 -12 -38q0 -25 77 -36v-18h-198v18q40 4 61.5 25.5t40.5 68.5l219 540h19l231 -559q17 -41 35.5 -54.5t63.5 -20.5v-18h-235zM311 530l-97 -243h196zM263 778q16 0 28.5 -12.5t12.5 -28.5
q0 -17 -12 -29t-29 -12t-29 12t-12 29t12 29t29 12zM415 778q16 0 28.5 -12.5t12.5 -28.5q0 -17 -12 -29t-29 -12t-29 12t-12 29t12 29t29 12z" />
    <glyph glyph-name="Aring" unicode="&#xc5;" horiz-adv-x="677" 
d="M438 0v18q23 3 43.5 11.5t20.5 19.5q0 13 -10 39l-68 165h-225l-63 -161q-12 -30 -12 -38q0 -25 77 -36v-18h-198v18q40 4 61.5 25.5t40.5 68.5l219 540h19l231 -559q17 -41 35.5 -54.5t63.5 -20.5v-18h-235zM311 530l-97 -243h196zM339 857q33 0 56.5 -23t23.5 -57
t-23.5 -57.5t-56.5 -23.5q-34 0 -57.5 23.5t-23.5 57.5q0 33 24 56.5t57 23.5zM339 824q-20 0 -34 -13.5t-14 -33.5t14 -34t34 -14t33.5 14t13.5 34t-14 33.5t-33 13.5z" />
    <glyph glyph-name="AE" unicode="&#xc6;" horiz-adv-x="875" 
d="M354 0v18q50 0 72.5 18t22.5 72v173h-184l-101 -176q-29 -51 -29 -58q0 -27 65 -29v-18h-196v18q36 5 62 23.5t54 65.5l293 500q-33 16 -69 19v18h450v-113h-19q-11 35 -30.5 54t-35 22t-39.5 3h-144v-271h152q44 0 59 39h18v-124h-18q-6 23 -24.5 37t-44.5 14h-142v-271
h192q41 0 63.5 16.5t45.5 79.5h19v-130h-492zM449 602l-165 -287h165v287z" />
    <glyph glyph-name="Ccedilla" unicode="&#xc7;" horiz-adv-x="635" 
d="M590 15h-15l-3 4q-5 7 -12 7q-1 0 -59.5 -16.5t-120.5 -17.5l-6 -48q52 -3 71.5 -26.5t19.5 -48.5q0 -51 -58 -85q-39 -23 -127 -25v27q124 8 124 66q0 38 -54 38q-12 0 -17 -1l16 105q-126 3 -217.5 92t-91.5 238q0 132 97 230t234 98q41 0 88 -10t48 -10q23 0 33 16h14
l54 -119h-22q-92 94 -216 94q-106 0 -174.5 -72.5t-68.5 -186.5q0 -140 87.5 -241.5t200.5 -101.5q105 0 177 86h20z" />
    <glyph glyph-name="Egrave" unicode="&#xc8;" horiz-adv-x="531" 
d="M15 0v18q60 6 75 20.5t15 60.5v439q0 47 -18 65t-62 23v18h427v-115h-20q-17 81 -115 81h-135v-271h145q28 0 40 6t28 33h17v-123h-17q-8 30 -25.5 40t-45.5 10h-142v-271h194q22 0 39 4.5t38 28.5t31 66h18v-133h-487zM312 696l-151 133h91l100 -133h-40z" />
    <glyph glyph-name="Eacute" unicode="&#xc9;" horiz-adv-x="531" 
d="M15 0v18q60 6 75 20.5t15 60.5v439q0 47 -18 65t-62 23v18h427v-115h-20q-17 81 -115 81h-135v-271h145q28 0 40 6t28 33h17v-123h-17q-8 30 -25.5 40t-45.5 10h-142v-271h194q22 0 39 4.5t38 28.5t31 66h18v-133h-487zM219 696h-39l99 133h91z" />
    <glyph glyph-name="Ecircumflex" unicode="&#xca;" horiz-adv-x="531" 
d="M15 0v18q60 6 75 20.5t15 60.5v439q0 47 -18 65t-62 23v18h427v-115h-20q-17 81 -115 81h-135v-271h145q28 0 40 6t28 33h17v-123h-17q-8 30 -25.5 40t-45.5 10h-142v-271h194q22 0 39 4.5t38 28.5t31 66h18v-133h-487zM406 696h-41l-99 89l-102 -89h-39l100 133h81z" />
    <glyph glyph-name="Edieresis" unicode="&#xcb;" horiz-adv-x="531" 
d="M15 0v18q60 6 75 20.5t15 60.5v439q0 47 -18 65t-62 23v18h427v-115h-20q-17 81 -115 81h-135v-271h145q28 0 40 6t28 33h17v-123h-17q-8 30 -25.5 40t-45.5 10h-142v-271h194q22 0 39 4.5t38 28.5t31 66h18v-133h-487zM190 778q16 0 28.5 -12.5t12.5 -28.5
q0 -17 -12.5 -29t-28.5 -12q-17 0 -29 12t-12 29t12.5 29t28.5 12zM342 778q16 0 28.5 -12.5t12.5 -28.5q0 -17 -12.5 -29t-28.5 -12q-17 0 -29 12t-12 29t12.5 29t28.5 12z" />
    <glyph glyph-name="Igrave" unicode="&#xcc;" horiz-adv-x="313" 
d="M71 0l-1 18q27 5 37.5 29.5t10.5 76.5v422q0 43 -12 60.5t-44 19.5v18h187v-18q-35 -2 -44.5 -11t-9.5 -46v-471q0 -45 12.5 -58.5t66.5 -21.5v-18h-203zM203 696l-151 133h91l100 -133h-40z" />
    <glyph glyph-name="Iacute" unicode="&#xcd;" horiz-adv-x="313" 
d="M71 0l-1 18q27 5 37.5 29.5t10.5 76.5v422q0 43 -12 60.5t-44 19.5v18h187v-18q-35 -2 -44.5 -11t-9.5 -46v-471q0 -45 12.5 -58.5t66.5 -21.5v-18h-203zM110 696h-39l99 133h91z" />
    <glyph glyph-name="Icircumflex" unicode="&#xce;" horiz-adv-x="313" 
d="M71 0l-1 18q27 5 37.5 29.5t10.5 76.5v422q0 43 -12 60.5t-44 19.5v18h187v-18q-35 -2 -44.5 -11t-9.5 -46v-471q0 -45 12.5 -58.5t66.5 -21.5v-18h-203zM297 696h-41l-99 89l-102 -89h-39l100 133h81z" />
    <glyph glyph-name="Idieresis" unicode="&#xcf;" horiz-adv-x="313" 
d="M71 0l-1 18q27 5 37.5 29.5t10.5 76.5v422q0 43 -12 60.5t-44 19.5v18h187v-18q-35 -2 -44.5 -11t-9.5 -46v-471q0 -45 12.5 -58.5t66.5 -21.5v-18h-203zM81 778q16 0 28.5 -12.5t12.5 -28.5q0 -17 -12 -29t-29 -12t-29 12t-12 29t12 29t29 12zM233 778q16 0 28.5 -12.5
t12.5 -28.5q0 -17 -12 -29t-29 -12t-29 12t-12 29t12 29t29 12z" />
    <glyph glyph-name="Eth" unicode="&#xd0;" horiz-adv-x="719" 
d="M106 305h-67v33h67v239q0 28 -12.5 36.5t-64.5 12.5v18h247q76 0 138.5 -13t103.5 -33.5t71.5 -50t46.5 -57t26 -60t12.5 -54.5t2.5 -44q0 -146 -106 -239t-283 -93h-251v18q43 5 56 18.5t13 49.5v219zM183 338h177v-33h-177v-270q49 -9 102 -9q151 0 225.5 75.5
t74.5 203.5q0 135 -91 224t-234 89q-53 0 -77 -3v-277z" />
    <glyph glyph-name="Ntilde" unicode="&#xd1;" horiz-adv-x="792" 
d="M689 545v-551h-14l-531 574v-466q0 -34 17.5 -56t65.5 -28v-18h-198v18q39 3 56.5 21.5t17.5 57.5v466q0 34 -14.5 45.5t-59.5 17.5v18h159l460 -501v412q0 41 -13.5 54t-46.5 17v18h175v-18q-40 -1 -57 -19t-17 -62zM451 696q-29 0 -68 19q-43 21 -59 21q-33 0 -41 -40
h-21q0 45 23.5 67.5t56.5 22.5q24 0 59 -17q47 -23 65 -23q16 0 28.5 10.5t15.5 29.5h21q0 -44 -24.5 -67t-55.5 -23z" />
    <glyph glyph-name="Ograve" unicode="&#xd2;" horiz-adv-x="750" 
d="M372 -8q-142 0 -236 90t-94 228q0 146 105.5 244t241.5 98q133 0 226 -94t93 -228q0 -62 -21.5 -121t-62 -108t-106 -79t-146.5 -30zM659 278q0 46 -23 100.5t-63 104t-103.5 82.5t-134.5 33q-104 0 -169.5 -68t-65.5 -158q0 -118 98.5 -224.5t218.5 -106.5
q103 0 172.5 71.5t69.5 165.5zM422 696l-151 133h91l100 -133h-40z" />
    <glyph glyph-name="Oacute" unicode="&#xd3;" horiz-adv-x="750" 
d="M372 -8q-142 0 -236 90t-94 228q0 146 105.5 244t241.5 98q133 0 226 -94t93 -228q0 -62 -21.5 -121t-62 -108t-106 -79t-146.5 -30zM659 278q0 46 -23 100.5t-63 104t-103.5 82.5t-134.5 33q-104 0 -169.5 -68t-65.5 -158q0 -118 98.5 -224.5t218.5 -106.5
q103 0 172.5 71.5t69.5 165.5zM329 696h-39l99 133h91z" />
    <glyph glyph-name="Ocircumflex" unicode="&#xd4;" horiz-adv-x="750" 
d="M372 -8q-142 0 -236 90t-94 228q0 146 105.5 244t241.5 98q133 0 226 -94t93 -228q0 -62 -21.5 -121t-62 -108t-106 -79t-146.5 -30zM659 278q0 46 -23 100.5t-63 104t-103.5 82.5t-134.5 33q-104 0 -169.5 -68t-65.5 -158q0 -118 98.5 -224.5t218.5 -106.5
q103 0 172.5 71.5t69.5 165.5zM516 696h-41l-99 89l-102 -89h-39l100 133h81z" />
    <glyph glyph-name="Otilde" unicode="&#xd5;" horiz-adv-x="750" 
d="M372 -8q-142 0 -236 90t-94 228q0 146 105.5 244t241.5 98q133 0 226 -94t93 -228q0 -62 -21.5 -121t-62 -108t-106 -79t-146.5 -30zM659 278q0 46 -23 100.5t-63 104t-103.5 82.5t-134.5 33q-104 0 -169.5 -68t-65.5 -158q0 -118 98.5 -224.5t218.5 -106.5
q103 0 172.5 71.5t69.5 165.5zM430 696q-29 0 -68 19q-43 21 -59 21q-33 0 -41 -40h-21q0 45 23.5 67.5t56.5 22.5q24 0 59 -17q47 -23 65 -23q16 0 28.5 10.5t15.5 29.5h21q0 -44 -24.5 -67t-55.5 -23z" />
    <glyph glyph-name="Odieresis" unicode="&#xd6;" horiz-adv-x="750" 
d="M372 -8q-142 0 -236 90t-94 228q0 146 105.5 244t241.5 98q133 0 226 -94t93 -228q0 -62 -21.5 -121t-62 -108t-106 -79t-146.5 -30zM659 278q0 46 -23 100.5t-63 104t-103.5 82.5t-134.5 33q-104 0 -169.5 -68t-65.5 -158q0 -118 98.5 -224.5t218.5 -106.5
q103 0 172.5 71.5t69.5 165.5zM300 778q16 0 28.5 -12.5t12.5 -28.5q0 -17 -12.5 -29t-28.5 -12q-17 0 -29 12t-12 29t12.5 29t28.5 12zM452 778q16 0 28.5 -12.5t12.5 -28.5q0 -17 -12.5 -29t-28.5 -12q-17 0 -29 12t-12 29t12.5 29t28.5 12z" />
    <glyph glyph-name="multiply" unicode="&#xd7;" 
d="M33 117l163 163l-163 163l33 33l163 -163l163 163l34 -33l-163 -163l163 -163l-34 -34l-163 163l-163 -163z" />
    <glyph glyph-name="Oslash" unicode="&#xd8;" horiz-adv-x="750" 
d="M371 -8q-111 0 -203 64l-66 -74l-24 17l66 76q-102 95 -102 235q0 97 50 176.5t129.5 122.5t167.5 43q110 0 195 -66l63 73l25 -23l-63 -72q99 -95 99 -234q0 -49 -13 -96.5t-40.5 -91t-66.5 -77t-95 -53.5t-122 -20zM555 501l-330 -378q96 -82 191 -82q98 0 170.5 68
t72.5 169q0 55 -30.5 118t-73.5 105zM531 524q-87 74 -197 74q-101 0 -167.5 -67t-66.5 -157q0 -118 104 -230z" />
    <glyph glyph-name="Ugrave" unicode="&#xd9;" horiz-adv-x="740" 
d="M627 529v-298q0 -104 -65.5 -171.5t-192.5 -67.5q-115 0 -188 68.5t-73 164.5v348q0 52 -44 53v18h200v-18q-29 -5 -45.5 -11.5t-23.5 -20t-8.5 -25.5t-1.5 -40v-284q0 -51 14.5 -90t35 -60t48.5 -34t50.5 -17t45.5 -4q63 0 106.5 20t64 54t28.5 66t8 69v309
q0 43 -7.5 52.5t-45.5 15.5v18h169v-18q-52 -6 -63.5 -21t-11.5 -76zM417 696l-151 133h91l100 -133h-40z" />
    <glyph glyph-name="Uacute" unicode="&#xda;" horiz-adv-x="740" 
d="M627 529v-298q0 -104 -65.5 -171.5t-192.5 -67.5q-115 0 -188 68.5t-73 164.5v348q0 52 -44 53v18h200v-18q-29 -5 -45.5 -11.5t-23.5 -20t-8.5 -25.5t-1.5 -40v-284q0 -51 14.5 -90t35 -60t48.5 -34t50.5 -17t45.5 -4q63 0 106.5 20t64 54t28.5 66t8 69v309
q0 43 -7.5 52.5t-45.5 15.5v18h169v-18q-52 -6 -63.5 -21t-11.5 -76zM344 696h-39l99 133h91z" />
    <glyph glyph-name="Ucircumflex" unicode="&#xdb;" horiz-adv-x="740" 
d="M627 529v-298q0 -104 -65.5 -171.5t-192.5 -67.5q-115 0 -188 68.5t-73 164.5v348q0 52 -44 53v18h200v-18q-29 -5 -45.5 -11.5t-23.5 -20t-8.5 -25.5t-1.5 -40v-284q0 -51 14.5 -90t35 -60t48.5 -34t50.5 -17t45.5 -4q63 0 106.5 20t64 54t28.5 66t8 69v309
q0 43 -7.5 52.5t-45.5 15.5v18h169v-18q-52 -6 -63.5 -21t-11.5 -76zM526 696h-41l-99 89l-102 -89h-39l100 133h81z" />
    <glyph glyph-name="Udieresis" unicode="&#xdc;" horiz-adv-x="740" 
d="M627 529v-298q0 -104 -65.5 -171.5t-192.5 -67.5q-115 0 -188 68.5t-73 164.5v348q0 52 -44 53v18h200v-18q-29 -5 -45.5 -11.5t-23.5 -20t-8.5 -25.5t-1.5 -40v-284q0 -51 14.5 -90t35 -60t48.5 -34t50.5 -17t45.5 -4q63 0 106.5 20t64 54t28.5 66t8 69v309
q0 43 -7.5 52.5t-45.5 15.5v18h169v-18q-52 -6 -63.5 -21t-11.5 -76zM310 778q16 0 28.5 -12.5t12.5 -28.5q0 -17 -12.5 -29t-28.5 -12q-17 0 -29 12t-12 29t12.5 29t28.5 12zM462 778q16 0 28.5 -12.5t12.5 -28.5q0 -17 -12.5 -29t-28.5 -12q-17 0 -29 12t-12 29t12.5 29
t28.5 12z" />
    <glyph glyph-name="Yacute" unicode="&#xdd;" horiz-adv-x="677" 
d="M556 543l-179 -293v-167q0 -31 12 -45t54 -20v-18h-209v18q37 4 51.5 15.5t14.5 40.5v140l-208 364q-16 28 -31.5 36.5t-51.5 11.5v18h194v-18q-33 0 -36 -13t9 -27l175 -310l185 303q13 17 10 30t-30 17v18h157v-18q-40 -2 -63.5 -17.5t-53.5 -65.5zM292 696h-39l99 133
h91z" />
    <glyph glyph-name="Thorn" unicode="&#xde;" horiz-adv-x="500" 
d="M462 330q0 -18 -4 -37.5t-18.5 -45t-38 -45t-67.5 -33.5t-102 -14h-48v-62q0 -40 28.5 -56.5t83.5 -18.5v-18h-252v18q44 8 53.5 17t9.5 43v490q0 32 -10 40t-53 18v18h252v-18q-112 0 -112 -82v-55h75q48 0 85.5 -11t59 -27.5t35.5 -38.5t18.5 -42t4.5 -40zM227 455h-43
v-267h53q143 0 143 111q0 67 -38 111.5t-115 44.5z" />
    <glyph glyph-name="germandbls" unicode="&#xdf;" horiz-adv-x="490" 
d="M456 191q0 -31 -12 -66t-30 -57q-30 -36 -67.5 -52t-95.5 -16l17 41q16 -7 28 -7q34 0 60 33.5t26 93.5q0 63 -41.5 116t-112.5 45v30q69 19 94 45t25 97q0 59 -29.5 93t-69.5 34q-46 0 -73 -34.5t-27 -105.5v-396q0 -33 7 -43.5t35 -10.5h19l-6 -31h-173l-5 31h15
q23 0 31.5 13t8.5 52v328q0 117 51.5 172.5t125.5 55.5q76 0 119 -47t43 -103q0 -43 -26 -80.5t-73 -61.5q44 -13 74 -36.5t42 -50.5t16 -45.5t4 -36.5z" />
    <glyph glyph-name="agrave" unicode="&#xe0;" horiz-adv-x="395" 
d="M250 219v62q0 48 -49 48q-27 0 -40 -12.5t-20 -40.5l-94 -12q14 52 68 76q44 19 94 19q56 0 82.5 -27.5t26.5 -75.5v-170q0 -24 4.5 -32t16.5 -8q9 0 36 16l14 -21q-15 -16 -42 -35.5t-47 -19.5q-35 0 -50 55q-60 -55 -117 -55q-38 0 -70 21.5t-32 66.5q0 29 20 51.5
t68 45.5t131 48zM250 73v120q-62 -18 -101 -46t-39 -56q0 -29 19.5 -47.5t40.5 -18.5q44 0 80 48zM229 397l-151 133h91l100 -133h-40z" />
    <glyph glyph-name="aacute" unicode="&#xe1;" horiz-adv-x="395" 
d="M250 219v62q0 48 -49 48q-27 0 -40 -12.5t-20 -40.5l-94 -12q14 52 68 76q44 19 94 19q56 0 82.5 -27.5t26.5 -75.5v-170q0 -24 4.5 -32t16.5 -8q9 0 36 16l14 -21q-15 -16 -42 -35.5t-47 -19.5q-35 0 -50 55q-60 -55 -117 -55q-38 0 -70 21.5t-32 66.5q0 29 20 51.5
t68 45.5t131 48zM250 73v120q-62 -18 -101 -46t-39 -56q0 -29 19.5 -47.5t40.5 -18.5q44 0 80 48zM151 397h-39l99 133h91z" />
    <glyph glyph-name="acircumflex" unicode="&#xe2;" horiz-adv-x="395" 
d="M250 219v62q0 48 -49 48q-27 0 -40 -12.5t-20 -40.5l-94 -12q14 52 68 76q44 19 94 19q56 0 82.5 -27.5t26.5 -75.5v-170q0 -24 4.5 -32t16.5 -8q9 0 36 16l14 -21q-15 -16 -42 -35.5t-47 -19.5q-35 0 -50 55q-60 -55 -117 -55q-38 0 -70 21.5t-32 66.5q0 29 20 51.5
t68 45.5t131 48zM250 73v120q-62 -18 -101 -46t-39 -56q0 -29 19.5 -47.5t40.5 -18.5q44 0 80 48zM323 397h-41l-99 89l-102 -89h-39l100 133h81z" />
    <glyph glyph-name="atilde" unicode="&#xe3;" horiz-adv-x="395" 
d="M250 219v62q0 48 -49 48q-27 0 -40 -12.5t-20 -40.5l-94 -12q14 52 68 76q44 19 94 19q56 0 82.5 -27.5t26.5 -75.5v-170q0 -24 4.5 -32t16.5 -8q9 0 36 16l14 -21q-15 -16 -42 -35.5t-47 -19.5q-35 0 -50 55q-60 -55 -117 -55q-38 0 -70 21.5t-32 66.5q0 29 20 51.5
t68 45.5t131 48zM250 73v120q-62 -18 -101 -46t-39 -56q0 -29 19.5 -47.5t40.5 -18.5q44 0 80 48zM237 397q-29 0 -68 19q-43 21 -59 21q-33 0 -41 -40h-21q0 45 23.5 67.5t56.5 22.5q24 0 59 -17q47 -23 65 -23q16 0 28.5 10.5t15.5 29.5h21q0 -44 -24.5 -67t-55.5 -23z
" />
    <glyph glyph-name="adieresis" unicode="&#xe4;" horiz-adv-x="395" 
d="M250 219v62q0 48 -49 48q-27 0 -40 -12.5t-20 -40.5l-94 -12q14 52 68 76q44 19 94 19q56 0 82.5 -27.5t26.5 -75.5v-170q0 -24 4.5 -32t16.5 -8q9 0 36 16l14 -21q-15 -16 -42 -35.5t-47 -19.5q-35 0 -50 55q-60 -55 -117 -55q-38 0 -70 21.5t-32 66.5q0 29 20 51.5
t68 45.5t131 48zM250 73v120q-62 -18 -101 -46t-39 -56q0 -29 19.5 -47.5t40.5 -18.5q44 0 80 48zM107 479q16 0 28.5 -12.5t12.5 -28.5t-12 -28.5t-29 -12.5t-29 12t-12 29q0 16 12 28.5t29 12.5zM259 479q16 0 28.5 -12.5t12.5 -28.5t-12 -28.5t-29 -12.5t-29 12t-12 29
q0 16 12 28.5t29 12.5z" />
    <glyph glyph-name="aring" unicode="&#xe5;" horiz-adv-x="395" 
d="M250 219v62q0 48 -49 48q-27 0 -40 -12.5t-20 -40.5l-94 -12q14 52 68 76q44 19 94 19q56 0 82.5 -27.5t26.5 -75.5v-170q0 -24 4.5 -32t16.5 -8q9 0 36 16l14 -21q-15 -16 -42 -35.5t-47 -19.5q-35 0 -50 55q-60 -55 -117 -55q-38 0 -70 21.5t-32 66.5q0 29 20 51.5
t68 45.5t131 48zM250 73v120q-62 -18 -101 -46t-39 -56q0 -29 19.5 -47.5t40.5 -18.5q44 0 80 48zM183 558q33 0 56.5 -23t23.5 -57t-23.5 -57.5t-56.5 -23.5q-34 0 -57.5 23.5t-23.5 57.5q0 33 24 56.5t57 23.5zM183 525q-20 0 -34 -13.5t-14 -33.5t14 -34t34 -14t33.5 14
t13.5 34t-14 33.5t-33 13.5z" />
    <glyph glyph-name="ae" unicode="&#xe6;" horiz-adv-x="593" 
d="M310 191q7 -86 53 -128.5t96 -42.5q47 0 89 29v-22q-41 -41 -132 -41q-46 0 -84 22t-56 46q-73 -68 -140 -68q-51 0 -78 23.5t-27 62.5q0 25 16.5 47t46 38t52 25t53.5 20q8 3 12 4l35 12q0 62 -12 86t-43 24q-22 0 -37 -15t-20 -37l-88 -12q11 46 55.5 70.5t87.5 24.5
q74 0 106 -50q39 50 113 50q135 0 158 -148zM390 325q-33 0 -55 -27t-25 -74l164 14q-16 87 -84 87zM263 77q-18 59 -18 115q-138 -36 -138 -108q0 -26 17.5 -45t47.5 -19q18 0 44.5 16.5t46.5 40.5z" />
    <glyph glyph-name="ccedilla" unicode="&#xe7;" horiz-adv-x="391" 
d="M292 253q-23 74 -93 74q-45 0 -75 -31t-30 -80q0 -68 48.5 -129.5t113.5 -61.5q49 0 88 25l15 -18q-51 -39 -117 -45l-6 -44q49 -3 70 -25t21 -50q0 -54 -52 -82t-133 -28v27q46 2 85 18t39 48q0 20 -18.5 31t-51.5 6l14 98q-47 3 -83 21.5t-55.5 46t-28.5 56t-9 57.5
q0 82 56 137t130 55q87 0 146 -65z" />
    <glyph glyph-name="egrave" unicode="&#xe8;" horiz-adv-x="406" 
d="M98 191q8 -68 51 -119.5t113 -51.5q48 0 103 34v-20q-31 -25 -59 -36.5t-76 -11.5q-98 0 -147 53t-49 130q0 88 54.5 139t119.5 51q60 0 104.5 -41t66.5 -102zM192 325q-13 0 -26 -3.5t-28 -13t-26 -31t-14 -52.5l193 17q-28 83 -99 83zM250 397l-151 133h91l100 -133
h-40z" />
    <glyph glyph-name="eacute" unicode="&#xe9;" horiz-adv-x="406" 
d="M98 191q8 -68 51 -119.5t113 -51.5q48 0 103 34v-20q-31 -25 -59 -36.5t-76 -11.5q-98 0 -147 53t-49 130q0 88 54.5 139t119.5 51q60 0 104.5 -41t66.5 -102zM192 325q-13 0 -26 -3.5t-28 -13t-26 -31t-14 -52.5l193 17q-28 83 -99 83zM157 397h-39l99 133h91z" />
    <glyph glyph-name="ecircumflex" unicode="&#xea;" horiz-adv-x="406" 
d="M98 191q8 -68 51 -119.5t113 -51.5q48 0 103 34v-20q-31 -25 -59 -36.5t-76 -11.5q-98 0 -147 53t-49 130q0 88 54.5 139t119.5 51q60 0 104.5 -41t66.5 -102zM192 325q-13 0 -26 -3.5t-28 -13t-26 -31t-14 -52.5l193 17q-28 83 -99 83zM344 397h-41l-99 89l-102 -89h-39
l100 133h81z" />
    <glyph glyph-name="edieresis" unicode="&#xeb;" horiz-adv-x="406" 
d="M98 191q8 -68 51 -119.5t113 -51.5q48 0 103 34v-20q-31 -25 -59 -36.5t-76 -11.5q-98 0 -147 53t-49 130q0 88 54.5 139t119.5 51q60 0 104.5 -41t66.5 -102zM192 325q-13 0 -26 -3.5t-28 -13t-26 -31t-14 -52.5l193 17q-28 83 -99 83zM128 479q16 0 28.5 -12.5
t12.5 -28.5t-12.5 -28.5t-28.5 -12.5q-17 0 -29 12t-12 29q0 16 12.5 28.5t28.5 12.5zM280 479q16 0 28.5 -12.5t12.5 -28.5t-12.5 -28.5t-28.5 -12.5q-17 0 -29 12t-12 29q0 16 12.5 28.5t28.5 12.5z" />
    <glyph glyph-name="igrave" unicode="&#xec;" horiz-adv-x="240" 
d="M238 31l-21 -31h-165l-9 31q16 1 21 2t13.5 6t11 16t2.5 30v140q0 27 -8.5 36.5t-35.5 10.5v20q45 21 91 67h21v-269q0 -39 9 -49t43 -10h27zM167 397l-151 133h91l100 -133h-40z" />
    <glyph glyph-name="iacute" unicode="&#xed;" horiz-adv-x="240" 
d="M238 31l-21 -31h-165l-9 31q16 1 21 2t13.5 6t11 16t2.5 30v140q0 27 -8.5 36.5t-35.5 10.5v20q45 21 91 67h21v-269q0 -39 9 -49t43 -10h27zM74 397h-39l99 133h91z" />
    <glyph glyph-name="icircumflex" unicode="&#xee;" horiz-adv-x="240" 
d="M238 31l-21 -31h-165l-9 31q16 1 21 2t13.5 6t11 16t2.5 30v140q0 27 -8.5 36.5t-35.5 10.5v20q45 21 91 67h21v-269q0 -39 9 -49t43 -10h27zM261 397h-41l-99 89l-102 -89h-39l100 133h81z" />
    <glyph glyph-name="idieresis" unicode="&#xef;" horiz-adv-x="240" 
d="M238 31l-21 -31h-165l-9 31q16 1 21 2t13.5 6t11 16t2.5 30v140q0 27 -8.5 36.5t-35.5 10.5v20q45 21 91 67h21v-269q0 -39 9 -49t43 -10h27zM45 479q16 0 28.5 -12.5t12.5 -28.5t-12 -28.5t-29 -12.5t-29 12t-12 29q0 16 12 28.5t29 12.5zM197 479q16 0 28.5 -12.5
t12.5 -28.5t-12 -28.5t-29 -12.5t-29 12t-12 29q0 16 12 28.5t29 12.5z" />
    <glyph glyph-name="eth" unicode="&#xf0;" horiz-adv-x="448" 
d="M232 -14q-87 0 -142.5 55.5t-55.5 131.5q0 71 50.5 128.5t130.5 57.5q55 0 107 -35q-14 46 -44 100t-56 87l-79 -80l-23 24l84 83q-22 30 -88 92l20 22q17 -11 53.5 -40.5t46.5 -40.5l83 80l25 -22l-86 -83q81 -80 118 -175.5t37 -185.5q0 -86 -48.5 -142.5t-132.5 -56.5
zM195 325q-45 0 -71 -30.5t-26 -79.5q0 -73 50.5 -134t111.5 -61q40 0 66.5 29.5t26.5 70.5q0 76 -49.5 140.5t-108.5 64.5z" />
    <glyph glyph-name="ntilde" unicode="&#xf1;" horiz-adv-x="479" 
d="M464 0h-162l-10 31q18 1 26.5 2.5t15 10.5t6.5 26v137q0 118 -93 118q-62 0 -103 -48q4 -23 4 -62v-130q0 -36 8.5 -45t38.5 -9h25l-9 -31h-172l-6 31q28 1 37.5 10.5t9.5 38.5v134q0 33 -10 43t-38 14v18q46 30 66 70h13q18 -24 25 -50q39 30 65 40t66 10
q63 0 102 -34.5t39 -105.5v-134q0 -34 9 -44t36 -10h20zM294 397q-29 0 -68 19q-43 21 -59 21q-33 0 -41 -40h-21q0 45 23.5 67.5t56.5 22.5q24 0 59 -17q47 -23 65 -23q16 0 28.5 10.5t15.5 29.5h21q0 -44 -24.5 -67t-55.5 -23z" />
    <glyph glyph-name="ograve" unicode="&#xf2;" horiz-adv-x="448" 
d="M227 -14q-84 0 -138.5 56t-54.5 133q0 73 50 128.5t139 55.5q84 0 137 -57t53 -128t-47.5 -129.5t-138.5 -58.5zM195 325q-40 0 -68.5 -28.5t-28.5 -81.5q0 -73 50.5 -134t111.5 -61q40 0 66.5 29.5t26.5 70.5q0 76 -49.5 140.5t-108.5 64.5zM256 397l-151 133h91
l100 -133h-40z" />
    <glyph glyph-name="oacute" unicode="&#xf3;" horiz-adv-x="448" 
d="M227 -14q-84 0 -138.5 56t-54.5 133q0 73 50 128.5t139 55.5q84 0 137 -57t53 -128t-47.5 -129.5t-138.5 -58.5zM195 325q-40 0 -68.5 -28.5t-28.5 -81.5q0 -73 50.5 -134t111.5 -61q40 0 66.5 29.5t26.5 70.5q0 76 -49.5 140.5t-108.5 64.5zM178 397h-39l99 133h91z" />
    <glyph glyph-name="ocircumflex" unicode="&#xf4;" horiz-adv-x="448" 
d="M227 -14q-84 0 -138.5 56t-54.5 133q0 73 50 128.5t139 55.5q84 0 137 -57t53 -128t-47.5 -129.5t-138.5 -58.5zM195 325q-40 0 -68.5 -28.5t-28.5 -81.5q0 -73 50.5 -134t111.5 -61q40 0 66.5 29.5t26.5 70.5q0 76 -49.5 140.5t-108.5 64.5zM365 397h-41l-99 89
l-102 -89h-39l100 133h81z" />
    <glyph glyph-name="otilde" unicode="&#xf5;" horiz-adv-x="448" 
d="M227 -14q-84 0 -138.5 56t-54.5 133q0 73 50 128.5t139 55.5q84 0 137 -57t53 -128t-47.5 -129.5t-138.5 -58.5zM195 325q-40 0 -68.5 -28.5t-28.5 -81.5q0 -73 50.5 -134t111.5 -61q40 0 66.5 29.5t26.5 70.5q0 76 -49.5 140.5t-108.5 64.5zM279 397q-29 0 -68 19
q-43 21 -59 21q-33 0 -41 -40h-21q0 45 23.5 67.5t56.5 22.5q24 0 59 -17q47 -23 65 -23q16 0 28.5 10.5t15.5 29.5h21q0 -44 -24.5 -67t-55.5 -23z" />
    <glyph glyph-name="odieresis" unicode="&#xf6;" horiz-adv-x="448" 
d="M227 -14q-84 0 -138.5 56t-54.5 133q0 73 50 128.5t139 55.5q84 0 137 -57t53 -128t-47.5 -129.5t-138.5 -58.5zM195 325q-40 0 -68.5 -28.5t-28.5 -81.5q0 -73 50.5 -134t111.5 -61q40 0 66.5 29.5t26.5 70.5q0 76 -49.5 140.5t-108.5 64.5zM149 479q16 0 28.5 -12.5
t12.5 -28.5t-12 -28.5t-29 -12.5t-29 12t-12 29q0 16 12 28.5t29 12.5zM301 479q16 0 28.5 -12.5t12.5 -28.5t-12 -28.5t-29 -12.5t-29 12t-12 29q0 16 12 28.5t29 12.5z" />
    <glyph glyph-name="divide" unicode="&#xf7;" 
d="M199 447q0 12 9 21t22 9q12 0 21 -8.5t9 -21.5t-9.5 -22t-21.5 -9t-21 9t-9 22zM33 304h393v-48h-393v48zM199 114q0 13 9 21.5t21 8.5q13 0 22 -9t9 -21t-9 -21.5t-21 -9.5q-13 0 -22 9.5t-9 21.5z" />
    <glyph glyph-name="oslash" unicode="&#xf8;" horiz-adv-x="448" 
d="M227 -12q-66 0 -115 36l-42 -48l-21 18l41 46q-56 56 -56 137q0 75 49.5 128.5t137.5 53.5q32 0 64 -10.5t48 -23.5l44 51l22 -15l-45 -53q30 -25 44.5 -62.5t14.5 -69.5q0 -80 -51 -134t-135 -54zM195 325q-39 0 -68 -28.5t-29 -80.5q0 -62 40 -119l153 178
q-46 50 -96 50zM308 254l-153 -179q53 -55 105 -55q35 0 64 27.5t29 75.5q0 68 -45 131z" />
    <glyph glyph-name="ugrave" unicode="&#xf9;" horiz-adv-x="479" 
d="M382 -14h-9q-13 12 -29 40q-62 -40 -132 -40q-72 0 -106.5 34t-34.5 91v157q0 24 -9 34t-36 12l4 31h109v-205q0 -120 93 -120q56 0 105 34q-6 23 -6 68v135q0 36 -10.5 46t-46.5 11l5 31h120v-200q0 -47 4.5 -64t17.5 -17q8 0 14 3q5 3 11.5 6.5t13.5 8.5l13 -21
q-39 -28 -91 -75zM271 397l-151 133h91l100 -133h-40z" />
    <glyph glyph-name="uacute" unicode="&#xfa;" horiz-adv-x="479" 
d="M382 -14h-9q-13 12 -29 40q-62 -40 -132 -40q-72 0 -106.5 34t-34.5 91v157q0 24 -9 34t-36 12l4 31h109v-205q0 -120 93 -120q56 0 105 34q-6 23 -6 68v135q0 36 -10.5 46t-46.5 11l5 31h120v-200q0 -47 4.5 -64t17.5 -17q8 0 14 3q5 3 11.5 6.5t13.5 8.5l13 -21
q-39 -28 -91 -75zM193 397h-39l99 133h91z" />
    <glyph glyph-name="ucircumflex" unicode="&#xfb;" horiz-adv-x="479" 
d="M382 -14h-9q-13 12 -29 40q-62 -40 -132 -40q-72 0 -106.5 34t-34.5 91v157q0 24 -9 34t-36 12l4 31h109v-205q0 -120 93 -120q56 0 105 34q-6 23 -6 68v135q0 36 -10.5 46t-46.5 11l5 31h120v-200q0 -47 4.5 -64t17.5 -17q8 0 14 3q5 3 11.5 6.5t13.5 8.5l13 -21
q-39 -28 -91 -75zM380 397h-41l-99 89l-102 -89h-39l100 133h81z" />
    <glyph glyph-name="udieresis" unicode="&#xfc;" horiz-adv-x="479" 
d="M382 -14h-9q-13 12 -29 40q-62 -40 -132 -40q-72 0 -106.5 34t-34.5 91v157q0 24 -9 34t-36 12l4 31h109v-205q0 -120 93 -120q56 0 105 34q-6 23 -6 68v135q0 36 -10.5 46t-46.5 11l5 31h120v-200q0 -47 4.5 -64t17.5 -17q8 0 14 3q5 3 11.5 6.5t13.5 8.5l13 -21
q-39 -28 -91 -75zM164 479q16 0 28.5 -12.5t12.5 -28.5t-12.5 -28.5t-28.5 -12.5q-17 0 -29 12t-12 29q0 16 12.5 28.5t28.5 12.5zM316 479q16 0 28.5 -12.5t12.5 -28.5t-12.5 -28.5t-28.5 -12.5q-17 0 -29 12t-12 29q0 16 12.5 28.5t28.5 12.5z" />
    <glyph glyph-name="yacute" unicode="&#xfd;" horiz-adv-x="448" 
d="M431 314q-24 -2 -41 -17t-22 -25t-11 -27l-96 -283q-17 -50 -33 -83.5t-51 -71.5t-83 -56l-45 71l11 7q18 -6 32 -6q47 0 74.5 37.5t63.5 139.5l-136 246q-25 45 -37 56t-43 12l16 31h83l143 -267l57 167q14 41 12 53t-27 16v31h138zM178 397h-39l99 133h91z" />
    <glyph glyph-name="thorn" unicode="&#xfe;" horiz-adv-x="490" 
d="M258 -14q-45 0 -108 26v-209q0 -25 9 -34t37 -9h27l-8 -31h-178l-9 31q30 0 42 10t12 38v715q0 28 -8.5 36.5t-36.5 10.5v21q45 18 89 69h24v-341q68 40 124 40q80 0 129.5 -53t49.5 -129q0 -75 -53.5 -133t-141.5 -58zM242 314q-47 0 -92 -35v-200l14 -17
q42 -50 101 -50q51 0 87.5 33t36.5 93q0 69 -47 122.5t-100 53.5z" />
    <glyph glyph-name="ydieresis" unicode="&#xff;" horiz-adv-x="448" 
d="M431 314q-24 -2 -41 -17t-22 -25t-11 -27l-96 -283q-17 -50 -33 -83.5t-51 -71.5t-83 -56l-45 71l11 7q18 -6 32 -6q47 0 74.5 37.5t63.5 139.5l-136 246q-25 45 -37 56t-43 12l16 31h83l143 -267l57 167q14 41 12 53t-27 16v31h138zM149 479q16 0 28.5 -12.5t12.5 -28.5
t-12 -28.5t-29 -12.5t-29 12t-12 29q0 16 12 28.5t29 12.5zM301 479q16 0 28.5 -12.5t12.5 -28.5t-12 -28.5t-29 -12.5t-29 12t-12 29q0 16 12 28.5t29 12.5z" />
    <glyph glyph-name="dotlessi" unicode="&#x131;" horiz-adv-x="240" 
d="M238 31l-21 -31h-165l-9 31q16 1 21 2t13.5 6t11 16t2.5 30v140q0 27 -8.5 36.5t-35.5 10.5v20q45 21 91 67h21v-269q0 -39 9 -49t43 -10h27z" />
    <glyph glyph-name="Lslash" unicode="&#x141;" horiz-adv-x="563" 
d="M107 316v249q0 26 -7.5 38.5t-32.5 21.5v19h193v-18q-49 -16 -62.5 -27.5t-13.5 -38.5v-184l108 86v-39l-108 -85v-300h218q35 0 56 4.5t33 18t16 25t11 38.5h21l-6 -124h-500v18q39 6 56.5 22t17.5 45v193l-98 -76v38z" />
    <glyph glyph-name="lslash" unicode="&#x142;" horiz-adv-x="240" 
d="M91 307v208q0 25 -8 39.5t-16 17.5t-23 6v16q54 16 93 66h22v-293l81 69v-38l-81 -69v-245q0 -36 12 -45t53 -9l-10 -30h-170v31q47 2 47 53v185l-74 -63v38z" />
    <glyph glyph-name="OE" unicode="&#x152;" horiz-adv-x="990" 
d="M497 0l2 11q41 11 52 26t11 53v56q-90 -154 -240 -154q-116 0 -199 90t-83 230q0 77 26 142.5t69 108t97 66t112 23.5q138 0 218 -126v60q0 25 -11 34t-44 13v11h402v-115h-19q-12 45 -33.5 63t-72.5 18h-145v-271h145q34 0 48 8.5t18 30.5h18v-121h-18q-12 31 -24 39.5
t-53 8.5h-134v-271h200q48 0 67 18t33 81h22v-133h-464zM302 602q-84 0 -141.5 -64t-57.5 -169q0 -132 78 -225.5t181 -93.5q81 0 141.5 67t60.5 168q0 134 -82 225.5t-180 91.5z" />
    <glyph glyph-name="oe" unicode="&#x153;" horiz-adv-x="698" 
d="M407 191q6 -80 51.5 -125.5t104.5 -45.5q41 0 88 23l5 -19q-43 -37 -125 -38q-101 -2 -162 85q-59 -85 -153 -85q-84 0 -133.5 57t-49.5 129q0 79 55 133t127 54q51 0 87 -23.5t73 -68.5q48 92 143 92q23 0 44 -6t44.5 -21t41 -46t23.5 -76zM499 328q-39 0 -64.5 -31.5
t-25.5 -69.5l181 12q-8 43 -35.5 66t-55.5 23zM178 319q-40 0 -66 -28t-26 -68q0 -65 55.5 -132t117.5 -67q35 0 60.5 28t25.5 66q0 73 -51.5 137t-115.5 64z" />
    <glyph glyph-name="Scaron" unicode="&#x160;" horiz-adv-x="448" 
d="M220 -8q-43 0 -75.5 10.5t-86.5 37.5l-25 129h23q14 -33 25 -53t30.5 -44.5t47.5 -36.5t64 -12q56 0 93 31t37 80t-38 89t-137 97q-77 45 -102 84t-25 89q0 74 46 116.5t110 42.5q32 0 68 -13.5t39 -13.5q9 0 17 14h16l22 -131h-20q-15 35 -36.5 59t-43 35t-37.5 15
t-29 4q-46 0 -77 -30t-31 -69q0 -13 3 -24.5t12 -22.5t16 -18.5t23.5 -18.5l26 -17.5t32 -19.5l34.5 -20q41 -25 65.5 -42.5t52.5 -44t41 -57t13 -67.5q0 -28 -11 -57.5t-32.5 -57.5t-61 -45.5t-89.5 -17.5zM84 829h41l100 -89l101 89h39l-100 -133h-81z" />
    <glyph glyph-name="scaron" unicode="&#x161;" horiz-adv-x="317" 
d="M159 -14q-106 0 -132 98l76 48q-20 -53 0 -85t59 -32q36 0 52.5 19t16.5 40q0 24 -20 40.5t-75 48.5q-41 23 -64 47.5t-23 58.5q0 37 28.5 63.5t82.5 26.5q48 0 74.5 -17.5t45.5 -49.5l-58 -36q-16 74 -73 74q-20 0 -32.5 -11t-12.5 -27q0 -18 15.5 -33.5t54.5 -36.5
q57 -31 83.5 -59t26.5 -68q0 -48 -35 -78.5t-90 -30.5zM18 530h41l100 -89l101 89h39l-100 -133h-81z" />
    <glyph glyph-name="Ydieresis" unicode="&#x178;" horiz-adv-x="677" 
d="M556 543l-179 -293v-167q0 -31 12 -45t54 -20v-18h-209v18q37 4 51.5 15.5t14.5 40.5v140l-208 364q-16 28 -31.5 36.5t-51.5 11.5v18h194v-18q-33 0 -36 -13t9 -27l175 -310l185 303q13 17 10 30t-30 17v18h157v-18q-40 -2 -63.5 -17.5t-53.5 -65.5zM263 778
q16 0 28.5 -12.5t12.5 -28.5q0 -17 -12 -29t-29 -12t-29 12t-12 29t12 29t29 12zM415 778q16 0 28.5 -12.5t12.5 -28.5q0 -17 -12 -29t-29 -12t-29 12t-12 29t12 29t29 12z" />
    <glyph glyph-name="Zcaron" unicode="&#x17d;" horiz-adv-x="698" 
d="M639 0h-612v13l514 593h-330q-67 0 -98.5 -24t-53.5 -85h-20l31 147h587v-16l-508 -584h357q60 0 89.5 18.5t53.5 79.5h21zM209 829h41l100 -89l101 89h39l-100 -133h-81z" />
    <glyph glyph-name="zcaron" unicode="&#x17e;" horiz-adv-x="385" 
d="M22 0l229 314h-107q-64 0 -74 -44h-13l-32 48q27 27 76 27h248l-231 -309h121q40 0 56 9t29 32h14l33 -77h-349zM52 530h41l100 -89l101 89h39l-100 -133h-81z" />
    <glyph glyph-name="florin" unicode="&#x192;" horiz-adv-x="438" 
d="M410 476q-7 0 -9 3t-6 14q-21 52 -63 52q-45 0 -73.5 -49t-48.5 -147l-13 -64h113l-30 -46h-11q-1 19 -40 19h-37l-63 -293q-42 -195 -184 -195q-36 0 -63 13.5t-27 25.5q0 5 12 24t20 19q6 0 17 -18q21 -36 59 -36q29 0 50.5 27.5t30.5 56t19 73.5l65 303h-47l5 27h47
q30 133 57 187q51 99 146 99q38 0 63.5 -11.5t32.5 -21t7 -15.5q0 -10 -10.5 -28.5t-18.5 -18.5z" />
    <glyph glyph-name="circumflex" unicode="&#x2c6;" horiz-adv-x="333" 
d="M307 397h-41l-99 89l-102 -89h-39l100 133h81z" />
    <glyph glyph-name="caron" unicode="&#x2c7;" horiz-adv-x="333" 
d="M26 530h41l100 -89l101 89h39l-100 -133h-81z" />
    <glyph glyph-name="uni02C9" unicode="&#x2c9;" horiz-adv-x="333" 
d="M13 397v41h307v-41h-307z" />
    <glyph glyph-name="breve" unicode="&#x2d8;" horiz-adv-x="333" 
d="M269 521h32q-1 -17 -6.5 -35.5t-19 -40t-41.5 -35t-67 -13.5t-67.5 14t-41.5 35.5t-19 39.5t-6 35h31q22 -60 103 -60q80 0 102 60z" />
    <glyph glyph-name="dotaccent" unicode="&#x2d9;" horiz-adv-x="333" 
d="M167 478q16 0 28.5 -12.5t12.5 -28.5q0 -17 -12 -29t-29 -12t-29 12t-12 29t12 29t29 12z" />
    <glyph glyph-name="ring" unicode="&#x2da;" horiz-adv-x="333" 
d="M167 558q33 0 56.5 -23t23.5 -57t-23.5 -57.5t-56.5 -23.5q-34 0 -57.5 23.5t-23.5 57.5q0 33 24 56.5t57 23.5zM167 525q-20 0 -34 -13.5t-14 -33.5t14 -34t34 -14t33.5 14t13.5 34t-14 33.5t-33 13.5z" />
    <glyph glyph-name="ogonek" unicode="&#x2db;" horiz-adv-x="333" 
d="M171 15h38q-51 -77 -51 -133q0 -73 85 -70v-28q-13 -3 -38 -3q-60 0 -86 28t-26 61q0 69 78 145z" />
    <glyph glyph-name="tilde" unicode="&#x2dc;" horiz-adv-x="333" 
d="M221 397q-29 0 -68 19q-43 21 -59 21q-33 0 -41 -40h-21q0 45 23.5 67.5t56.5 22.5q24 0 59 -17q47 -23 65 -23q16 0 28.5 10.5t15.5 29.5h21q0 -44 -24.5 -67t-55.5 -23z" />
    <glyph glyph-name="hungarumlaut" unicode="&#x2dd;" horiz-adv-x="333" 
d="M52 397h-39l99 133h91zM188 397h-40l100 133h91z" />
    <glyph glyph-name="uni03A9" unicode="&#x3a9;" horiz-adv-x="618" 
d="M576 0h-211v109q64 38 96 118.5t32 164.5q0 128 -46 208t-137 80q-92 0 -139 -80t-47 -209q0 -89 35.5 -173t98.5 -112v-106h-215v128h21q0 -26 2.5 -39.5t15.5 -23.5t38 -10h102v31q-72 33 -121.5 116t-49.5 186q0 153 72 238.5t187 85.5q117 0 187.5 -92.5t70.5 -221.5
q0 -56 -16.5 -114t-55.5 -113.5t-95 -82.5v-33h98q25 0 37.5 10t15 23t2.5 40h22v-128z" />
    <glyph glyph-name="uni03BC" unicode="&#x3bc;" horiz-adv-x="510" 
d="M59 345h68v-197q0 -21 2 -36t9 -34t24 -29t44 -10q8 0 15.5 1.5t14 2.5t14 5t12.5 6t12.5 8.5t10.5 8.5t11.5 9.5t10 9t10 9.5t9.5 9v237h68v-209q0 -62 9.5 -83.5t31.5 -21.5q15 0 24.5 10.5t13 21.5t8.5 34h22q0 -57 -29.5 -85t-65.5 -28q-69 0 -79 95
q-85 -93 -157 -93q-61 0 -89 59q0 -112 7 -137q17 -63 17 -78q0 -21 -11.5 -34t-27.5 -13t-28 13t-12 32q0 10 16 75q15 60 15 217v225z" />
    <glyph glyph-name="pi" unicode="&#x3c0;" horiz-adv-x="414" 
d="M393 86q-19 -98 -68 -98q-32 0 -46 31q-16 31 -16 124v280h-99v-206q0 -145 -28 -194q-22 -35 -53 -35q-12 0 -20.5 8.5t-8.5 19.5q0 24 32 36q28 8 36 53t8 133v185h-23q-49 0 -60 -68l-21 5q2 58 25.5 90t65.5 32h265v-59h-84v-254q0 -71 9 -99q9 -29 29 -29
q24 0 42 57z" />
    <glyph glyph-name="figuredash" unicode="&#x2012;" 
d="M-6 189h459v-32h-459v32z" />
    <glyph glyph-name="endash" unicode="&#x2013;" horiz-adv-x="500" 
d="M-6 188h512v-31h-512v31z" />
    <glyph glyph-name="emdash" unicode="&#x2014;" horiz-adv-x="1000" 
d="M-6 188h1012v-31h-1012v31z" />
    <glyph glyph-name="quoteleft" unicode="&#x2018;" horiz-adv-x="198" 
d="M163 660l17 -19q-69 -53 -69 -106q0 -6 11 -13q20 -13 20 -35q0 -17 -11.5 -28.5t-27.5 -11.5q-20 0 -32.5 14t-12.5 37q0 43 30 87t75 75z" />
    <glyph glyph-name="quoteright" unicode="&#x2019;" horiz-adv-x="198" 
d="M36 447l-17 19q69 53 69 106q0 6 -11 13q-20 13 -20 35q0 17 11.5 28.5t27.5 11.5q20 0 32.5 -14t12.5 -37q0 -43 -30 -87t-75 -75z" />
    <glyph glyph-name="quotesinglbase" unicode="&#x201a;" horiz-adv-x="198" 
d="M36 -147l-17 19q69 53 69 106q0 6 -11 13q-20 13 -20 35q0 17 11.5 28.5t27.5 11.5q20 0 32.5 -14t12.5 -37q0 -43 -30 -87t-75 -75z" />
    <glyph glyph-name="quotedblleft" unicode="&#x201c;" horiz-adv-x="339" 
d="M163 660l17 -19q-69 -53 -69 -106q0 -6 11 -13q20 -13 20 -35q0 -17 -11.5 -28.5t-27.5 -11.5q-20 0 -32.5 14t-12.5 37q0 43 30 87t75 75zM303 660l17 -19q-69 -53 -69 -106q0 -6 11 -13q20 -13 20 -35q0 -17 -11.5 -28.5t-27.5 -11.5q-20 0 -32.5 14t-12.5 37
q0 43 30 87t75 75z" />
    <glyph glyph-name="quotedblright" unicode="&#x201d;" horiz-adv-x="339" 
d="M176 447l-17 19q69 53 69 106q0 6 -11 13q-20 13 -20 35q0 17 11.5 28.5t27.5 11.5q20 0 32.5 -14t12.5 -37q0 -43 -30 -87t-75 -75zM36 447l-17 19q69 53 69 106q0 6 -11 13q-20 13 -20 35q0 17 11.5 28.5t27.5 11.5q20 0 32.5 -14t12.5 -37q0 -43 -30 -87t-75 -75z" />
    <glyph glyph-name="quotedblbase" unicode="&#x201e;" horiz-adv-x="339" 
d="M176 -147l-17 19q69 53 69 106q0 6 -11 13q-20 13 -20 35q0 17 11.5 28.5t27.5 11.5q20 0 32.5 -14t12.5 -37q0 -43 -30 -87t-75 -75zM36 -147l-17 19q69 53 69 106q0 6 -11 13q-20 13 -20 35q0 17 11.5 28.5t27.5 11.5q20 0 32.5 -14t12.5 -37q0 -43 -30 -87t-75 -75z
" />
    <glyph glyph-name="dagger" unicode="&#x2020;" horiz-adv-x="437" 
d="M251 533l-20 -136h-24l-21 136q-5 30 -5 52q0 30 10.5 48.5t27.5 18.5q16 0 26.5 -19t10.5 -48q0 -20 -5 -52zM373 342q-16 0 -38 5l-99 20v23l99 21q23 5 38 5q21 0 35 -10t14 -27t-14 -27t-35 -10zM103 347q-23 -5 -39 -5q-21 0 -35 10.5t-14 27.5q0 16 14 26t35 10
q15 0 39 -5l98 -20v-23zM219 -265q-13 0 -22 23t-12 59t-3.5 51.5t-0.5 29.5q0 50 5 130l21 333h24l20 -333q4 -61 4 -125q0 -168 -36 -168z" />
    <glyph glyph-name="daggerdbl" unicode="&#x2021;" horiz-adv-x="437" 
d="M373 -29q-16 0 -38 5l-99 20v24l99 20q22 5 38 5q22 0 35.5 -10t13.5 -28q0 -16 -14 -26t-35 -10zM103 -24l-10 -2.5t-9 -1.5q-6 -1 -20 -1q-20 0 -34.5 10t-14.5 26q0 17 14 27.5t35 10.5q13 0 19 -1q12 -2 20 -4l98 -20v-24zM251 533l-20 -136h-24l-21 136q-5 30 -5 52
q0 30 10.5 48.5t27.5 18.5q16 0 26.5 -19t10.5 -48q0 -20 -5 -52zM373 342q-15 0 -38 5l-99 21v23l99 20q22 5 38 5q20 0 34.5 -9.5t14.5 -26.5q0 -18 -13.5 -28t-35.5 -10zM103 347q-23 -5 -39 -5q-21 0 -35 10.5t-14 27.5q0 16 14 26t35 10q13 0 19 -1q12 -2 20 -4l98 -20
v-23zM231 38q-9 2 -12 2t-12 -2l-16 156l16 155q9 -2 12 -2t12 2l16 -155zM219 -265q-17 0 -27.5 19t-10.5 49q0 19 5 52l21 135h24l20 -135q5 -32 5 -53q0 -29 -10.5 -48t-26.5 -19z" />
    <glyph glyph-name="bullet" unicode="&#x2022;" horiz-adv-x="281" 
d="M141 210q-46 0 -78.5 33t-32.5 79q0 47 32.5 79.5t78.5 32.5q45 0 78 -32.5t33 -79.5q0 -46 -33 -79t-78 -33z" />
    <glyph glyph-name="onedotenleader" unicode="&#x2024;" horiz-adv-x="500" 
d="M250 68q16 0 28.5 -12.5t12.5 -28.5q0 -17 -12.5 -29t-28.5 -12q-17 0 -29 12t-12 29t12.5 29t28.5 12z" />
    <glyph glyph-name="twodotenleader" unicode="&#x2025;" horiz-adv-x="500" 
d="M126 68q16 0 28.5 -12.5t12.5 -28.5q0 -17 -12.5 -29t-28.5 -12q-17 0 -29 12t-12 29t12.5 29t28.5 12zM374 68q16 0 28.5 -12.5t12.5 -28.5q0 -17 -12.5 -29t-28.5 -12q-17 0 -29 12t-12 29t12.5 29t28.5 12z" />
    <glyph glyph-name="ellipsis" unicode="&#x2026;" horiz-adv-x="750" 
d="M127 68q16 0 28.5 -12.5t12.5 -28.5q0 -17 -12 -29t-29 -12t-29 12t-12 29t12 29t29 12zM623 68q16 0 28.5 -12.5t12.5 -28.5q0 -17 -12 -29t-29 -12t-29 12t-12 29t12 29t29 12zM375 68q16 0 28.5 -12.5t12.5 -28.5q0 -17 -12 -29t-29 -12t-29 12t-12 29t12 29t29 12z
" />
    <glyph glyph-name="perthousand" unicode="&#x2030;" horiz-adv-x="948" 
d="M208 439q0 109 -58 109q-72 0 -72 -141q0 -118 67 -118q25 0 40 22.5t19 52.5t4 75zM265 423q0 -76 -34 -116t-87 -40q-62 0 -92.5 40t-30.5 108q0 80 35.5 118t89.5 38q33 0 57.5 -13.5t35.5 -31t17.5 -42t7.5 -36.5t1 -25zM168 -25h-42l339 596h42zM928 150
q0 -76 -34 -116t-87 -40q-62 0 -92.5 40t-30.5 108q0 80 35.5 118t89.5 38q33 0 57.5 -13.5t35.5 -31t17.5 -42t7.5 -36.5t1 -25zM872 166q0 110 -58 110q-72 0 -72 -142q0 -117 68 -117q19 0 32 12t19.5 34.5t8.5 46t2 56.5zM614 150q0 -76 -34 -116t-87 -40
q-62 0 -92.5 40t-30.5 108q0 80 35.5 118t89.5 38q33 0 57.5 -13.5t35.5 -31t17.5 -42t7.5 -36.5t1 -25zM558 166q0 110 -58 110q-72 0 -72 -142q0 -117 68 -117q19 0 32 12t19.5 34.5t8.5 46t2 56.5z" />
    <glyph glyph-name="guilsinglleft" unicode="&#x2039;" horiz-adv-x="229" 
d="M211 23l-26 -23l-163 174l163 174l26 -22l-95 -152z" />
    <glyph glyph-name="guilsinglright" unicode="&#x203a;" horiz-adv-x="229" 
d="M18 23l95 151l-95 152l26 22l163 -174l-163 -174z" />
    <glyph glyph-name="fraction" unicode="&#x2044;" horiz-adv-x="104" 
d="M-96 -25h-43l340 596h42z" />
    <glyph glyph-name="zero.superior" unicode="&#x2070;" horiz-adv-x="264" 
d="M197 439q0 109 -58 109q-72 0 -72 -141q0 -118 67 -118q25 0 40 22.5t19 52.5t4 75zM254 423q0 -76 -34 -116t-87 -40q-62 0 -92.5 40t-30.5 108q0 80 35.5 118t89.5 38q33 0 57.5 -13.5t35.5 -31t17.5 -42t7.5 -36.5t1 -25z" />
    <glyph glyph-name="four.superior" unicode="&#x2074;" horiz-adv-x="264" 
d="M205 571v-178h57l-14 -39h-24q0 8 -7 8h-12v-44q0 -17 2 -20t13 -3h23l7 -22h-137l-5 22h21q16 0 19 4t3 23v40h-149v20l178 189h25zM49 393h102v107z" />
    <glyph glyph-name="five.superior" unicode="&#x2075;" horiz-adv-x="264" 
d="M90 267q-50 0 -89 28l22 33l22 -11q-4 -4 -4 -14q0 -5 15.5 -9t33.5 -4q36 0 60.5 24t24.5 60q0 76 -129 61v133h126q9 0 11 10h32q-5 -51 -33 -51h-99v-38q0 -4 0.5 -5.5t2 -3.5t5.5 -2.5t11 -0.5q61 0 93 -26t32 -65q0 -50 -40 -84.5t-97 -34.5z" />
    <glyph glyph-name="six.superior" unicode="&#x2076;" horiz-adv-x="264" 
d="M135 267q-55 0 -90.5 32.5t-35.5 83.5q0 46 39 87.5t88 65.5t98 35l8 -21q-74 -24 -114 -53t-62 -73q36 33 86 33q43 0 72.5 -26.5t29.5 -64.5q0 -41 -34.5 -70t-84.5 -29zM128 427q-35 0 -62 -32q0 -49 21.5 -77t55.5 -28q27 0 43.5 16.5t16.5 43.5q0 31 -22 54t-53 23z
" />
    <glyph glyph-name="seven.superior" unicode="&#x2077;" horiz-adv-x="264" 
d="M240 531l-2 -3l-115 -207l-2 -4q-3 -6 -11 -20.5t-12 -23.5h-64l5 18q31 3 52 40l110 196h-128q-27 0 -44 -9h-30l35 50h229v-13q-15 -8 -23 -24z" />
    <glyph glyph-name="eight.superior" unicode="&#x2078;" horiz-adv-x="264" 
d="M132 267q-52 0 -83 23t-31 61q0 25 16 43.5t56 38.5q-58 31 -58 70q0 26 24.5 47t77.5 21q43 0 70 -17t27 -44q0 -36 -60 -66q74 -37 74 -93q0 -37 -31.5 -60.5t-81.5 -23.5zM131 548q-53 0 -53 -36t66 -55q41 23 41 50q0 17 -13 29t-41 12zM199 340q0 49 -78 80
q-53 -24 -53 -71q0 -27 18.5 -43t49.5 -16q29 0 46 14t17 36z" />
    <glyph glyph-name="nine.superior" unicode="&#x2079;" horiz-adv-x="264" 
d="M129 571q55 0 90.5 -32.5t35.5 -83.5q0 -46 -39 -87.5t-88 -65.5t-98 -35l-8 21q74 24 114 53t62 73q-36 -33 -86 -33q-43 0 -72.5 26.5t-29.5 64.5q0 41 34.5 70t84.5 29zM136 411q35 0 62 32q0 49 -21.5 77t-55.5 28q-27 0 -43.5 -16.5t-16.5 -43.5q0 -31 22 -54
t53 -23z" />
    <glyph glyph-name="parenleft.superior" unicode="&#x207d;" horiz-adv-x="190" 
d="M157 701l20 -23q-83 -126 -83 -258q0 -142 83 -266l-18 -17q-122 122 -122 283q0 146 120 281z" />
    <glyph glyph-name="parenright.superior" unicode="&#x207e;" horiz-adv-x="190" 
d="M33 137l-20 23q83 126 83 258q0 142 -83 266l18 17q122 -122 122 -283q0 -146 -120 -281z" />
    <glyph glyph-name="n.superior" unicode="&#x207f;" horiz-adv-x="311" 
d="M303 258h-114l-8 23h4q1 0 3 1h1h1h1q13 0 17.5 4t4.5 17v83q0 69 -56 69q-34 0 -61 -27q2 -9 2 -27v-88q0 -20 4 -26t18 -6h26l-7 -23h-121l-5 23h11q12 0 16 5.5t4 21.5v83q0 19 -5 24.5t-26 7.5v13q32 25 44 44h15q11 -9 17 -26l3 2q34 24 78 24q48 0 72.5 -24
t24.5 -62v-82q0 -20 5 -25.5t19 -5.5h20z" />
    <glyph glyph-name="zero.inferior" unicode="&#x2080;" horiz-adv-x="264" 
d="M197 166q0 109 -58 109q-72 0 -72 -141q0 -118 67 -118q25 0 40 22.5t19 52.5t4 75zM254 150q0 -76 -34 -116t-87 -40q-62 0 -92.5 40t-30.5 108q0 80 35.5 118t89.5 38q33 0 57.5 -13.5t35.5 -31t17.5 -42t7.5 -36.5t1 -25z" />
    <glyph glyph-name="one.inferior" unicode="&#x2081;" horiz-adv-x="264" 
d="M69 248v20q28 2 40.5 8.5t24.5 21.5h23v-257q0 -12 4 -15.5t17 -3.5h19l5 -22h-139v22h23q10 0 14 4.5t4 16.5v176q0 17 -6.5 23t-28.5 6z" />
    <glyph glyph-name="two.inferior" unicode="&#x2082;" horiz-adv-x="264" 
d="M230 64l26 -4l-27 -60h-229v14q100 81 134.5 119t34.5 76q0 24 -16.5 41t-41.5 17q-32 0 -62 -39l-22 13q40 57 99 57q43 0 70.5 -24t27.5 -51q0 -31 -23.5 -64.5t-49 -56t-77.5 -61.5h105q20 0 28.5 4.5t22.5 18.5z" />
    <glyph glyph-name="three.inferior" unicode="&#x2083;" horiz-adv-x="264" 
d="M4 25l22 32l24 -9q-5 -10 -5 -12q0 -3 5 -7t15.5 -8t23.5 -4q36 0 63 25.5t27 61.5q0 19 -10 35t-35 16q-11 0 -46 -12l-10 22q76 32 76 69q0 13 -9 22t-22 9q-27 0 -63 -34l-18 17q35 50 94 50q32 0 51 -16.5t19 -37.5q0 -33 -41 -60q35 -6 52.5 -27t17.5 -49
q0 -45 -41.5 -79.5t-102.5 -34.5q-45 0 -87 31z" />
    <glyph glyph-name="four.inferior" unicode="&#x2084;" horiz-adv-x="264" 
d="M205 298v-178h57l-14 -39h-24q0 8 -7 8h-12v-44q0 -17 2 -20t13 -3h23l7 -22h-137l-5 22h21q16 0 19 4t3 23v40h-149v20l178 189h25zM49 120h102v107z" />
    <glyph glyph-name="five.inferior" unicode="&#x2085;" horiz-adv-x="264" 
d="M90 -6q-50 0 -89 28l22 33l22 -11q-4 -4 -4 -14q0 -5 15.5 -9t33.5 -4q36 0 60.5 24t24.5 60q0 76 -129 61v133h126q9 0 11 10h32q-5 -51 -33 -51h-99v-38q0 -4 0.5 -5.5t2 -3.5t5.5 -2.5t11 -0.5q61 0 93 -26t32 -65q0 -50 -40 -84.5t-97 -34.5z" />
    <glyph glyph-name="six.inferior" unicode="&#x2086;" horiz-adv-x="264" 
d="M135 -6q-55 0 -90.5 32.5t-35.5 83.5q0 46 39 87.5t88 65.5t98 35l8 -21q-74 -24 -114 -53t-62 -73q36 33 86 33q43 0 72.5 -26.5t29.5 -64.5q0 -41 -34.5 -70t-84.5 -29zM128 154q-35 0 -62 -32q0 -49 21.5 -77t55.5 -28q27 0 43.5 16.5t16.5 43.5q0 31 -22 54t-53 23z
" />
    <glyph glyph-name="seven.inferior" unicode="&#x2087;" horiz-adv-x="264" 
d="M240 258l-2 -3l-115 -207l-2 -4q-3 -6 -11 -20.5t-12 -23.5h-64l5 18q31 3 52 40l110 196h-128q-27 0 -44 -9h-30l35 50h229v-13q-15 -8 -23 -24z" />
    <glyph glyph-name="eight.inferior" unicode="&#x2088;" horiz-adv-x="264" 
d="M132 -6q-52 0 -83 23t-31 61q0 25 16 43.5t56 38.5q-58 31 -58 70q0 26 24.5 47t77.5 21q43 0 70 -17t27 -44q0 -36 -60 -66q74 -37 74 -93q0 -37 -31.5 -60.5t-81.5 -23.5zM131 275q-53 0 -53 -36t66 -55q41 23 41 50q0 17 -13 29t-41 12zM199 67q0 49 -78 80
q-53 -24 -53 -71q0 -27 18.5 -43t49.5 -16q29 0 46 14t17 36z" />
    <glyph glyph-name="nine.inferior" unicode="&#x2089;" horiz-adv-x="264" 
d="M129 298q55 0 90.5 -32.5t35.5 -83.5q0 -46 -39 -87.5t-88 -65.5t-98 -35l-8 21q74 24 114 53t62 73q-36 -33 -86 -33q-43 0 -72.5 26.5t-29.5 64.5q0 41 34.5 70t84.5 29zM136 138q35 0 62 32q0 49 -21.5 77t-55.5 28q-27 0 -43.5 -16.5t-16.5 -43.5q0 -31 22 -54
t53 -23z" />
    <glyph glyph-name="parenleft.inferior" unicode="&#x208d;" horiz-adv-x="190" 
d="M157 423l20 -23q-83 -126 -83 -258q0 -146 83 -266l-18 -17q-122 122 -122 283q0 77 35 153t85 128z" />
    <glyph glyph-name="parenright.inferior" unicode="&#x208e;" horiz-adv-x="190" 
d="M33 -141l-20 23q83 126 83 258q0 142 -83 266l18 17q122 -122 122 -283q0 -146 -120 -281z" />
    <glyph glyph-name="colonmonetary" unicode="&#x20a1;" horiz-adv-x="638" 
d="M330 41q41 -18 87 -18q102 0 175 87h23l-23 -95h-17q-7 11 -15 11q-6 0 -20 -4q-52 -19 -81.5 -24.5t-74.5 -5.5q-33 0 -66 4l-39 -139l-30 6l38 139q-41 9 -78 26l-48 -171l-30 6l50 181q-62 44 -101.5 115.5t-39.5 164.5q0 71 28 133t73.5 103t100 65.5t108.5 26.5
l38 136l30 -12l-34 -123q35 -1 81 -12l41 147l30 -12l-40 -142q4 0 7.5 -0.5t4.5 -0.5q23 0 32 16h16l55 -122h-25q-45 46 -100 71zM302 55l154 554q-46 12 -81 12l-143 -512q35 -36 70 -54zM341 619q-100 -13 -155.5 -82t-55.5 -170q0 -131 77 -230z" />
    <glyph glyph-name="Euro" unicode="&#x20ac;" 
d="M364 252l-9 -36h-226q15 -98 59.5 -148t95.5 -50q34 0 65.5 20t52.5 56h22l-9 -64q-20 -13 -31 -19t-42.5 -14t-72.5 -8q-84 0 -140 67t-72 160h-46l9 36h33q0 3 -0.5 10.5t-0.5 10.5q0 23 1 35h-42l9 36h38q16 99 71 163t133 64q17 0 48.5 -8.5t37.5 -8.5q15 0 21 14h18
l34 -110h-23q-55 83 -137 83q-49 0 -90 -46t-48 -151h267l-9 -36h-259q0 -38 2 -56h240z" />
    <glyph glyph-name="afii61289" unicode="&#x2113;" horiz-adv-x="359" 
d="M344 100q-44 -112 -128 -112q-44 0 -74 28q-36 35 -36 109v95q-21 -28 -56 -65l-21 24q57 63 77 92v245q0 87 30 141.5t82 54.5q41 0 61.5 -27.5t20.5 -72.5q0 -97 -72 -229q-38 -68 -54 -86v-175q0 -46 16.5 -70t40.5 -24q48 0 83 86zM267 611q0 68 -45 68
q-21 0 -34.5 -31t-13.5 -95v-196q10 15 33 58q60 112 60 196z" />
    <glyph glyph-name="trademark" unicode="&#x2122;" horiz-adv-x="906" 
d="M98 249v16q36 -1 46.5 12.5t10.5 66.5v276h-45q-36 0 -54.5 -12t-23.5 -56h-12v92h329v-92h-12q-5 41 -20 54.5t-57 13.5h-45v-276q0 -53 10.5 -66.5t46.5 -12.5v-16h-174zM384 644h116l144 -310l140 310h111v-16q-38 -2 -47 -12.5t-9 -51.5v-230q0 -44 9.5 -56t46.5 -13
v-16h-169v16q38 0 48 12t10 57v251l-152 -336h-8l-157 329v-247q0 -45 8 -55.5t49 -10.5v-16h-140v16q40 0 48 11.5t8 57.5v223q0 42 -8.5 54.5t-47.5 16.5v16z" />
    <glyph glyph-name="Omega" unicode="&#x2126;" horiz-adv-x="618" 
d="M576 0h-211v109q64 38 96 118.5t32 164.5q0 128 -46 208t-137 80q-92 0 -139 -80t-47 -209q0 -89 35.5 -173t98.5 -112v-106h-215v128h21q0 -26 2.5 -39.5t15.5 -23.5t38 -10h102v31q-72 33 -121.5 116t-49.5 186q0 153 72 238.5t187 85.5q117 0 187.5 -92.5t70.5 -221.5
q0 -56 -16.5 -114t-55.5 -113.5t-95 -82.5v-33h98q25 0 37.5 10t15 23t2.5 40h22v-128z" />
    <glyph glyph-name="estimated" unicode="&#x212e;" horiz-adv-x="613" 
d="M576 272h-420v-197q63 -61 150 -61q132 0 207 128l27 -15q-47 -70 -101.5 -104.5t-132.5 -34.5q-120 0 -193 81t-73 203t72 203t193 81q123 0 194.5 -80t76.5 -204zM455 299v167q-62 64 -151 64q-88 0 -148 -62v-169h299z" />
    <glyph glyph-name="onethird" unicode="&#x2153;" horiz-adv-x="632" 
d="M374 25l22 32l24 -9q-5 -10 -5 -12q0 -3 5 -7t15.5 -8t23.5 -4q36 0 63 25.5t27 61.5q0 19 -10 35t-35 16q-11 0 -46 -12l-10 22q76 32 76 69q0 13 -9 22t-22 9q-27 0 -63 -34l-18 17q35 50 94 50q32 0 51 -16.5t19 -37.5q0 -33 -41 -60q35 -6 52.5 -27t17.5 -49
q0 -45 -41.5 -79.5t-102.5 -34.5q-45 0 -87 31zM69 521v20q28 2 40.5 8.5t24.5 21.5h23v-257q0 -12 4 -15.5t17 -3.5h19l5 -22h-139v22h23q10 0 14 4.5t4 16.5v176q0 17 -6.5 23t-28.5 6zM168 -25h-42l339 596h42z" />
    <glyph glyph-name="twothirds" unicode="&#x2154;" horiz-adv-x="632" 
d="M374 25l22 32l24 -9q-5 -10 -5 -12q0 -3 5 -7t15.5 -8t23.5 -4q36 0 63 25.5t27 61.5q0 19 -10 35t-35 16q-11 0 -46 -12l-10 22q76 32 76 69q0 13 -9 22t-22 9q-27 0 -63 -34l-18 17q35 50 94 50q32 0 51 -16.5t19 -37.5q0 -33 -41 -60q35 -6 52.5 -27t17.5 -49
q0 -45 -41.5 -79.5t-102.5 -34.5q-45 0 -87 31zM230 337l26 -4l-27 -60h-229v14q100 81 134.5 119t34.5 76q0 24 -16.5 41t-41.5 17q-32 0 -62 -39l-22 13q40 57 99 57q43 0 70.5 -24t27.5 -51q0 -31 -23.5 -64.5t-49 -56t-77.5 -61.5h105q20 0 28.5 4.5t22.5 18.5zM190 -25
h-42l339 596h42z" />
    <glyph glyph-name="oneeighth" unicode="&#x215b;" horiz-adv-x="632" 
d="M501 -6q-52 0 -83 23t-31 61q0 25 16 43.5t56 38.5q-58 31 -58 70q0 26 24.5 47t77.5 21q43 0 70 -17t27 -44q0 -36 -60 -66q74 -37 74 -93q0 -37 -31.5 -60.5t-81.5 -23.5zM500 275q-53 0 -53 -36t66 -55q41 23 41 50q0 17 -13 29t-41 12zM568 67q0 49 -78 80
q-53 -24 -53 -71q0 -27 18.5 -43t49.5 -16q29 0 46 14t17 36zM69 521v20q28 2 40.5 8.5t24.5 21.5h23v-257q0 -12 4 -15.5t17 -3.5h19l5 -22h-139v22h23q10 0 14 4.5t4 16.5v176q0 17 -6.5 23t-28.5 6zM168 -25h-42l339 596h42z" />
    <glyph glyph-name="threeeighths" unicode="&#x215c;" horiz-adv-x="632" 
d="M501 -6q-52 0 -83 23t-31 61q0 25 16 43.5t56 38.5q-58 31 -58 70q0 26 24.5 47t77.5 21q43 0 70 -17t27 -44q0 -36 -60 -66q74 -37 74 -93q0 -37 -31.5 -60.5t-81.5 -23.5zM500 275q-53 0 -53 -36t66 -55q41 23 41 50q0 17 -13 29t-41 12zM4 298l22 32l24 -9
q-5 -10 -5 -12q0 -3 5 -7t15.5 -8t23.5 -4q36 0 63 25.5t27 61.5q0 19 -10 35t-35 16q-11 0 -46 -12l-10 22q76 32 76 69q0 13 -9 22t-22 9q-27 0 -63 -34l-18 17q35 50 94 50q32 0 51 -16.5t19 -37.5q0 -33 -41 -60q35 -6 52.5 -27t17.5 -49q0 -45 -41.5 -79.5
t-102.5 -34.5q-45 0 -87 31zM568 67q0 49 -78 80q-53 -24 -53 -71q0 -27 18.5 -43t49.5 -16q29 0 46 14t17 36zM159 -25h-42l339 596h42z" />
    <glyph glyph-name="fiveeighths" unicode="&#x215d;" horiz-adv-x="632" 
d="M501 -6q-52 0 -83 23t-31 61q0 25 16 43.5t56 38.5q-58 31 -58 70q0 26 24.5 47t77.5 21q43 0 70 -17t27 -44q0 -36 -60 -66q74 -37 74 -93q0 -37 -31.5 -60.5t-81.5 -23.5zM500 275q-53 0 -53 -36t66 -55q41 23 41 50q0 17 -13 29t-41 12zM568 67q0 49 -78 80
q-53 -24 -53 -71q0 -27 18.5 -43t49.5 -16q29 0 46 14t17 36zM90 267q-50 0 -89 28l22 33l22 -11q-4 -4 -4 -14q0 -5 15.5 -9t33.5 -4q36 0 60.5 24t24.5 60q0 76 -129 61v133h126q9 0 11 10h32q-5 -51 -33 -51h-99v-38q0 -4 0.5 -5.5t2 -3.5t5.5 -2.5t11 -0.5q61 0 93 -26
t32 -65q0 -50 -40 -84.5t-97 -34.5zM152 -25h-42l339 596h42z" />
    <glyph glyph-name="seveneighths" unicode="&#x215e;" horiz-adv-x="632" 
d="M501 -6q-52 0 -83 23t-31 61q0 25 16 43.5t56 38.5q-58 31 -58 70q0 26 24.5 47t77.5 21q43 0 70 -17t27 -44q0 -36 -60 -66q74 -37 74 -93q0 -37 -31.5 -60.5t-81.5 -23.5zM500 275q-53 0 -53 -36t66 -55q41 23 41 50q0 17 -13 29t-41 12zM568 67q0 49 -78 80
q-53 -24 -53 -71q0 -27 18.5 -43t49.5 -16q29 0 46 14t17 36zM240 531l-2 -3l-115 -207l-2 -4q-3 -6 -11 -20.5t-12 -23.5h-64l5 18q31 3 52 40l110 196h-128q-27 0 -44 -9h-30l35 50h229v-13q-15 -8 -23 -24zM140 -25h-42l339 596h42z" />
    <glyph glyph-name="partialdiff" unicode="&#x2202;" horiz-adv-x="441" 
d="M412 473q0 -149 -47 -275q-38 -100 -82 -156t-110 -56q-72 0 -109 58t-37 138q0 117 57.5 200.5t151.5 83.5q51 0 84.5 -27.5t44.5 -60.5h2q3 56 3 82q0 51 -10.5 94t-40 76t-74.5 33q-78 0 -135 -77l-16 17q20 31 38.5 52.5t54.5 41.5t78 20q147 0 147 -244zM359 326
q-10 40 -37.5 72.5t-75.5 32.5q-63 0 -107 -75.5t-44 -185.5q0 -72 27.5 -110t69.5 -38q32 0 60.5 28t49 74.5t34.5 97t23 104.5z" />
    <glyph glyph-name="Delta" unicode="&#x2206;" horiz-adv-x="523" 
d="M506 0h-487l222 712h50zM425 39l-175 556l-182 -556h357z" />
    <glyph glyph-name="product" unicode="&#x220f;" horiz-adv-x="605" 
d="M572 -131h-199v22h17q31 0 40 18.5t9 55.5v701h-274v-701q0 -37 9 -55.5t39 -18.5h17v-22h-198v22h16q31 0 40 18.5t9 55.5v639q0 38 -9 56t-40 18h-16v22h540v-22h-15q-31 0 -40 -18t-9 -56v-639q0 -37 9 -55.5t39 -18.5h16v-22z" />
    <glyph glyph-name="summation" unicode="&#x2211;" horiz-adv-x="490" 
d="M473 7l-11 -138h-449l-1 26l232 390l-224 391v24h427l7 -124h-19q-4 52 -16.5 70.5t-54.5 18.5h-268l203 -347l-231 -388h308q43 0 56.5 15.5t20.5 65.5z" />
    <glyph glyph-name="minus" unicode="&#x2212;" 
d="M33 304h393v-48h-393v48z" />
    <glyph glyph-name="uni2215" unicode="&#x2215;" horiz-adv-x="104" 
d="M-96 -25h-43l340 596h42z" />
    <glyph glyph-name="uni2219" unicode="&#x2219;" horiz-adv-x="188" 
d="M94 324q18 0 31 -13t13 -31q0 -19 -13 -31.5t-31 -12.5q-19 0 -31.5 12.5t-12.5 31.5q0 18 13 31t31 13z" />
    <glyph glyph-name="radical" unicode="&#x221a;" horiz-adv-x="374" 
d="M283 728l-73 -740h-46l-98 342l-48 -32l-17 27l97 64l88 -315h2l64 654h31z" />
    <glyph glyph-name="infinity" unicode="&#x221e;" horiz-adv-x="649" 
d="M470 144q-51 0 -83.5 26t-58.5 73h-1q-58 -99 -143 -99q-56 0 -92.5 38.5t-36.5 97.5q0 60 35 99t91 39q91 0 137 -96h2q29 46 62 71t84 25q54 0 90.5 -37.5t36.5 -97.5q0 -59 -36 -99t-87 -40zM471 381q-19 0 -35 -6.5t-25 -12t-24 -25.5t-19.5 -26.5t-22.5 -36.5
q47 -93 124 -93q43 0 67 29.5t24 69.5q0 44 -22 72.5t-67 28.5zM183 381q-43 0 -69.5 -27t-26.5 -73q0 -45 24.5 -72.5t68.5 -27.5q22 0 41 10.5t35 31t24.5 33.5t20.5 36q-17 37 -47 63t-71 26z" />
    <glyph glyph-name="integral" unicode="&#x222b;" horiz-adv-x="231" 
d="M217 702q0 -10 -5.5 -18.5t-15.5 -8.5t-23 10q-16 12 -25 12q-21 0 -22 -46q-1 -17 4 -66.5t7 -90.5q8 -118 8 -241q0 -136 -4 -219q-9 -133 -18 -171q-10 -37 -24.5 -55.5t-40.5 -18.5q-19 0 -34.5 12t-15.5 31q0 13 7 21.5t19 8.5q9 0 21 -13q6 -9 19 -9q23 0 24 82
q1 9 -10 113q-7 116 -7 217q0 60 4 208q4 162 13 214q13 74 63 74q24 0 40 -14t16 -32z" />
    <glyph glyph-name="approxequal" unicode="&#x2248;" 
d="M423 417q-23 -108 -107 -108q-42 0 -100 39q-40 27 -67 27q-29 0 -45 -17t-30 -53l-32 15q22 107 109 107q41 0 93 -35q44 -30 76 -30q25 0 40.5 17t29.5 52zM423 236q-23 -108 -107 -108q-42 0 -100 39q-38 26 -67 26t-45 -16.5t-30 -52.5l-32 15q22 107 109 107
q41 0 93 -35q44 -30 76 -30q25 0 40.5 17t29.5 52z" />
    <glyph glyph-name="notequal" unicode="&#x2260;" horiz-adv-x="453" 
d="M413 162h-208l-61 -158h-48l61 158h-111v48h129l53 134h-182v48h200l63 163h48l-62 -163h118v-48h-137l-53 -134h190v-48z" />
    <glyph glyph-name="lessequal" unicode="&#x2264;" 
d="M413 0h-367v48h367v-48zM413 100l-367 183v41l367 184v-54l-307 -150l307 -150v-54z" />
    <glyph glyph-name="greaterequal" unicode="&#x2265;" 
d="M413 0h-367v48h367v-48zM413 283l-367 -183v53l306 150l-306 151v54l367 -184v-41z" />
    <glyph glyph-name="lozenge" unicode="&#x25ca;" horiz-adv-x="357" 
d="M345 349l-149 -361h-40l-144 361l144 363h40zM304 349l-128 310l-122 -310l122 -310z" />
    <glyph glyph-name="H_E" unicode="&#xe000;" horiz-adv-x="1036" 
d="M1007 0h-487v18q57 5 73.5 19.5t16.5 61.5v197h-428v-205q0 -41 20.5 -54.5t72.5 -18.5v-18h-237v18q36 2 51.5 17.5t15.5 49.5v473q0 36 -15.5 51t-51.5 17v18h231v-18q-29 -1 -41.5 -2.5t-25.5 -8.5t-16.5 -21.5t-3.5 -40.5v-218h428v215q0 38 -20 54.5t-60 21.5v18
h427v-115h-20q-17 81 -115 81h-135v-271h145q29 0 41 7t27 32h17v-123h-17q-7 26 -23 38t-48 12h-142v-271h194q84 0 108 99h18v-133z" />
    <glyph glyph-name="L_A" unicode="&#xe001;" horiz-adv-x="1091" 
d="M1087 0h-235v18q26 5 38.5 9t20 13t5.5 21.5t-12 35.5l-66 156h-225l-59 -148q-8 -20 -10.5 -28.5t-3 -20.5t7.5 -17.5t24 -11t43 -9.5v-18h-582v18q35 5 54.5 19.5t19.5 47.5v478q0 26 -8.5 40t-31.5 22v19h193v-18q-46 -14 -61 -27.5t-15 -50.5v-510h218q43 0 63 8
t28.5 21t25.5 55l219 530h19l231 -559q17 -40 36 -54t63 -21v-18zM824 287l-99 243l-97 -243h196z" />
    <glyph glyph-name="L_E" unicode="&#xe002;" horiz-adv-x="941" 
d="M912 120h-373l-6 -120h-500v18q35 5 54.5 19.5t19.5 47.5v480q0 25 -8.5 38t-31.5 22v19h193v-18q-43 -11 -59.5 -25.5t-16.5 -51.5v-511h218q61 0 81 14t33 68h-88v18q55 5 72.5 18.5t17.5 62.5v319q0 43 -17 63.5t-63 24.5v18h424v-115h-20q-17 81 -115 81h-135v-211
h145q29 0 40.5 6.5t27.5 32.5h17v-123h-17q-13 50 -71 50h-142v-211h194q85 0 108 99h18v-133z" />
    <glyph glyph-name="L_F" unicode="&#xe003;" horiz-adv-x="880" 
d="M828 534q-9 38 -29 57t-59 19h-148v-181h103q29 0 39.5 8.5t16.5 31.5h18v-113h-18q-8 25 -18.5 32t-33.5 7h-107v-187q0 -40 21.5 -55t79.5 -15v-18h-154l-6 -120h-500v18q39 6 56.5 22t17.5 45v480q0 29 -8 39t-32 21v19h193v-18q-46 -15 -61 -26.5t-15 -39.5v-522h218
q65 0 84.5 17t30.5 65h-62v18q63 1 63 72v341q0 43 -20 56.5t-80 18.5v18h428v-110h-18z" />
    <glyph glyph-name="L_I" unicode="&#xe004;" horiz-adv-x="710" 
d="M671 120h-132l-6 -120h-500v18q37 5 55.5 21t18.5 55v471q0 26 -8 38.5t-32 21.5v19h193v-18q-20 -5 -28.5 -8t-22.5 -10.5t-19.5 -20t-5.5 -31.5v-518h218q61 0 81.5 15t32.5 67h-46v18q48 9 48 96v312q0 39 -10.5 58.5t-45.5 21.5v18h184v-18q-36 -2 -45 -11.5
t-9 -45.5v-351q0 -21 3.5 -34t7 -21t16 -13t21 -6.5l31.5 -5.5v-18z" />
    <glyph glyph-name="L_L" unicode="&#xe005;" horiz-adv-x="906" 
d="M882 230l-5 -108h-337l-7 -122h-500v18q35 5 54.5 19.5t19.5 47.5v480q0 26 -8 38.5t-32 21.5v19h193v-18q-3 -1 -11.5 -3.5t-11.5 -3.5l-10.5 -3.5t-10.5 -4.5t-8.5 -5t-8 -6l-6.5 -7.5t-5 -9t-2.5 -10.5t-1.5 -13v-522h218q60 0 81.5 14.5t34.5 69.5h-60v15q60 9 60 54
v389q0 21 -6.5 31.5t-25.5 17.5v15h170v-15q-3 -1 -10.5 -3t-10.5 -3t-9 -3.5t-9 -4.5t-7.5 -4.5t-6.5 -6l-4.5 -7.5t-3.5 -9.5t-1 -11.5v-416h177q52 0 67 13t27 57h17z" />
    <glyph glyph-name="L_L.alt" unicode="&#xe006;" horiz-adv-x="635" 
d="M611 290l-5 -108h-348v15q30 4 45 17.5t15 45.5v320q0 21 -6.5 31.5t-25.5 17.5v15h170v-15q-3 -1 -10.5 -3t-10.5 -3t-9 -3.5t-9 -4.5t-7.5 -4.5t-6.5 -6l-4.5 -7.5t-3.5 -9.5t-1 -11.5v-356h106q49 0 66 12.5t28 57.5h17zM611 123l-7 -123h-571v18q35 5 54.5 19.5
t19.5 47.5v480q0 26 -8 38.5t-32 21.5v19h193v-18q-3 -1 -11.5 -3.5t-11.5 -3.5l-10.5 -3.5t-10.5 -4.5t-8.5 -5t-8 -6l-6.5 -7.5t-5 -9t-2.5 -10.5t-1.5 -13v-522h289q60 0 81.5 15t34.5 70h22z" />
    <glyph glyph-name="L_O" unicode="&#xe007;" horiz-adv-x="981" 
d="M894 345q0 98 -79.5 175.5t-177.5 77.5q-79 0 -131.5 -49.5t-52.5 -127.5q0 -97 77 -179.5t174 -82.5q79 0 134.5 53.5t55.5 132.5zM542 141l-9 -141h-500v18q74 11 74 67v480q0 26 -8.5 39t-31.5 21v19h193v-18q-3 -1 -11.5 -3.5t-11.5 -3.5l-10.5 -3.5t-10.5 -4.5
t-8.5 -5t-8 -6l-6.5 -7.5t-5 -9t-2.5 -10.5t-1.5 -13v-522h218q23 0 40 1.5t29 8l18.5 10t12 17t7 19.5t6 27.5l6.5 30.5q-58 34 -89.5 92.5t-31.5 126.5q0 109 80 193t201 84q108 0 183 -76.5t75 -184.5q0 -117 -77.5 -195t-194.5 -78q-70 0 -125 27z" />
    <glyph glyph-name="L_T" unicode="&#xe008;" horiz-adv-x="731" 
d="M184 522v-484h289q60 0 81.5 15t34.5 70h22l-7 -123h-571v18q35 5 54.5 19.5t19.5 47.5v480q0 26 -9 38.5t-31 21.5v19h639l5 -108h-17q-11 45 -28 57.5t-66 12.5h-106v-356q0 -7 1.5 -13t3.5 -10t6.5 -8t7 -6t10 -5l10 -4t12 -3.5t11.5 -3.5v-15h-170v15q19 7 25.5 17.5
t6.5 31.5v360h-152q-44 0 -63 -19.5t-19 -64.5z" />
    <glyph glyph-name="L_U" unicode="&#xe009;" horiz-adv-x="1027" 
d="M989 626q-45 -7 -60 -19.5t-15 -55.5v-188q0 -128 -58 -189.5t-180 -61.5q-83 0 -132 38l-11 -150h-500v18q74 11 74 67v480q0 26 -8 38.5t-32 21.5v19h193v-18l-31.5 -10.5t-21.5 -10.5t-18.5 -18.5t-4.5 -26.5v-522h239q16 0 29 3t22 6.5t16 13t11 14.5t7.5 19.5
t4.5 20t4 24t4 23.5q-42 35 -62.5 91.5t-20.5 113.5v156q0 60 -8 79.5t-36 23.5v18h177v-18q-41 -5 -50 -18t-9 -66v-191q0 -33 8.5 -64.5t27 -61t54.5 -47.5t84 -18q104 0 145.5 52t41.5 157v189q0 41 -7 51.5t-46 16.5v18h169v-18z" />
    <glyph glyph-name="Q.alt" unicode="&#xe00a;" horiz-adv-x="750" 
d="M1229 -108q-6 -47 -61.5 -71.5t-141.5 -24.5q-174 0 -424 151q-6 3 -19.5 11.5l-18.5 11.5t-17 9t-20 8l-21 5t-28 4t-33 1q-1 0 -5 -0.5t-11 -1t-13 -0.5q-21 -3 -45 -3q-140 0 -234.5 89.5t-94.5 228.5q0 141 103 241.5t244 100.5q134 0 226.5 -94t92.5 -228
q0 -38 -9.5 -77.5t-30 -83t-60.5 -82t-93 -63.5q78 0 162 -32t142.5 -70.5t120 -70.5t98.5 -32q32 0 62.5 13t32.5 36q55 7 96 24zM659 278q0 122 -101.5 221t-222.5 99q-97 0 -166 -65t-69 -161q0 -120 99 -225.5t218 -105.5q110 0 176 74.5t66 162.5z" />
    <glyph glyph-name="R.alt" unicode="&#xe00b;" horiz-adv-x="583" 
d="M1069 -108q-3 -26 -24.5 -46t-53.5 -30t-63.5 -15t-61.5 -5q-71 0 -137.5 22t-122.5 62.5t-104.5 88.5t-93 111t-77 117.5t-66.5 119.5q-49 -11 -84 4v-225q0 -46 12.5 -58t59.5 -20v-18h-183v19q34 12 34 50v488q0 31 -9 46t-37 23v18h196q40 0 75.5 -6.5t69.5 -21.5
t54.5 -45.5t20.5 -72.5q0 -55 -37.5 -98t-92.5 -60q14 -22 35 -65t29 -57q60 -110 130.5 -193t163.5 -142q39 -25 54.5 -33.5t46.5 -18.5t63 -10q90 0 107 47q55 7 96 24zM392 475q0 67 -54.5 105t-130.5 38h-27v-269q32 -11 69 -6t69 18.5t53 44t21 69.5z" />
    <glyph glyph-name="T_E" unicode="&#xe00c;" horiz-adv-x="1069" 
d="M1040 0h-487v18q55 5 72.5 18.5t17.5 62.5v501h-276v-504q0 -44 20 -58.5t68 -19.5v-18h-226v18q22 2 34.5 7t18.5 17.5t7 23.5t1 35v499h-152q-48 0 -64 -15.5t-36 -67.5h-18v127h971v-115h-21q-17 81 -115 81h-135v-271h145q29 0 41 7t27 32h17v-123h-17q-13 50 -71 50
h-142v-271h194q85 0 108 99h18v-133z" />
    <glyph glyph-name="T_H" unicode="&#xe00d;" horiz-adv-x="1311" 
d="M1311 0h-217v18q32 3 43 16.5t11 46.5v216h-428v-206q0 -42 20.5 -55t72.5 -18v-18h-237v18q36 2 51.5 17.5t15.5 49.5v515h-276v-504q0 -44 20 -58.5t68 -19.5v-18h-226v18q22 2 34.5 7t18.5 17.5t7 23.5t1 35v499h-160q-70 0 -92 -83h-18v127h788v-18q-55 -1 -71.5 -15
t-16.5 -58v-218h428v218q0 46 -22.5 58.5t-73.5 14.5v18h242v-18q-48 -4 -58.5 -16.5t-10.5 -61.5v-455q0 -45 19.5 -59t66.5 -16v-18z" />
    <glyph glyph-name="T_T" unicode="&#xe00e;" horiz-adv-x="1073" 
d="M1053 517h-18q-15 46 -34 64.5t-63 18.5h-154v-504q0 -44 20 -58.5t68 -19.5v-18h-226v18q22 2 34.5 7t18.5 17.5t7 23.5t1 35v499h-340v-504q0 -44 20 -58.5t68 -19.5v-18h-226v18q22 2 34.5 7t18.5 17.5t7 23.5t1 35v499h-152q-48 0 -64 -15.5t-36 -67.5h-18v127h1033
v-127z" />
    <glyph glyph-name="T_U" unicode="&#xe00f;" horiz-adv-x="1231" 
d="M1218 626q-53 -6 -64 -22.5t-11 -74.5v-298q0 -106 -65.5 -172.5t-192.5 -66.5q-112 0 -186.5 64t-74.5 179v365h-257v-504q0 -44 20 -58.5t68 -19.5v-18h-226v18q22 1 35 6.5t18.5 18t6.5 23.5t1 35v499h-152q-47 0 -64 -16t-36 -67h-18v127h760v-18q-53 -8 -66 -26
t-13 -71v-284q0 -40 9.5 -74.5t30.5 -65t60.5 -48t93.5 -17.5q207 0 207 209v309q0 42 -7 52.5t-46 15.5v18h169v-18z" />
    <glyph glyph-name="T_W" unicode="&#xe010;" horiz-adv-x="1413" 
d="M1406 626q-39 -3 -57 -20t-37 -64l-229 -554h-16l-103 255l-111 -255h-17l-248 612h-221v-504q0 -44 20 -58.5t68 -19.5v-18h-226v18q39 3 50 18.5t11 56.5v507h-152q-13 0 -24.5 -2t-19 -4t-15 -8l-11 -9t-9 -13t-7 -13t-7 -16.5t-7.5 -17.5h-18v127h703v-18
q-33 -1 -42 -12.5t2 -39.5l185 -458l77 174l-109 271q-17 42 -30.5 51t-58.5 14v18h240v-18q-52 0 -67.5 -14t-0.5 -50l69 -174l76 170q18 40 10.5 53.5t-48.5 14.5v18h188v-18q-55 -5 -72.5 -16.5t-39.5 -60.5l-94 -209l89 -224l188 453q13 34 5.5 44.5t-45.5 12.5v18h161
v-18z" />
    <glyph glyph-name="T_Y" unicode="&#xe011;" horiz-adv-x="1183" 
d="M1179 626q-40 -2 -64 -18.5t-53 -64.5l-179 -293v-167q0 -35 14.5 -47t51.5 -18v-18h-209v18q36 3 51 16t15 43v137l-220 386h-219v-504q0 -44 20 -58.5t68 -19.5v-18h-226v18q39 3 50 18.5t11 56.5v507h-152q-44 0 -62 -15.5t-38 -67.5h-18v127h689v-18
q-30 0 -34.5 -10.5t12.5 -40.5l170 -299l185 301q14 22 10 34.5t-30 14.5v18h157v-18z" />
    <glyph glyph-name="c_t" unicode="&#xe012;" horiz-adv-x="670" 
d="M558 -14q-53 0 -76 29.5t-23 74.5v224h-75l13 31q82 6 95 122q-50 -20 -93 -20q-13 0 -61 5q-52 5 -55 5q-39 0 -57 -18t-18 -40q0 -23 18 -40q50 -4 80 -18.5t60 -47.5l-74 -39q-30 73 -93 73q-46 0 -75.5 -32t-29.5 -80q0 -65 47.5 -127.5t117.5 -62.5q48 0 86 24
l14 -18q-55 -45 -136 -45q-90 0 -139.5 54.5t-49.5 127.5q0 68 47 125t113 64q-12 29 -12 49q0 38 31.5 70.5t88.5 32.5q26 0 76 -10q32 -6 55 -6q43 0 72 20h22v-168h108l-15 -50h-20q-5 12 -8.5 15.5t-13.5 3.5h-51v-217q0 -71 50 -71q16 0 31.5 8t22 14t19.5 20l13 -25
q-27 -32 -50.5 -44.5t-54.5 -12.5z" />
    <glyph glyph-name="e.alt" unicode="&#xe013;" horiz-adv-x="494" 
d="M521 624l-44 -41q-28 -25 -57 -25q-25 0 -143 35q-56 17 -69 17q-16 0 -25.5 -9t-9.5 -23q0 -27 31 -49.5t104 -58.5q157 -77 157 -240q0 -61 -23.5 -110t-61.5 -77t-79.5 -42.5t-81.5 -14.5q-47 0 -84 17.5t-58.5 45.5t-32 59.5t-10.5 62.5q0 73 51 130.5t129 57.5
q65 0 109 -40.5t51 -105.5l-283 -14q7 -46 28.5 -80.5t49.5 -50.5t52.5 -23.5t45.5 -7.5q74 0 121.5 47t47.5 106q0 35 -13 69.5t-28.5 59t-47 55t-50 45.5l-54.5 43q-12 10 -18 14q-42 33 -59 56.5t-17 47.5q0 30 22 51t63 21q31 0 99.5 -11.5t92.5 -11.5q29 0 95 15v-20z
M194 324q-32 0 -64.5 -24t-38.5 -72l201 11q-23 85 -98 85z" />
    <glyph glyph-name="e_d" unicode="&#xe014;" horiz-adv-x="879" 
d="M865 298q0 -130 -72.5 -214t-174.5 -98v23q-38 -23 -93 -23q-80 0 -135 55q-48 -31 -83 -43t-78 -12q-78 0 -136.5 51t-58.5 135q0 78 50.5 132.5t122.5 54.5q58 0 95.5 -31t48.5 -88l-252 -46q8 -77 55.5 -127t105.5 -50q48 0 111 43q-28 40 -28 93q0 81 59.5 143.5
t137.5 62.5q44 0 77 -16v92q0 17 -1.5 21.5t-9.5 4.5q-9 0 -24 -4v23q61 27 87 71h16v-525q72 34 115 111t43 160q0 75 -30 139t-78.5 104.5t-106 63t-114.5 22.5q-103 0 -164 -66l-28 -30q-9 -10 -14 -10q-8 0 -17 8.5t-9 16.5q0 15 29 38q86 69 200 69q59 0 120 -23.5
t114 -66t86.5 -112t33.5 -152.5zM617 300h1q-35 28 -89 28q-59 0 -93 -37.5t-34 -92.5q0 -65 46.5 -119.5t116.5 -54.5q29 0 52 12v264zM193 328q-35 0 -61 -24.5t-33 -75.5l178 33q-9 34 -32.5 50.5t-51.5 16.5z" />
    <glyph glyph-name="e_t" unicode="&#xe015;" horiz-adv-x="671" 
d="M234 357q100 -13 145 -141l-280 -25q7 -70 49 -120.5t114 -50.5q55 0 103 34v-20q-57 -48 -135 -48q-97 0 -146.5 52.5t-49.5 130.5q0 74 44 129t121 60q-16 23 -16 48q0 38 31.5 70.5t88.5 32.5q26 0 76 -10q32 -6 55 -6q43 0 72 20h22v-168h108l-15 -50h-20
q-5 12 -8.5 15.5t-13.5 3.5h-51v-208q0 -38 10 -59t40 -21q34 0 75 41l11 -24q-27 -32 -50.5 -44.5t-54.5 -12.5q-50 0 -74.5 28t-24.5 76v224h-75l13 31q82 6 95 122q-50 -20 -93 -20q-13 0 -61 5q-52 5 -55 5q-39 0 -57 -17.5t-18 -40.5t25 -42zM192 325q-35 0 -62 -22.5
t-32 -77.5l193 17q-30 83 -99 83z" />
    <glyph glyph-name="f_r" unicode="&#xe016;" horiz-adv-x="592" 
d="M530 262q-12 44 -44 44q-33 0 -76 -46v-179q0 -29 8 -39.5t31 -10.5h30l-6 -31h-181v31h16.5t12.5 1.5t12 5t6 10.5t3 17v201q0 31 -8.5 39.5t-38.5 8.5h-141v-234q0 -27 9 -38t37 -11h41l-7 -31h-202l-4 31h18q25 0 32.5 12t7.5 53v218h-38l12 31h25q0 141 73 224
t177 83q87 0 87 -28q0 -5 -7 -12q-22 -20 -39 -20q-8 0 -30 16t-44 16q-51 0 -99.5 -60.5t-48.5 -159.5v-59h169q41 0 72 23h15v-68q36 36 58.5 47.5t46.5 11.5q56 0 75 -62z" />
    <glyph glyph-name="f_u" unicode="&#xe017;" horiz-adv-x="704" 
d="M698 61q-17 -10 -40 -28q-22 -18 -51 -45h-9q-15 13 -24 28l-5 11q-41 -24 -68.5 -32.5t-63.5 -8.5q-81 0 -111.5 38t-30.5 103v142q0 25 -10.5 35t-36.5 10h-94v-234q0 -30 9 -39.5t37 -9.5h41l-7 -31h-202l-4 31h18q25 0 32.5 12t7.5 53v218h-38l12 31h25v40q0 37 5 69
t22.5 70t46 65t80.5 45t121 18q97 0 97 -28q0 -6 -7 -12q-28 -20 -39 -20q-5 0 -33 16t-59 16q-85 0 -125 -53.5t-40 -141.5v-84h209v-223q0 -52 23 -78.5t76 -26.5t98 38q-5 19 -5 49v154q0 37 -11 46.5t-46 9.5l6 31h119v-218q0 -62 22 -62q10 0 37 16l4 3z" />
    <glyph glyph-name="germandbls.alt" unicode="&#xe018;" horiz-adv-x="397" 
d="M260 -14q-31 0 -57 26q-9 7 -9 13q0 5 6 9l46 33q-4 -23 6 -37t25 -14q16 0 28 12.5t12 29.5q0 21 -13 44t-47 67t-44 64.5t-10 47.5q0 60 55 89q-16 16 -30 23t-39 7q-42 0 -72 -25.5t-30 -89.5q0 -53 35 -139l32 -80q32 -80 32 -133q0 -87 -63 -149t-151 -62
q-18 0 -18 11q0 6 9 15q0 1 5 6l12 15q11 11 18 11q1 0 17.5 -3.5t24.5 -3.5q41 0 68.5 31.5t27.5 77.5q0 30 -9.5 60t-42.5 103q-44 98 -44 174q0 92 48 155.5t125 63.5q86 0 134 -79v-13q-29 15 -45 15q-19 0 -33.5 -15.5t-14.5 -35.5q0 -18 10 -34t50 -62q55 -64 55 -111
q0 -41 -34 -79t-75 -38z" />
    <glyph glyph-name="k.alt" unicode="&#xe019;" horiz-adv-x="478" 
d="M461 0h-112l-159 214l-39 -24v-110q0 -29 9.5 -39t35.5 -10h43l-7 -31h-195l-9 31h8q27 0 36 10t9 39v437q0 31 -8 42.5t-36 18.5v20q60 17 91 62h23v-419l158 104h92l5 -31h-21q-34 0 -65 -18l-7 -5l-74 -47l121 -156q24 -30 45 -41.5t67 -15.5z" />
    <glyph glyph-name="orn.001" unicode="&#xe01a;" horiz-adv-x="340" 
d="M296 272l16 -44q-61 -6 -120 29q-48 28 -62 34.5t-30 6.5q-40 0 -72 -36q0 40 11 58q25 44 82 44q14 0 30 -4q7 26 28.5 41.5t51.5 15.5q32 0 70 -28q-85 0 -85 -56q0 -50 80 -61z" />
    <glyph glyph-name="orn.002" unicode="&#xe01b;" horiz-adv-x="340" 
d="M44 272l-16 -44q61 -6 120 29q48 28 62 34.5t30 6.5q40 0 72 -36q0 40 -11 58q-27 44 -82 44q-14 0 -30 -4q-7 26 -28.5 41.5t-51.5 15.5q-32 0 -70 -28q85 0 85 -56q0 -50 -80 -61z" />
    <glyph glyph-name="s_f" unicode="&#xe01c;" horiz-adv-x="461" 
d="M556 605q-20 -13 -28 -13q-6 0 -29 16t-44 16q-48 0 -86.5 -49t-38.5 -133v-97h118l-37 -44h-12q-15 13 -53 13h-16v-234q0 -30 9 -39.5t38 -9.5h40l-6 -31h-203l-4 31h18q25 0 32.5 10t7.5 43v214l-31 -22h-10q-8 23 -26.5 36t-43.5 13q-29 0 -49 -23t-20 -56
q0 -43 56 -155q26 -51 38 -84t14 -47t2 -37q0 -180 -219 -194l-38 77h13q63 -27 100 -27q54 0 77 26.5t23 62.5q0 44 -34 114l-48 99q-26 55 -26 114q0 76 43 120t110 44q41 0 68 -22v35q0 67 15.5 119t39.5 81.5t55.5 48.5t59.5 25t56 6q39 0 63.5 -8t24.5 -20
q0 -7 -19 -19z" />
    <glyph glyph-name="uni2014.alt" unicode="&#xe01d;" horiz-adv-x="750" 
d="M-6 189h762v-32h-762v32z" />
    <glyph glyph-name="one.fitted" unicode="&#xf6dc;" horiz-adv-x="271" 
d="M31 0l-5 29h29q25 0 33.5 10t8.5 39v345q0 36 -12 48t-48 17v25q73 6 106 58h21v-498q0 -27 9 -35.5t39 -8.5h21l5 -29h-207z" />
    <glyph glyph-name="R_p" unicode="&#xf6dd;" horiz-adv-x="1041" 
d="M795 314q-47 0 -92 -35v-200l14 -17q42 -50 101 -50q51 0 87.5 33t36.5 93q0 65 -45.5 120.5t-101.5 55.5zM202 618h-22v-269q75 -20 143.5 15.5t68.5 110.5q0 55 -49 99t-141 44zM811 -14q-45 0 -108 26v-209q0 -25 9 -34t37 -9h27l-8 -31h-178l-9 31q30 0 42 10t12 38
v415q0 28 -8.5 36.5t-36.5 10.5v21q46 18 89 68h24v-40q68 40 124 40q80 0 129.5 -53t49.5 -129q0 -75 -53.5 -133t-141.5 -58zM520 0q-56 34 -101 78.5t-76 93.5t-46 77.5t-32 67.5q-51 -9 -84 4v-225q0 -26 2 -39t12.5 -21t19.5 -10.5t38 -7.5v-18h-183v19q16 6 23.5 15
t9 15.5t1.5 19.5v488q0 32 -8.5 46t-37.5 23v18h196q110 0 165 -39.5t55 -106.5q0 -47 -33.5 -92.5t-96.5 -68.5q38 -104 101 -195t141 -124v-18h-66z" />
    <glyph glyph-name="cent.inferior" unicode="&#xf6df;" horiz-adv-x="234" 
d="M168 122q-4 16 -15 27l-32 -125q27 -18 84 8l15 -16q-48 -34 -108 -25l-18 -69h-30l19 75q-34 11 -51.5 35.5t-17.5 53.5q0 42 35 71.5t82 29.5l16 61h31l-17 -64q39 -7 64 -35zM116 163q-18 0 -35.5 -13.5t-17.5 -38.5q0 -49 32 -68l30 119q-4 1 -9 1z" />
    <glyph glyph-name="cent.superior" unicode="&#xf6e0;" horiz-adv-x="234" 
d="M168 398q-4 16 -15 27l-32 -125q27 -18 84 8l15 -16q-48 -34 -108 -25l-18 -69h-30l19 75q-34 11 -51.5 35.5t-17.5 53.5q0 42 35 71.5t82 29.5l16 61h31l-17 -64q39 -7 64 -35zM116 439q-18 0 -35.5 -13.5t-17.5 -38.5q0 -49 32 -68l30 119q-4 1 -9 1z" />
    <glyph glyph-name="comma.inferior" unicode="&#xf6e1;" horiz-adv-x="129" 
d="M22 -91l-16 17q17 14 30 29q17 22 17 30q0 4 -11 13t-11 21q0 11 9.5 19t22.5 8q16 0 25.5 -10t9.5 -24q0 -37 -33 -70q-20 -20 -43 -33z" />
    <glyph glyph-name="comma.superior" unicode="&#xf6e2;" horiz-adv-x="129" 
d="M22 187l-16 17q17 14 30 29q17 22 17 30q0 4 -11 13t-11 21q0 11 9.5 19t22.5 8q16 0 25.5 -10t9.5 -24q0 -37 -33 -70q-20 -20 -43 -33z" />
    <glyph glyph-name="dollar.inferior" unicode="&#xf6e3;" horiz-adv-x="265" 
d="M159 -7l-6 -1v-36h-33v35q-46 4 -76 14l-25 77h27q10 -20 16.5 -30.5t22 -23t35.5 -14.5v123q-83 36 -83 88q0 29 22.5 49t60.5 21v25h33v-28q15 -4 23 -4q7 0 14 7h19l21 -79h-27q-22 46 -50 53v-99q47 -23 66.5 -44.5t19.5 -50.5t-20.5 -52.5t-59.5 -29.5zM120 272
q-38 -6 -38 -39q0 -24 38 -46v85zM153 121v-105q16 3 28.5 16.5t12.5 31.5q0 30 -41 57z" />
    <glyph glyph-name="dollar.superior" unicode="&#xf6e4;" horiz-adv-x="265" 
d="M159 269l-6 -1v-36h-33v35q-46 4 -76 14l-25 77h27q10 -20 16.5 -30.5t22 -23t35.5 -14.5v123q-83 36 -83 88q0 29 22.5 49t60.5 21v25h33v-28q15 -4 23 -4q7 0 14 7h19l21 -79h-27q-22 46 -50 53v-99q47 -23 66.5 -44.5t19.5 -50.5t-20.5 -52.5t-59.5 -29.5zM120 548
q-38 -6 -38 -39q0 -24 38 -46v85zM153 397v-105q16 3 28.5 16.5t12.5 31.5q0 30 -41 57z" />
    <glyph glyph-name="hyphen.inferior" unicode="&#xf6e5;" horiz-adv-x="163" 
d="M14 125v31h134v-31h-134z" />
    <glyph glyph-name="hyphen.superior" unicode="&#xf6e6;" horiz-adv-x="163" 
d="M14 403v31h134v-31h-134z" />
    <glyph glyph-name="period.inferior" unicode="&#xf6e7;" horiz-adv-x="116" 
d="M57 52q-13 0 -22 -9t-9 -22t9 -22.5t22 -9.5t22.5 9.5t9.5 22.5t-9.5 22t-22.5 9z" />
    <glyph glyph-name="period.superior" unicode="&#xf6e8;" horiz-adv-x="116" 
d="M57 326q-13 0 -22 -9t-9 -22t9 -22.5t22 -9.5t22.5 9.5t9.5 22.5t-9.5 22t-22.5 9z" />
    <glyph glyph-name="a.superior" unicode="&#xf6e9;" horiz-adv-x="240" 
d="M181 250q-19 0 -31 26q-33 -26 -65 -26q-27 0 -47.5 13.5t-20.5 41.5q0 11 4 21t14.5 18.5l18 14.5t23.5 12.5l22.5 9t25 8.5t19.5 6v22q0 37 -24 37q-9 0 -18.5 -9t-10.5 -24l-66 -10q9 33 34.5 51t58.5 18q41 0 60.5 -20t19.5 -49v-93q0 -19 7 -19q6 0 22 16l17 -15
q-12 -16 -31 -33t-32 -17zM144 368q-70 -18 -70 -55q0 -14 10 -23t24 -9q12 0 36 24v63z" />
    <glyph glyph-name="b.superior" unicode="&#xf6ea;" horiz-adv-x="316" 
d="M153 258h-136l-10 23h6q21 0 26 5t5 25v265q0 16 -5.5 23.5t-22.5 8.5v14q44 9 60 38h22v-203q44 22 80 22q50 0 84.5 -30.5t34.5 -74.5q0 -49 -41.5 -82.5t-102.5 -33.5zM160 451q-37 0 -62 -31v-88q0 -30 10.5 -40.5t44.5 -10.5q87 0 87 79q0 38 -23.5 64.5t-56.5 26.5
z" />
    <glyph glyph-name="d.superior" unicode="&#xf6eb;" horiz-adv-x="314" 
d="M215 258v7h-3q-22 -11 -67 -11q-56 0 -92 29t-36 74q0 51 41 86.5t100 35.5q26 0 57 -8v98q0 19 -5.5 25t-25.5 10v14q42 14 62 42h23v-342q0 -25 4 -31t20 -6h23l4 -23h-105zM215 437q-33 22 -62 22q-35 0 -59 -23t-24 -57q0 -38 31.5 -69t71.5 -31q19 0 38 10l4 2v146z
" />
    <glyph glyph-name="e.superior" unicode="&#xf6ec;" horiz-adv-x="266" 
d="M70 372q5 -41 33 -68.5t68 -27.5q27 0 73 24v-20q-42 -30 -94 -30q-64 0 -98.5 31t-34.5 82q0 47 33 82t86 35q38 0 69.5 -24.5t47.5 -67.5zM126 455q-48 0 -57 -56l115 9q-20 47 -58 47z" />
    <glyph glyph-name="i.superior" unicode="&#xf6ed;" horiz-adv-x="156" 
d="M80 546q-12 0 -20.5 6.5t-8.5 16.5t8.5 17.5t20.5 7.5t21 -7.5t9 -17.5t-8.5 -16.5t-21.5 -6.5zM142 258h-115l-8 23h12q20 0 20 31v85q0 17 -4.5 22t-23.5 5v16q31 12 61 42h21v-168q0 -22 5 -27.5t25 -5.5h24z" />
    <glyph glyph-name="l.superior" unicode="&#xf6ee;" horiz-adv-x="157" 
d="M140 258h-119v23h9q21 0 21 30v259q0 18 -7 26.5t-23 9.5v13q37 7 62 41h22v-349q0 -18 5 -24t19 -6h19z" />
    <glyph glyph-name="m.superior" unicode="&#xf6ef;" horiz-adv-x="471" 
d="M469 258h-126l3 23q17 0 21.5 5t4.5 23v95q0 51 -46 51q-31 0 -66 -19q2 -8 2 -23v-104q0 -17 6 -22.5t23 -5.5h22l-3 -23h-127l-11 23h13q15 0 19 5t4 23v81q0 65 -51 65q-36 0 -61 -25q2 -12 2 -26v-95q0 -18 5.5 -23t21.5 -5h21v-23h-129l-4 23q16 0 23.5 4.5
t7.5 19.5v91q0 15 -4.5 19t-26.5 8v13q28 18 41 40l3 4h18q7 -7 14 -25l6 4q32 21 76 21q46 0 77 -28q45 28 92 28q42 0 64 -22.5t22 -52.5v-92q0 -22 5.5 -27t24.5 -5h19z" />
    <glyph glyph-name="o.superior" unicode="&#xf6f0;" horiz-adv-x="291" 
d="M16 367q0 47 35.5 80t93.5 33q53 0 91.5 -33.5t38.5 -79.5q0 -50 -36 -83.5t-91 -33.5q-56 0 -94 33.5t-38 83.5zM221 338q0 41 -30.5 77.5t-65.5 36.5q-26 0 -40.5 -18t-14.5 -44q0 -41 31 -76.5t67 -35.5q21 0 37 16t16 44z" />
    <glyph glyph-name="r.superior" unicode="&#xf6f1;" horiz-adv-x="220" 
d="M165 413q-7 31 -24 31t-43 -27v-108q0 -16 4 -22t16 -6h25l-5 -23h-127v23h10q16 0 19.5 4t3.5 21v90q0 14 -4.5 18.5t-22.5 4.5v15q45 21 59 46h21v-27q33 27 63 27q39 0 54 -41z" />
    <glyph glyph-name="s.superior" unicode="&#xf6f2;" horiz-adv-x="196" 
d="M95 250q-75 0 -92 61v1l63 37q-13 -43 -2.5 -59.5t32.5 -16.5q18 0 29 9t11 24q0 14 -10 23t-43 25q-65 32 -65 70q0 22 19.5 39t58.5 17q64 0 83 -43l-47 -27v3q-6 16 -9 23t-12 15t-23 8q-13 0 -19 -6.5t-6 -14.5q0 -18 43 -40q45 -23 60 -39t15 -41q0 -28 -22.5 -48
t-63.5 -20z" />
    <glyph glyph-name="t.superior" unicode="&#xf6f3;" horiz-adv-x="170" 
d="M104 250q-43 0 -56.5 20.5t-13.5 53.5v123h-50l11 23q52 4 58 65h35v-65h72l-11 -35h-23q-3 12 -16 12h-22v-130q0 -38 28 -38q24 0 50 30l11 -23q-21 -21 -36 -28.5t-37 -7.5z" />
    <glyph glyph-name="breve.sc" unicode="&#xf6f4;" horiz-adv-x="333" 
d="M269 521h32q-3 -57 -39.5 -90.5t-95.5 -33.5t-95 33.5t-39 90.5h32q23 -60 102 -60q81 0 103 60z" />
    <glyph glyph-name="caron.sc" unicode="&#xf6f5;" horiz-adv-x="333" 
d="M26 530h41l99 -89l102 89h39l-100 -133h-81z" />
    <glyph glyph-name="circumflex.sc" unicode="&#xf6f6;" horiz-adv-x="333" 
d="M307 397h-41l-100 89l-101 -89h-39l100 133h81z" />
    <glyph glyph-name="dotaccent.sc" unicode="&#xf6f7;" horiz-adv-x="333" 
d="M167 477q17 0 28.5 -11.5t11.5 -28.5t-11.5 -28.5t-28.5 -11.5t-28.5 11.5t-11.5 28.5t11.5 28.5t28.5 11.5z" />
    <glyph glyph-name="hungarumlaut.sc" unicode="&#xf6f8;" horiz-adv-x="333" 
d="M52 397h-39l99 133h91zM187 397h-39l100 133h90z" />
    <glyph glyph-name="lslash.sc" unicode="&#xf6f9;" horiz-adv-x="416" 
d="M154 240l101 84v-34l-101 -83v-176h128q42 0 60.5 15t28.5 57h17l-7 -103h-353v18q35 1 46.5 11.5t11.5 38.5v82l-76 -63v34l76 62v131q0 24 -8 35t-29 16v18h178v-18q-47 -4 -60 -15.5t-13 -35.5v-74z" />
    <glyph glyph-name="oe.sc" unicode="&#xf6fa;" horiz-adv-x="631" 
d="M604 0h-265v68q-56 -79 -140 -79q-72 0 -118.5 54t-46.5 138q0 87 53.5 150t125.5 63q37 0 71 -20.5t54 -52.5v62h235v-89h-18q-10 35 -27.5 46.5t-47.5 11.5h-73v-145h67q19 0 29.5 6t18.5 26h18v-101h-18q-10 24 -20 31t-32 7h-63v-145h96q40 0 56 14t27 57h18v-102z
M340 168q0 65 -46.5 120.5t-107.5 55.5q-49 0 -77.5 -34t-28.5 -85q0 -73 47.5 -129.5t109.5 -56.5q43 0 73 32.5t30 96.5z" />
    <glyph glyph-name="ogonek.sc" unicode="&#xf6fb;" horiz-adv-x="333" 
d="M171 15h38q-52 -79 -52 -132q0 -34 20.5 -52.5t57.5 -18.5h8v-28q-14 -3 -34 -3q-62 0 -89 28.5t-27 61.5q0 69 78 144z" />
    <glyph glyph-name="ring.sc" unicode="&#xf6fc;" horiz-adv-x="333" 
d="M166 558q34 0 57.5 -23.5t23.5 -56.5q0 -34 -23.5 -57.5t-57.5 -23.5q-33 0 -56.5 23.5t-23.5 57.5q0 33 23.5 56.5t56.5 23.5zM166 525q-20 0 -33.5 -13.5t-13.5 -33.5t14 -34t33 -14q20 0 34 14t14 34t-14 33.5t-34 13.5z" />
    <glyph glyph-name="scaron.sc" unicode="&#xf6fd;" horiz-adv-x="344" 
d="M172 -11q-57 0 -121 32l-19 107h17q48 -111 131 -111q34 0 52 16.5t18 43.5q0 26 -20 47t-80 58q-55 33 -76.5 56t-21.5 60q0 41 30.5 68.5t76.5 27.5q18 0 44 -6q24 -6 32 -6q7 0 15 12h15l23 -111h-19q-37 88 -114 88q-27 0 -42 -13.5t-15 -28.5q0 -21 17 -37.5
t73 -50.5q72 -44 94 -74t22 -65q0 -46 -33.5 -79.5t-98.5 -33.5zM32 577h41l99 -89l102 89h39l-100 -133h-81z" />
    <glyph glyph-name="tilde.sc" unicode="&#xf6fe;" horiz-adv-x="333" 
d="M221 397q-29 0 -68 19q-43 21 -59 21q-33 0 -41 -40h-21q2 41 21.5 65.5t58.5 24.5q24 0 59 -17q47 -23 65 -23t29.5 11.5t14.5 28.5h21q-2 -38 -21.5 -64t-58.5 -26z" />
    <glyph glyph-name="zcaron.sc" unicode="&#xf6ff;" horiz-adv-x="438" 
d="M388 0h-358v14l260 340h-119q-49 0 -68 -16t-42 -65h-17l19 110h325v-12l-260 -338h163q17 0 29.5 3.5t23 14.5t15 17t16 27l15.5 28h16zM79 577h41l99 -89l102 89h39l-100 -133h-81z" />
    <glyph glyph-name="exclam.sc" unicode="&#xf721;" horiz-adv-x="114" 
d="M68 90h-21l-20 255q-2 25 3 37t27 12q33 0 30 -50zM57 52q13 0 22.5 -9t9.5 -22t-9.5 -22.5t-22.5 -9.5t-22 9.5t-9 22.5t9 22t22 9z" />
    <glyph glyph-name="dollar.oldstyle" unicode="&#xf724;" horiz-adv-x="276" 
d="M157 -13v-44h-30v43q-47 4 -80 17l-25 94h24q16 -39 34 -57.5t47 -25.5v149q-49 25 -68 50.5t-19 57.5t23.5 58.5t63.5 27.5v31h30v-35q14 -5 23 -5q11 0 20 9h17l21 -98h-23q-26 55 -58 66v-118q92 -46 92 -119q0 -43 -28.5 -71t-63.5 -30zM127 329l1 -1
q-23 -1 -34 -15.5t-11 -30.5q0 -32 44 -58v105zM157 146v-131q21 1 34 18t13 41q0 39 -47 72z" />
    <glyph glyph-name="ampersand.sc" unicode="&#xf726;" horiz-adv-x="482" 
d="M446 162q0 -64 -57 -118.5t-155 -54.5q-55 0 -96.5 15.5t-62 39.5t-30 47t-9.5 44q0 81 90 124q-38 25 -38 57q0 30 27 54t72 24q59 0 104 -43l-64 -42q-11 54 -50 54q-17 0 -29 -11t-12 -27q0 -20 23 -33t58 -15v-23q-58 -2 -84.5 -29t-26.5 -61q0 -57 51.5 -91.5
t109.5 -34.5t101 34.5t43 86.5q0 33 -19 52t-50 24l-57 -57h-55l144 150h61l-65 -69q76 -28 76 -97z" />
    <glyph glyph-name="zero.oldstyle" unicode="&#xf730;" horiz-adv-x="406" 
d="M199 -14q-74 0 -122 51t-48 125q0 77 51 130t128 53q72 0 121 -49.5t49 -121.5q0 -76 -51.5 -132t-127.5 -56zM178 314q-33 0 -60 -26t-27 -72q0 -64 38 -131.5t97 -67.5q39 0 64.5 29t25.5 79q0 69 -41 129t-97 60z" />
    <glyph glyph-name="one.oldstyle" unicode="&#xf731;" horiz-adv-x="250" 
d="M219 0h-186v15q4 0 14 1t13.5 1.5l11 1.5t10 3.5t6 6.5t5 10.5t1.5 14.5v231q0 18 -6.5 26.5t-15 10.5t-28.5 3v15h164v-15q-4 -1 -13 -2.5t-14 -3t-11.5 -4.5t-9.5 -8.5t-3 -12.5v-223q0 -32 10 -40.5t42 -13.5q7 -1 10 -2v-15z" />
    <glyph glyph-name="two.oldstyle" unicode="&#xf732;" horiz-adv-x="313" 
d="M255 0h-228v15q154 138 154 226q0 26 -20 46t-47 20t-49 -24l-13 7q36 67 102 67q39 0 66 -25.5t27 -64.5q0 -25 -7 -47.5t-25.5 -47t-28 -35.5t-38.5 -39l-33 -32h86q21 0 29.5 0.5t21.5 6t23 16.5l12 -5z" />
    <glyph glyph-name="three.oldstyle" unicode="&#xf733;" horiz-adv-x="293" 
d="M21 -206l-34 18l11 11q3 -1 10 -1q17 0 51 28q128 94 128 172q0 42 -31.5 71.5t-71.5 29.5q-4 0 -12 -0.5t-10 -0.5q-8 0 -8 7q0 4 26 24t52.5 50t26.5 58q0 17 -11.5 33.5t-31.5 16.5q-9 0 -28 -8q-7 7 -7 12q0 8 20 22.5t45 14.5q28 0 49.5 -18t21.5 -46q0 -22 -14 -46
t-22.5 -33l-34.5 -35q46 -12 76.5 -43.5t30.5 -77.5q0 -122 -232 -259z" />
    <glyph glyph-name="four.oldstyle" unicode="&#xf734;" horiz-adv-x="375" 
d="M358 1h-20q0 6 -5 9q-2 2 -9 2h-42v-125q0 -20 6 -29t14 -10.5t28 -1.5h7v-22h-118v188h-209v16l257 323h15v-301h90zM67 50h151v191z" />
    <glyph glyph-name="five.oldstyle" unicode="&#xf735;" horiz-adv-x="348" 
d="M138 213q0 -12 0.5 -17t5 -13t14.5 -18q50 -50 68.5 -83t18.5 -76q0 -56 -40 -108q-28 -36 -97 -81t-124 -67v24q193 108 193 212q0 39 -37 88t-37 91q0 39 8 113q3 27 19.5 40t36.5 15.5t61 2.5q25 0 51 7.5t41.5 15t17.5 7.5q10 0 10 -27q0 -33 -30 -51.5t-66.5 -21.5
l-69.5 -5.5t-37 -6.5q-7 -8 -7 -41z" />
    <glyph glyph-name="six.oldstyle" unicode="&#xf736;" horiz-adv-x="417" 
d="M214 -14q-82 0 -132.5 56t-50.5 139q0 63 31 119.5t83.5 97t108.5 69t117 47.5l8 -19q-125 -39 -202.5 -112t-77.5 -181q0 -76 37 -132t97 -56q45 0 73.5 31t28.5 78q0 63 -39 104.5t-89 41.5t-77 -47l-16 5q33 89 125 89q65 0 107.5 -45t42.5 -105q0 -75 -50.5 -127.5
t-124.5 -52.5z" />
    <glyph glyph-name="seven.oldstyle" unicode="&#xf737;" horiz-adv-x="375" 
d="M149 -97h-64l3 15q19 12 33.5 29.5t22 31t20.5 40.5l128 266h-211q-38 0 -55 -12h-22l44 78h320v-15q-20 -16 -37 -52l-138 -288q-39 -80 -44 -93z" />
    <glyph glyph-name="eight.oldstyle" unicode="&#xf738;" horiz-adv-x="365" 
d="M178 -14q-62 0 -104 37t-42 102q0 89 107 150q-40 29 -61 56.5t-21 68.5q0 46 32 77t91 31q37 0 64 -12t39.5 -30.5t17.5 -34t5 -28.5q0 -29 -16.5 -52.5t-69.5 -52.5q67 -46 90 -85t23 -85q0 -68 -48 -105t-107 -37zM177 480q-38 0 -56 -18.5t-18 -42.5q0 -27 29 -56.5
t64 -47.5q37 22 50 43t12 49t-21 50.5t-60 22.5zM163 258q-40 -28 -56.5 -57t-16.5 -70q0 -57 29 -87t69 -30q45 0 69 28t24 59q0 78 -118 157z" />
    <glyph glyph-name="nine.oldstyle" unicode="&#xf739;" horiz-adv-x="417" 
d="M31 -238l-1 23q110 42 199 145t89 212q0 66 -43 118t-102 52q-40 0 -65.5 -28.5t-25.5 -68.5q0 -73 42 -121.5t95 -48.5q34 0 69 29l9 -17q-47 -51 -106 -51q-70 0 -116.5 48t-46.5 118q0 75 53.5 125t128.5 50q76 0 126 -54.5t50 -131.5q0 -64 -28 -125t-69 -104.5
t-92 -80t-92 -57.5t-74 -32z" />
    <glyph glyph-name="question.sc" unicode="&#xf73f;" horiz-adv-x="198" 
d="M79 228q28 46 28 88q0 25 -8 39.5t-19 14.5q-7 0 -12 -5q-7 -5 -15 -5q-14 0 -14 9t15 17t33 8q36 0 58.5 -21.5t22.5 -51.5q0 -41 -47 -98l-20 -24q-36 -42 -36 -64q0 -16 10 -16q3 0 11 12l23 -15l-35 -47q-24 8 -34.5 19t-10.5 31q0 8 2 16.5t4 14.5t8.5 18t9.5 17
l12.5 21t13.5 22zM68 -11q13 0 22 9t9 22t-9 22.5t-22 9.5t-22.5 -9.5t-9.5 -22.5t9.5 -22t22.5 -9z" />
    <glyph glyph-name="grave.sc" unicode="&#xf760;" horiz-adv-x="333" 
d="M213 397l-151 133h91l99 -133h-39z" />
    <glyph glyph-name="a.sc" unicode="&#xf761;" horiz-adv-x="402" 
d="M230 0v18h6q32 0 39.5 9.5t-2.5 29.5l-37 90h-112l-38 -96q-10 -16 -3 -24t46 -9v-18h-137v18q30 4 42 12.5t20 27.5l134 336h17l134 -324q20 -48 69 -52v-18h-178zM179 286l-45 -110h89z" />
    <glyph glyph-name="b.sc" unicode="&#xf762;" horiz-adv-x="392" 
d="M355 101q0 -45 -38 -73t-111 -28h-191v18q45 3 58 15t13 49v239q0 24 -13 34t-53 10v18h164q68 0 104.5 -24t36.5 -67q0 -30 -22 -53.5t-62 -36.5q114 -25 114 -101zM255 286q0 28 -21 50.5t-64 22.5h-16v-143h16q85 0 85 70zM165 188h-11v-164h24q105 0 105 73
q0 42 -32 66.5t-86 24.5z" />
    <glyph glyph-name="c.sc" unicode="&#xf763;" horiz-adv-x="434" 
d="M383 0h-11q-9 9 -19 9t-37 -10q-26 -10 -67 -10q-88 0 -150.5 59.5t-62.5 143.5q0 87 58.5 144.5t142.5 57.5q12 0 54 -6q24 -4 34 -4q16 0 27 10h12l38 -113h-17q-57 90 -141 90q-54 0 -94.5 -43.5t-40.5 -110.5q0 -74 45 -137t114 -63q74 0 126 78h16z" />
    <glyph glyph-name="d.sc" unicode="&#xf764;" horiz-adv-x="474" 
d="M437 196q0 -98 -68.5 -147t-165.5 -49h-175v18q36 4 47 12.5t11 28.5v261q0 24 -13 33.5t-45 11.5v18h172q67 0 116.5 -18t74 -47.5t35.5 -59.5t11 -62zM192 360q-8 0 -38 -2v-332q27 -3 42 -3q68 0 116.5 39.5t48.5 122.5q0 85 -47 130t-122 45z" />
    <glyph glyph-name="e.sc" unicode="&#xf765;" horiz-adv-x="421" 
d="M22 0v18q36 3 50 18t14 62v210q0 30 -13.5 42.5t-50.5 14.5v18h340v-86h-18q-6 31 -23 43t-51 12h-116v-145h109q21 0 32.5 5.5t15.5 22.5h18v-96h-17q-6 24 -17 30.5t-38 6.5h-103v-145h145q35 0 51.5 14t25.5 57h18v-102h-372z" />
    <glyph glyph-name="f.sc" unicode="&#xf766;" horiz-adv-x="378" 
d="M336 299q-8 34 -23 43.5t-39 9.5h-120v-145h80q22 0 30 5.5t12 23.5h18v-90h-19q-4 30 -32 30h-89v-98q0 -32 16 -44.5t63 -15.5v-18h-199v18q31 2 41.5 13t10.5 47v235q0 28 -13.5 39.5t-60.5 12.5v18h342v-84h-18z" />
    <glyph glyph-name="g.sc" unicode="&#xf767;" horiz-adv-x="478" 
d="M408 116v-58q0 -20 11 -32v-12q-68 -25 -145 -25q-101 0 -169.5 58.5t-68.5 146.5q0 85 63 142.5t155 57.5q28 0 75.5 -12t53.5 -12q7 0 13 5h13l18 -112h-16q-18 45 -60 74t-93 29q-68 0 -107 -46t-39 -115q0 -89 53.5 -137t123.5 -48q31 0 51 6v75q0 30 -12 40t-51 10
v18h171v-18q-23 0 -31.5 -7.5t-8.5 -27.5z" />
    <glyph glyph-name="h.sc" unicode="&#xf768;" horiz-adv-x="531" 
d="M317 0l-1 18q37 7 48.5 18.5t11.5 50.5v85h-223v-91q0 -31 12.5 -45.5t54.5 -17.5v-18h-191v18q33 3 44.5 15t11.5 44v233q0 31 -11.5 42.5t-44.5 12.5v18h191v-18q-39 -5 -53 -17t-14 -42v-101h223v105q0 29 -14 40t-51 15v18h191v-18q-36 -4 -47 -14.5t-11 -44.5v-228
q0 -33 12 -46t46 -14v-18h-185z" />
    <glyph glyph-name="i.sc" unicode="&#xf769;" horiz-adv-x="260" 
d="M31 0v18q37 3 51 14.5t14 44.5v230q0 26 -13 39t-52 19v18h191v-18q-34 -5 -46 -16.5t-12 -41.5v-218q0 -35 12.5 -49.5t52.5 -21.5v-18h-198z" />
    <glyph glyph-name="j.sc" unicode="&#xf76a;" horiz-adv-x="255" 
d="M160 299v-242q0 -53 -9 -85.5t-31 -62.5q-18 -23 -44.5 -44t-46.5 -32.5t-56 -29.5l-17 19q60 30 86 56q29 29 39.5 61.5t10.5 106.5v253q0 29 -10 42t-35 23v19h166v-18q-32 -7 -42.5 -19.5t-10.5 -46.5z" />
    <glyph glyph-name="k.sc" unicode="&#xf76b;" horiz-adv-x="434" 
d="M287 0v18q6 1 4.5 6t-7.5 12l-130 145v-127q0 -36 45 -36h11v-18h-155v18q19 0 25 7t6 29v280q0 16 -6 23t-25 8v18h155v-18q-35 -4 -45.5 -13t-10.5 -33v-105l126 119q18 18 18 22q0 9 -18 10v18h124v-18q-31 -2 -45 -8.5t-28 -20.5l-122 -119l133 -152q22 -25 38 -35
t45 -12v-18h-138z" />
    <glyph glyph-name="l.sc" unicode="&#xf76c;" horiz-adv-x="416" 
d="M381 0h-353v18q35 1 46.5 11.5t11.5 38.5v246q0 25 -8 35t-29 16v18h178v-18q-34 -3 -50.5 -10.5t-19.5 -15.5t-3 -25v-283h128q42 0 60.5 15t28.5 57h17z" />
    <glyph glyph-name="m.sc" unicode="&#xf76d;" horiz-adv-x="594" 
d="M381 0v18q41 6 49 14t7 39l-9 242l-151 -319h-13l-146 319l-8 -240q-1 -30 10 -39.5t55 -15.5v-18h-160v18q39 6 50 17t13 41l11 242q0 20 -10.5 31t-38.5 16v18h118l132 -289l138 289h118v-18q-29 -3 -41 -12t-11 -29l10 -257q1 -14 4 -22.5t10 -12.5t13 -6t17.5 -3.5
t19.5 -4.5v-18h-187z" />
    <glyph glyph-name="n.sc" unicode="&#xf76e;" horiz-adv-x="526" 
d="M501 365q-28 -1 -42 -9t-16.5 -16t-2.5 -23v-323h-8l-316 330v-252q0 -31 9.5 -39t54.5 -15v-18h-155v18q38 5 49 15t11 38v247q0 26 -12 37.5t-48 14.5v13h123l261 -272v207q0 22 -12.5 32.5t-47.5 14.5v18h152v-18z" />
    <glyph glyph-name="o.sc" unicode="&#xf76f;" 
d="M422 201q0 -88 -58.5 -150t-140.5 -62q-87 0 -137 56.5t-50 131.5q0 92 56.5 154.5t144.5 62.5q85 0 135 -58t50 -135zM206 353q-45 0 -77 -35t-32 -89q0 -80 51 -139.5t106 -59.5q38 0 72.5 30.5t34.5 94.5q0 70 -45.5 134t-109.5 64z" />
    <glyph glyph-name="p.sc" unicode="&#xf770;" horiz-adv-x="397" 
d="M225 160q-33 0 -62 8v29q24 -6 48 -6q75 0 75 72q0 43 -27.5 66t-78.5 23h-27v-281q0 -53 87 -53v-18h-213v18q34 2 46 10t12 28v259q0 25 -12.5 36t-53.5 14v18h177q83 0 123 -36t40 -82q0 -53 -37.5 -79t-96.5 -26z" />
    <glyph glyph-name="q.sc" unicode="&#xf771;" 
d="M351 -72q-61 0 -115 61q-90 0 -145 51.5t-55 141.5q0 89 58.5 150.5t141.5 61.5q77 0 131.5 -52.5t54.5 -141.5q0 -58 -28.5 -107.5t-78.5 -79.5q43 -43 75 -43q22 0 47 17v-30q-40 -29 -86 -29zM205 354q-50 0 -78.5 -37.5t-28.5 -88.5q0 -76 49 -137t110 -61
q50 0 76.5 35.5t26.5 87.5q0 78 -47 139.5t-108 61.5z" />
    <glyph glyph-name="r.sc" unicode="&#xf772;" horiz-adv-x="438" 
d="M356 0q-27 9 -70.5 52t-85.5 127q-33 -2 -46 2v-118q0 -23 9.5 -31.5t40.5 -13.5v-18h-168v18q34 7 42 16.5t8 40.5v251q0 19 -9 28.5t-41 10.5v18h170q76 0 109 -32.5t33 -65.5q0 -27 -15 -48t-30 -30t-37 -18q28 -70 73 -118t86 -53v-18h-69zM174 356h-20v-146
q56 -10 88.5 6.5t32.5 53.5t-30 61.5t-71 24.5z" />
    <glyph glyph-name="s.sc" unicode="&#xf773;" horiz-adv-x="344" 
d="M172 -11q-57 0 -121 32l-19 107h17q48 -111 131 -111q34 0 52 16.5t18 43.5q0 26 -20 47t-80 58q-55 33 -76.5 56t-21.5 60q0 41 30.5 68.5t76.5 27.5q18 0 44 -6q24 -6 32 -6q7 0 15 12h15l23 -111h-19q-37 88 -114 88q-27 0 -42 -13.5t-15 -28.5q0 -21 17 -37.5
t73 -50.5q72 -44 94 -74t22 -65q0 -46 -33.5 -79.5t-98.5 -33.5z" />
    <glyph glyph-name="t.sc" unicode="&#xf774;" horiz-adv-x="438" 
d="M389 290l-11 32q-7 20 -13.5 25t-23.5 5h-88v-295q0 -22 9.5 -29t44.5 -10v-18h-178v18q37 5 46.5 11.5t9.5 28.5v294h-88q-16 0 -23 -6.5t-14 -25.5l-11 -30h-18v93h376v-93h-18z" />
    <glyph glyph-name="u.sc" unicode="&#xf775;" horiz-adv-x="463" 
d="M231 -11q-72 0 -108.5 32t-36.5 78v224q0 20 -7.5 29.5t-17.5 11t-31 1.5v18h184v-18q-35 0 -47.5 -9.5t-12.5 -38.5v-200q0 -51 20.5 -74t68.5 -23q53 0 77.5 34.5t24.5 88.5v169q0 30 -13.5 40.5t-46.5 12.5v18h149v-18q-30 -2 -43 -11.5t-13 -37.5v-175
q0 -152 -147 -152z" />
    <glyph glyph-name="v.sc" unicode="&#xf776;" horiz-adv-x="439" 
d="M376 333l-145 -344h-15l-153 344q-7 15 -16.5 21t-30.5 11v18h138v-18q-21 -1 -23.5 -10t6.5 -24l105 -238l97 239q8 15 4.5 22t-25.5 11v18h107v-18q-24 -3 -33.5 -10.5t-15.5 -21.5z" />
    <glyph glyph-name="w.sc" unicode="&#xf777;" horiz-adv-x="630" 
d="M617 365q-22 -2 -32 -9t-20 -27l-160 -340h-15l-68 149l-74 -149h-18l-164 344q-6 17 -16 24t-34 8v18h151v-18q-26 0 -32 -7.5t3 -23.5l121 -254l50 94l-77 165q-7 16 -16 21t-35 5v18h162v-18q-35 0 -41 -9.5t6 -28.5l36 -77l46 89q8 14 3 20t-28 6v18h110v-18
q-21 0 -30 -4t-17 -21l-66 -126l55 -127l116 248q7 17 1.5 22.5t-31.5 7.5v18h114v-18z" />
    <glyph glyph-name="x.sc" unicode="&#xf778;" horiz-adv-x="438" 
d="M260 0v18q24 2 27 10t-10 24l-73 103l-83 -108q-11 -12 -8.5 -20.5t26.5 -8.5v-18h-123v18q29 2 42.5 9t28.5 27l99 129l-105 152q-20 30 -65 30v18h160v-18q-25 0 -26.5 -7t8.5 -18l69 -102l81 103q9 11 2.5 17.5t-30.5 6.5v18h132v-18q-46 0 -67 -28l-99 -127l102 -149
q14 -25 27.5 -32t45.5 -11v-18h-161z" />
    <glyph glyph-name="y.sc" unicode="&#xf779;" horiz-adv-x="438" 
d="M181 365q-23 -3 -32 -8t-8 -10t6 -14q1 -2 2 -3l88 -159l86 149q23 38 -37 45v18h138v-18q-28 -5 -40.5 -14.5t-25.5 -31.5l-108 -185v-80q0 -36 60 -36v-18h-182v18q33 0 44.5 6.5t11.5 29.5v80l-109 196q-7 11 -11 16.5t-16.5 11t-31.5 7.5v18h165v-18z" />
    <glyph glyph-name="z.sc" unicode="&#xf77a;" horiz-adv-x="438" 
d="M388 0h-358v14l260 340h-119q-49 0 -68 -16t-42 -65h-17l19 110h325v-12l-260 -338h163q17 0 29.5 3.5t23 14.5t15 17t16 27l15.5 28h16z" />
    <glyph glyph-name="exclamdown.sc" unicode="&#xf7a1;" horiz-adv-x="114" 
d="M46 293h21l20 -255q2 -25 -3 -37t-27 -12q-33 0 -30 50zM57 331q-13 0 -22.5 9t-9.5 22t9.5 22.5t22.5 9.5t22 -9.5t9 -22.5t-9 -22t-22 -9z" />
    <glyph glyph-name="cent.oldstyle" unicode="&#xf7a2;" horiz-adv-x="245" 
d="M177 149q-3 22 -19 36l-34 -155q41 -23 90 8l15 -19q-14 -12 -23.5 -18t-34 -11t-55.5 -1l-19 -86h-28l21 92q-37 13 -55.5 43.5t-18.5 64.5q0 49 33 86.5t90 37.5l16 75h29l-17 -77q34 -5 68 -45zM133 196q-30 4 -50 -14t-20 -49q0 -48 38 -84z" />
    <glyph glyph-name="dieresis.sc" unicode="&#xf7a8;" horiz-adv-x="333" 
d="M92 477q16 0 28 -11.5t12 -28.5t-12 -28.5t-28 -11.5t-28 11.5t-12 28.5t12 28.5t28 11.5zM241 477q17 0 28.5 -11.5t11.5 -28.5t-11.5 -28.5t-28.5 -11.5t-28.5 11.5t-11.5 28.5t11.5 28.5t28.5 11.5z" />
    <glyph glyph-name="macron.sc" unicode="&#xf7af;" horiz-adv-x="333" 
d="M13 397v41h307v-41h-307z" />
    <glyph glyph-name="acute.sc" unicode="&#xf7b4;" horiz-adv-x="333" 
d="M120 397h-39l99 133h91z" />
    <glyph glyph-name="cedilla.sc" unicode="&#xf7b8;" horiz-adv-x="333" 
d="M137 1h35l-6 -54q44 -2 66.5 -23.5t22.5 -52.5q0 -43 -39.5 -76t-147.5 -35v30q48 0 86 16t38 48q0 20 -18.5 29.5t-52.5 5.5z" />
    <glyph glyph-name="questiondown.sc" unicode="&#xf7bf;" horiz-adv-x="198" 
d="M119 155q-28 -46 -28 -88q0 -25 8 -39.5t19 -14.5q7 0 12 5q8 5 15 5q14 0 14 -9t-15 -17t-33 -8q-36 0 -58.5 21.5t-22.5 51.5q0 41 47 98l20 24q36 42 36 64q0 16 -10 16q-3 0 -11 -12l-23 15l35 47q24 -8 34.5 -19t10.5 -31q0 -8 -2 -16.5t-4 -14.5t-8.5 -18t-9.5 -17
l-12.5 -21t-13.5 -22zM130 394q-13 0 -22 -9t-9 -22t9 -22.5t22 -9.5t22.5 9.5t9.5 22.5t-9.5 22t-22.5 9z" />
    <glyph glyph-name="agrave.sc" unicode="&#xf7e0;" horiz-adv-x="402" 
d="M230 0v18h6q32 0 39.5 9.5t-2.5 29.5l-37 90h-112l-38 -96q-10 -16 -3 -24t46 -9v-18h-137v18q30 4 42 12.5t20 27.5l134 336h17l134 -324q20 -48 69 -52v-18h-178zM179 286l-45 -110h89zM260 444l-151 133h91l99 -133h-39z" />
    <glyph glyph-name="aacute.sc" unicode="&#xf7e1;" horiz-adv-x="402" 
d="M230 0v18h6q32 0 39.5 9.5t-2.5 29.5l-37 90h-112l-38 -96q-10 -16 -3 -24t46 -9v-18h-137v18q30 4 42 12.5t20 27.5l134 336h17l134 -324q20 -48 69 -52v-18h-178zM179 286l-45 -110h89zM167 444h-39l99 133h91z" />
    <glyph glyph-name="acircumflex.sc" unicode="&#xf7e2;" horiz-adv-x="402" 
d="M230 0v18h6q32 0 39.5 9.5t-2.5 29.5l-37 90h-112l-38 -96q-10 -16 -3 -24t46 -9v-18h-137v18q30 4 42 12.5t20 27.5l134 336h17l134 -324q20 -48 69 -52v-18h-178zM179 286l-45 -110h89zM354 444h-41l-100 89l-101 -89h-39l100 133h81z" />
    <glyph glyph-name="atilde.sc" unicode="&#xf7e3;" horiz-adv-x="402" 
d="M230 0v18h6q32 0 39.5 9.5t-2.5 29.5l-37 90h-112l-38 -96q-10 -16 -3 -24t46 -9v-18h-137v18q30 4 42 12.5t20 27.5l134 336h17l134 -324q20 -48 69 -52v-18h-178zM179 286l-45 -110h89zM268 444q-29 0 -68 19q-43 21 -59 21q-33 0 -41 -40h-21q2 41 21.5 65.5
t58.5 24.5q24 0 59 -17q47 -23 65 -23t29.5 11.5t14.5 28.5h21q-2 -38 -21.5 -64t-58.5 -26z" />
    <glyph glyph-name="adieresis.sc" unicode="&#xf7e4;" horiz-adv-x="402" 
d="M230 0v18h6q32 0 39.5 9.5t-2.5 29.5l-37 90h-112l-38 -96q-10 -16 -3 -24t46 -9v-18h-137v18q30 4 42 12.5t20 27.5l134 336h17l134 -324q20 -48 69 -52v-18h-178zM179 286l-45 -110h89zM139 524q17 0 28.5 -12t11.5 -28t-11.5 -28t-28.5 -12t-28.5 12t-11.5 28t11.5 28
t28.5 12zM288 524q16 0 28 -12t12 -28t-12 -28t-28 -12t-28 12t-12 28t12 28t28 12z" />
    <glyph glyph-name="aring.sc" unicode="&#xf7e5;" horiz-adv-x="402" 
d="M230 0v18h6q32 0 39.5 9.5t-2.5 29.5l-37 90h-112l-38 -96q-10 -16 -3 -24t46 -9v-18h-137v18q30 4 42 12.5t20 27.5l134 336h17l134 -324q20 -48 69 -52v-18h-178zM179 286l-45 -110h89zM201 605q34 0 57.5 -23.5t23.5 -56.5q0 -34 -23.5 -57.5t-57.5 -23.5
q-33 0 -56.5 23.5t-23.5 57.5q0 33 23.5 56.5t56.5 23.5zM201 572q-19 0 -33 -14t-14 -33q0 -20 14 -34t33 -14q20 0 34 14t14 34t-14 33.5t-34 13.5z" />
    <glyph glyph-name="ae.sc" unicode="&#xf7e6;" horiz-adv-x="552" 
d="M197 0v18q40 2 52 9t12 25v120h-103l-66 -111q-1 -2 -5.5 -9t-5 -8.5t-2 -6.5t1.5 -7l7.5 -5t14.5 -4.5t24 -2.5v-18h-135v18q26 4 38 11t27 32l162 265q11 19 11 25q0 14 -51 14h-9v18h325v-90h-17q-17 39 -29.5 49t-52.5 10h-67v-145h71q21 0 29 5.5t17 26.5h15v-102
h-15l-2 3q-7 22 -16.5 29t-31.5 7h-67v-145h106q34 0 47.5 13t26.5 57h16v-101h-328zM261 340l-85 -137h85v137z" />
    <glyph glyph-name="ccedilla.sc" unicode="&#xf7e7;" horiz-adv-x="434" 
d="M267 -11l-6 -44q46 -2 68.5 -24t22.5 -51q0 -102 -185 -110v27q58 2 91 20t33 46q0 24 -20.5 32.5t-49.5 4.5l15 100q-80 5 -140 62.5t-60 139.5q0 83 56 142.5t145 59.5q12 0 54 -6q24 -4 34 -4q16 0 27 10h12l38 -113h-17q-57 90 -141 90q-54 0 -94.5 -43.5
t-40.5 -110.5q0 -74 45 -137t114 -63q74 0 126 78h16l-27 -95h-11q-9 9 -19 9q-6 0 -13 -2t-14.5 -4.5t-9.5 -3.5q-6 -2 -49 -10z" />
    <glyph glyph-name="egrave.sc" unicode="&#xf7e8;" horiz-adv-x="421" 
d="M22 0v18q36 3 50 18t14 62v210q0 30 -13.5 42.5t-50.5 14.5v18h340v-86h-18q-6 31 -23 43t-51 12h-116v-145h109q21 0 32.5 5.5t15.5 22.5h18v-96h-17q-6 24 -17 30.5t-38 6.5h-103v-145h145q35 0 51.5 14t25.5 57h18v-102h-372zM257 444l-151 133h91l99 -133h-39z" />
    <glyph glyph-name="eacute.sc" unicode="&#xf7e9;" horiz-adv-x="421" 
d="M22 0v18q36 3 50 18t14 62v210q0 30 -13.5 42.5t-50.5 14.5v18h340v-86h-18q-6 31 -23 43t-51 12h-116v-145h109q21 0 32.5 5.5t15.5 22.5h18v-96h-17q-6 24 -17 30.5t-38 6.5h-103v-145h145q35 0 51.5 14t25.5 57h18v-102h-372zM164 444h-39l99 133h91z" />
    <glyph glyph-name="ecircumflex.sc" unicode="&#xf7ea;" horiz-adv-x="421" 
d="M22 0v18q36 3 50 18t14 62v210q0 30 -13.5 42.5t-50.5 14.5v18h340v-86h-18q-6 31 -23 43t-51 12h-116v-145h109q21 0 32.5 5.5t15.5 22.5h18v-96h-17q-6 24 -17 30.5t-38 6.5h-103v-145h145q35 0 51.5 14t25.5 57h18v-102h-372zM351 444h-41l-100 89l-101 -89h-39
l100 133h81z" />
    <glyph glyph-name="edieresis.sc" unicode="&#xf7eb;" horiz-adv-x="421" 
d="M22 0v18q36 3 50 18t14 62v210q0 30 -13.5 42.5t-50.5 14.5v18h340v-86h-18q-6 31 -23 43t-51 12h-116v-145h109q21 0 32.5 5.5t15.5 22.5h18v-96h-17q-6 24 -17 30.5t-38 6.5h-103v-145h145q35 0 51.5 14t25.5 57h18v-102h-372zM136 524q16 0 28 -12t12 -28t-12 -28
t-28 -12t-28 12t-12 28t12 28t28 12zM285 524q17 0 28.5 -12t11.5 -28t-11.5 -28t-28.5 -12t-28.5 12t-11.5 28t11.5 28t28.5 12z" />
    <glyph glyph-name="igrave.sc" unicode="&#xf7ec;" horiz-adv-x="260" 
d="M31 0v18q37 3 51 14.5t14 44.5v230q0 26 -13 39t-52 19v18h191v-18q-34 -5 -46 -16.5t-12 -41.5v-218q0 -35 12.5 -49.5t52.5 -21.5v-18h-198zM177 444l-151 133h91l99 -133h-39z" />
    <glyph glyph-name="iacute.sc" unicode="&#xf7ed;" horiz-adv-x="260" 
d="M31 0v18q37 3 51 14.5t14 44.5v230q0 26 -13 39t-52 19v18h191v-18q-34 -5 -46 -16.5t-12 -41.5v-218q0 -35 12.5 -49.5t52.5 -21.5v-18h-198zM84 444h-39l99 133h91z" />
    <glyph glyph-name="icircumflex.sc" unicode="&#xf7ee;" horiz-adv-x="260" 
d="M31 0v18q37 3 51 14.5t14 44.5v230q0 26 -13 39t-52 19v18h191v-18q-34 -5 -46 -16.5t-12 -41.5v-218q0 -35 12.5 -49.5t52.5 -21.5v-18h-198zM271 444h-41l-100 89l-101 -89h-39l100 133h81z" />
    <glyph glyph-name="idieresis.sc" unicode="&#xf7ef;" horiz-adv-x="260" 
d="M31 0v18q37 3 51 14.5t14 44.5v230q0 26 -13 39t-52 19v18h191v-18q-34 -5 -46 -16.5t-12 -41.5v-218q0 -35 12.5 -49.5t52.5 -21.5v-18h-198zM56 524q16 0 28 -12t12 -28t-12 -28t-28 -12t-28 12t-12 28t12 28t28 12zM205 524q17 0 28.5 -12t11.5 -28t-11.5 -28
t-28.5 -12t-28.5 12t-11.5 28t11.5 28t28.5 12z" />
    <glyph glyph-name="eth.sc" unicode="&#xf7f0;" horiz-adv-x="474" 
d="M86 203v117q0 24 -13 33.5t-45 11.5v18h172q67 0 116.5 -18t74 -47.5t35.5 -59.5t11 -62q0 -98 -68.5 -147t-165.5 -49h-175v18q36 4 47 12.5t11 28.5v123h-45v21h45zM154 203h81v-21h-81v-156q27 -3 42 -3q68 0 116.5 39.5t48.5 122.5q0 85 -47 130t-122 45
q-27 0 -38 -2v-155z" />
    <glyph glyph-name="ntilde.sc" unicode="&#xf7f1;" horiz-adv-x="526" 
d="M501 365q-28 -1 -42 -9t-16.5 -16t-2.5 -23v-323h-8l-316 330v-252q0 -31 9.5 -39t54.5 -15v-18h-155v18q38 5 49 15t11 38v247q0 26 -12 37.5t-48 14.5v13h123l261 -272v207q0 22 -12.5 32.5t-47.5 14.5v18h152v-18zM324 444q-29 0 -68 19q-43 21 -59 21q-33 0 -41 -40
h-21q2 41 21.5 65.5t58.5 24.5q24 0 59 -17q47 -23 65 -23t29.5 11.5t14.5 28.5h21q-2 -38 -21.5 -64t-58.5 -26z" />
    <glyph glyph-name="ograve.sc" unicode="&#xf7f2;" 
d="M422 201q0 -88 -58.5 -150t-140.5 -62q-87 0 -137 56.5t-50 131.5q0 92 56.5 154.5t144.5 62.5q85 0 135 -58t50 -135zM206 353q-45 0 -77 -35t-32 -89q0 -80 51 -139.5t106 -59.5q38 0 72.5 30.5t34.5 94.5q0 70 -45.5 134t-109.5 64zM276 444l-151 133h91l99 -133h-39z
" />
    <glyph glyph-name="oacute.sc" unicode="&#xf7f3;" 
d="M422 201q0 -88 -58.5 -150t-140.5 -62q-87 0 -137 56.5t-50 131.5q0 92 56.5 154.5t144.5 62.5q85 0 135 -58t50 -135zM206 353q-45 0 -77 -35t-32 -89q0 -80 51 -139.5t106 -59.5q38 0 72.5 30.5t34.5 94.5q0 70 -45.5 134t-109.5 64zM183 444h-39l99 133h91z" />
    <glyph glyph-name="ocircumflex.sc" unicode="&#xf7f4;" 
d="M422 201q0 -88 -58.5 -150t-140.5 -62q-87 0 -137 56.5t-50 131.5q0 92 56.5 154.5t144.5 62.5q85 0 135 -58t50 -135zM206 353q-45 0 -77 -35t-32 -89q0 -80 51 -139.5t106 -59.5q38 0 72.5 30.5t34.5 94.5q0 70 -45.5 134t-109.5 64zM370 444h-41l-100 89l-101 -89h-39
l100 133h81z" />
    <glyph glyph-name="otilde.sc" unicode="&#xf7f5;" 
d="M422 201q0 -88 -58.5 -150t-140.5 -62q-87 0 -137 56.5t-50 131.5q0 92 56.5 154.5t144.5 62.5q85 0 135 -58t50 -135zM206 353q-45 0 -77 -35t-32 -89q0 -80 51 -139.5t106 -59.5q38 0 72.5 30.5t34.5 94.5q0 70 -45.5 134t-109.5 64zM284 444q-29 0 -68 19
q-43 21 -59 21q-33 0 -41 -40h-21q2 41 21.5 65.5t58.5 24.5q24 0 59 -17q47 -23 65 -23t29.5 11.5t14.5 28.5h21q-2 -38 -21.5 -64t-58.5 -26z" />
    <glyph glyph-name="odieresis.sc" unicode="&#xf7f6;" 
d="M422 201q0 -88 -58.5 -150t-140.5 -62q-87 0 -137 56.5t-50 131.5q0 92 56.5 154.5t144.5 62.5q85 0 135 -58t50 -135zM206 353q-45 0 -77 -35t-32 -89q0 -80 51 -139.5t106 -59.5q38 0 72.5 30.5t34.5 94.5q0 70 -45.5 134t-109.5 64zM155 524q17 0 28.5 -12t11.5 -28
t-11.5 -28t-28.5 -12t-28.5 12t-11.5 28t11.5 28t28.5 12zM304 524q16 0 28 -12t12 -28t-12 -28t-28 -12t-28 12t-12 28t12 28t28 12z" />
    <glyph glyph-name="oslash.sc" unicode="&#xf7f8;" 
d="M422 201q0 -94 -63 -153t-135 -59q-69 0 -118 40l-42 -49l-22 16l44 51q-49 55 -49 132q0 91 57.5 153t142.5 62q65 0 113 -38l45 53l21 -18l-46 -53q52 -58 52 -137zM206 353q-52 0 -80 -38.5t-28 -81.5q0 -67 38 -127l168 197q-47 50 -98 50zM321 280l-169 -197
q47 -53 102 -53q47 0 77 35t30 89q0 64 -40 126z" />
    <glyph glyph-name="ugrave.sc" unicode="&#xf7f9;" horiz-adv-x="463" 
d="M231 -11q-72 0 -108.5 32t-36.5 78v224q0 20 -7.5 29.5t-17.5 11t-31 1.5v18h184v-18q-35 0 -47.5 -9.5t-12.5 -38.5v-200q0 -51 20.5 -74t68.5 -23q53 0 77.5 34.5t24.5 88.5v169q0 30 -13.5 40.5t-46.5 12.5v18h149v-18q-30 -2 -43 -11.5t-13 -37.5v-175
q0 -152 -147 -152zM290 444l-151 133h91l99 -133h-39z" />
    <glyph glyph-name="uacute.sc" unicode="&#xf7fa;" horiz-adv-x="463" 
d="M231 -11q-72 0 -108.5 32t-36.5 78v224q0 20 -7.5 29.5t-17.5 11t-31 1.5v18h184v-18q-35 0 -47.5 -9.5t-12.5 -38.5v-200q0 -51 20.5 -74t68.5 -23q53 0 77.5 34.5t24.5 88.5v169q0 30 -13.5 40.5t-46.5 12.5v18h149v-18q-30 -2 -43 -11.5t-13 -37.5v-175
q0 -152 -147 -152zM197 444h-39l99 133h91z" />
    <glyph glyph-name="ucircumflex.sc" unicode="&#xf7fb;" horiz-adv-x="463" 
d="M231 -11q-72 0 -108.5 32t-36.5 78v224q0 20 -7.5 29.5t-17.5 11t-31 1.5v18h184v-18q-35 0 -47.5 -9.5t-12.5 -38.5v-200q0 -51 20.5 -74t68.5 -23q53 0 77.5 34.5t24.5 88.5v169q0 30 -13.5 40.5t-46.5 12.5v18h149v-18q-30 -2 -43 -11.5t-13 -37.5v-175
q0 -152 -147 -152zM384 444h-41l-100 89l-101 -89h-39l100 133h81z" />
    <glyph glyph-name="udieresis.sc" unicode="&#xf7fc;" horiz-adv-x="463" 
d="M231 -11q-72 0 -108.5 32t-36.5 78v224q0 20 -7.5 29.5t-17.5 11t-31 1.5v18h184v-18q-35 0 -47.5 -9.5t-12.5 -38.5v-200q0 -51 20.5 -74t68.5 -23q53 0 77.5 34.5t24.5 88.5v169q0 30 -13.5 40.5t-46.5 12.5v18h149v-18q-30 -2 -43 -11.5t-13 -37.5v-175
q0 -152 -147 -152zM169 524q17 0 28.5 -12t11.5 -28t-11.5 -28t-28.5 -12t-28.5 12t-11.5 28t11.5 28t28.5 12zM318 524q16 0 28 -12t12 -28t-12 -28t-28 -12t-28 12t-12 28t12 28t28 12z" />
    <glyph glyph-name="yacute.sc" unicode="&#xf7fd;" horiz-adv-x="438" 
d="M181 365q-23 -3 -32 -8t-8 -10t6 -14q1 -2 2 -3l88 -159l86 149q23 38 -37 45v18h138v-18q-28 -5 -40.5 -14.5t-25.5 -31.5l-108 -185v-80q0 -36 60 -36v-18h-182v18q33 0 44.5 6.5t11.5 29.5v80l-109 196q-7 11 -11 16.5t-16.5 11t-31.5 7.5v18h165v-18zM182 444h-39
l99 133h91z" />
    <glyph glyph-name="thorn.sc" unicode="&#xf7fe;" horiz-adv-x="392" 
d="M27 18q36 1 47.5 10t11.5 32v266q0 20 -13 29t-46 10v18h213v-18q-32 0 -51.5 -3.5t-26 -13.5t-7.5 -14.5t-1 -17.5v-14h35q76 0 120.5 -27.5t44.5 -82.5t-44.5 -83t-120.5 -28h-35v-20q0 -24 17.5 -31.5t68.5 -11.5v-18h-213v18zM189 110q36 0 62.5 20.5t26.5 61.5
q0 40 -26.5 60.5t-62.5 20.5h-35v-163h35z" />
    <glyph glyph-name="ydieresis.sc" unicode="&#xf7ff;" horiz-adv-x="438" 
d="M181 365q-23 -3 -32 -8t-8 -10t6 -14q1 -2 2 -3l88 -159l86 149q23 38 -37 45v18h138v-18q-28 -5 -40.5 -14.5t-25.5 -31.5l-108 -185v-80q0 -36 60 -36v-18h-182v18q33 0 44.5 6.5t11.5 29.5v80l-109 196q-7 11 -11 16.5t-16.5 11t-31.5 7.5v18h165v-18zM154 524
q16 0 28 -12t12 -28t-12 -28t-28 -12t-28 12t-12 28t12 28t28 12zM303 524q17 0 28.5 -12t11.5 -28t-11.5 -28t-28.5 -12t-28.5 12t-11.5 28t11.5 28t28.5 12z" />
    <glyph glyph-name="s_t" unicode="&#xfb06;" horiz-adv-x="579" 
d="M149 359q96 0 130 -66l-57 -37q-3 38 -27 57t-46 19q-20 0 -33 -11t-13 -28t16 -33t55 -37q60 -33 85 -59.5t25 -67.5q0 -49 -35 -79.5t-90 -30.5q-109 0 -132 98l75 49l-1 -6q-18 -112 60 -112q31 0 50.5 17t19.5 43q0 23 -19.5 41t-68.5 44q-50 27 -71.5 52.5
t-21.5 57.5q0 62 68 83q-13 31 -13 53q0 38 31.5 70.5t88.5 32.5q21 0 67.5 -8t63.5 -8q43 0 72 20h22v-168h108l-15 -50h-20q-5 12 -8.5 15.5t-13.5 3.5h-51v-221q0 -67 50 -67q30 0 75 41l11 -23q-24 -29 -47 -43.5t-58 -14.5q-46 0 -72.5 27t-26.5 77v224h-75l13 31
q84 8 95 122q-50 -20 -93 -20q-14 0 -56 5t-60 5q-36 0 -55.5 -16.5t-19.5 -41.5q0 -23 18 -40z" />
    </font>
</defs>
</svg>
